<?xml version="1.0" encoding="UTF-8" standalone="no"?>
<!-- Created with Inkscape (http://www.inkscape.org/) -->

<svg
   version="1.1"
   id="svg9"
   xml:space="preserve"
   width="559.37067"
   height="559.37067"
   viewBox="0 0 559.37067 559.37067"
   sodipodi:docname="cranes.svg"
   inkscape:version="1.1 (c68e22c387, 2021-05-23)"
   xmlns:inkscape="http://www.inkscape.org/namespaces/inkscape"
   xmlns:sodipodi="http://sodipodi.sourceforge.net/DTD/sodipodi-0.dtd"
   xmlns="http://www.w3.org/2000/svg"
   xmlns:svg="http://www.w3.org/2000/svg"><defs
     id="defs13"><clipPath
       clipPathUnits="userSpaceOnUse"
       id="clipPath23"><path
         d="M 0,0 H 419.528 V 419.528 H 0 Z"
         id="path21" /></clipPath><clipPath
       clipPathUnits="userSpaceOnUse"
       id="clipPath367"><path
         d="M 0,0 H 419.528 V 419.528 H 0 Z"
         id="path365" /></clipPath><clipPath
       clipPathUnits="userSpaceOnUse"
       id="clipPath735"><path
         d="M 0,0 H 419.528 V 419.528 H 0 Z"
         id="path733" /></clipPath><clipPath
       clipPathUnits="userSpaceOnUse"
       id="clipPath1103"><path
         d="M 0,0 H 419.528 V 419.528 H 0 Z"
         id="path1101" /></clipPath><clipPath
       clipPathUnits="userSpaceOnUse"
       id="clipPath1147"><path
         d="M 0,0 H 419.528 V 419.528 H 0 Z"
         id="path1145" /></clipPath><clipPath
       clipPathUnits="userSpaceOnUse"
       id="clipPath7235"><path
         d="M 0,0 H 419.528 V 419.528 H 0 Z"
         id="path7233" /></clipPath><clipPath
       clipPathUnits="userSpaceOnUse"
       id="clipPath7519"><path
         d="M 0,0 H 419.528 V 419.528 H 0 Z"
         id="path7517" /></clipPath><clipPath
       clipPathUnits="userSpaceOnUse"
       id="clipPath7855"><path
         d="M 0,0 H 419.528 V 419.528 H 0 Z"
         id="path7853" /></clipPath><clipPath
       clipPathUnits="userSpaceOnUse"
       id="clipPath8223"><path
         d="M 0,0 H 419.528 V 419.528 H 0 Z"
         id="path8221" /></clipPath><clipPath
       clipPathUnits="userSpaceOnUse"
       id="clipPath8699"><path
         d="M 0,0 H 419.528 V 419.528 H 0 Z"
         id="path8697" /></clipPath><clipPath
       clipPathUnits="userSpaceOnUse"
       id="clipPath9499"><path
         d="M 0,0 H 419.528 V 419.528 H 0 Z"
         id="path9497" /></clipPath><clipPath
       clipPathUnits="userSpaceOnUse"
       id="clipPath9559"><path
         d="M 0,0 H 419.528 V 419.528 H 0 Z"
         id="path9557" /></clipPath><clipPath
       clipPathUnits="userSpaceOnUse"
       id="clipPath11167"><path
         d="M 0,0 H 419.528 V 419.528 H 0 Z"
         id="path11165" /></clipPath><clipPath
       clipPathUnits="userSpaceOnUse"
       id="clipPath11591"><path
         d="M 0,0 H 419.528 V 419.528 H 0 Z"
         id="path11589" /></clipPath><clipPath
       clipPathUnits="userSpaceOnUse"
       id="clipPath12123"><path
         d="M 0,0 H 419.528 V 419.528 H 0 Z"
         id="path12121" /></clipPath><clipPath
       clipPathUnits="userSpaceOnUse"
       id="clipPath27562"><path
         d="M 0,0 H 419.528 V 419.528 H 0 Z"
         id="path27560" /></clipPath></defs><sodipodi:namedview
     id="namedview11"
     pagecolor="#ffffff"
     bordercolor="#666666"
     borderopacity="1.0"
     inkscape:pageshadow="2"
     inkscape:pageopacity="0.0"
     inkscape:pagecheckerboard="0"
     showgrid="false"
     inkscape:zoom="1.3372171"
     inkscape:cx="554.50983"
     inkscape:cy="308.85038"
     inkscape:window-width="1920"
     inkscape:window-height="986"
     inkscape:window-x="-11"
     inkscape:window-y="-11"
     inkscape:window-maximized="1"
     inkscape:current-layer="g15" /><g
     id="g15"
     inkscape:groupmode="layer"
     inkscape:label="G&amp;P_02"
     transform="matrix(1.3333333,0,0,-1.3333333,0,559.37067)"><g
       id="g21200"
       transform="translate(53.282301,-74.595221)"><g
         id="g4501"
         transform="translate(38.193431,328.5256)"><path
           d="M 0,0 C -1.001,1.19 -2.021,2.365 -2.998,3.574 -4.2,5.06 -5.366,6.576 -6.547,8.079 -6.668,8.233 -6.783,8.391 -6.908,8.54 c -0.31,0.368 -0.655,0.578 -1.185,0.629 -1.357,0.132 -2.702,0.399 -4.071,0.432 -0.039,10e-4 -0.079,0.004 -0.117,0.012 -1.623,0.307 -1.496,0.165 -1.565,1.716 -0.054,1.207 -0.245,2.407 -0.355,3.611 -0.075,0.813 -0.113,1.629 -0.174,2.444 -0.026,0.349 -0.059,0.698 -0.105,1.045 -0.248,1.858 -0.498,3.715 -0.754,5.571 -0.047,0.343 -0.122,0.682 -0.19,1.06 -0.364,0.039 -0.667,0.106 -0.97,0.1 -1.21,-0.024 -2.42,-0.071 -3.629,-0.109 -0.117,-0.004 -0.235,-0.013 -0.351,-0.004 -0.312,0.025 -0.492,0.293 -0.362,0.58 0.193,0.426 0.39,0.856 0.632,1.255 0.77,1.266 1.551,2.527 2.351,3.774 0.358,0.557 0.773,1.076 1.204,1.67 1.246,0.257 2.557,0.309 3.885,0.221 0.689,-0.046 1.179,-0.32 1.505,-0.926 0.407,-0.755 0.86,-1.487 1.241,-2.255 0.627,-1.264 1.483,-2.371 2.235,-3.534 0.765,0.12 1.284,0.553 1.805,0.948 1.215,0.919 2.48,1.757 3.768,2.57 0.984,0.621 1.868,1.402 2.786,2.127 0.919,0.725 1.822,1.47 2.738,2.2 0.15,0.119 0.324,0.214 0.497,0.299 0.164,0.081 0.416,-0.071 0.44,-0.259 C 4.37,33.562 4.389,33.403 4.375,33.25 4.135,30.606 4.124,27.943 3.652,25.318 3.508,24.52 3.389,23.703 3.506,22.783 c 0.211,0.106 0.386,0.165 0.525,0.271 0.933,0.708 1.975,1.32 2.754,2.171 0.766,0.837 1.814,1.348 2.448,2.323 0.22,0.339 0.654,0.547 1.006,0.791 0.704,0.487 1.419,0.958 2.198,1.481 0.772,-0.529 1.507,-1.216 2.266,-1.832 0.041,-0.545 -0.157,-0.953 -0.466,-1.327 C 13.091,25.278 11.951,23.889 10.805,22.506 10.531,22.176 10.214,21.878 9.964,21.531 8.729,19.817 7.299,18.265 5.959,16.638 4.842,15.282 3.759,13.899 2.628,12.555 2.203,12.051 2.019,11.391 1.509,10.945 1.415,10.862 1.411,10.655 1.397,10.503 1.246,8.791 1.103,7.079 0.952,5.367 0.795,3.578 0.631,1.789 0.469,0 Z m -0.31,1.467 c 0.108,0.099 0.198,0.141 0.209,0.198 0.097,0.537 0.215,1.073 0.26,1.615 0.109,1.322 0.173,2.647 0.273,3.969 0.068,0.894 0.153,1.786 0.256,2.676 0.135,1.161 0.192,2.343 0.467,3.472 0.552,2.273 0.86,4.591 1.379,6.869 0.03,0.133 -0.039,0.289 -0.059,0.415 -0.133,0.025 -0.216,0.068 -0.281,0.049 -1.342,-0.392 -2.674,-0.817 -4.024,-1.18 -1.081,-0.29 -2.095,-0.856 -3.262,-0.808 -0.15,0.006 -0.306,-0.057 -0.455,-0.105 -1.15,-0.365 -2.298,-0.738 -3.449,-1.102 -0.965,-0.306 -1.934,-0.6 -2.898,-0.906 -0.165,-0.053 -0.317,-0.144 -0.538,-0.247 2.08,-2.553 4.071,-5.055 6.125,-7.502 2.046,-2.437 3.865,-5.059 5.997,-7.413 m -13.297,15.657 c 0.732,-0.017 1.378,0.027 2.022,0.226 2.047,0.631 4.101,1.24 6.15,1.863 0.174,0.053 0.337,0.143 0.532,0.227 -0.072,0.579 -0.321,1.015 -0.586,1.443 -0.204,0.331 -0.424,0.653 -0.629,0.984 -0.905,1.457 -1.783,2.93 -2.717,4.368 -0.763,1.176 -1.639,2.282 -2.104,3.63 -0.063,0.181 -0.18,0.346 -0.283,0.511 -0.759,1.218 -0.762,1.205 -2.17,1.443 -0.625,0.106 -1.243,0.116 -1.863,0.008 -0.181,-0.031 -0.352,-0.127 -0.62,-0.227 1.183,-4.742 1.467,-9.578 2.268,-14.476 M 3.519,32.849 C 3.34,32.745 3.17,32.671 3.027,32.56 1.949,31.725 0.875,30.885 -0.197,30.042 c -0.15,-0.119 -0.342,-0.24 -0.404,-0.403 -0.116,-0.305 -0.351,-0.441 -0.614,-0.473 -0.454,-0.055 -0.79,-0.295 -1.142,-0.548 -1.109,-0.797 -2.245,-1.559 -3.339,-2.376 -0.489,-0.364 -1.028,-0.69 -1.441,-1.218 1.063,-1.76 2.107,-3.488 3.143,-5.203 2.139,0.263 5.517,1.161 6.524,1.729 0.395,2.411 1.316,9.795 0.989,11.299 M 12.393,28.96 C 12.235,28.923 12.143,28.927 12.087,28.884 11.294,28.27 10.384,27.812 9.753,26.979 9.405,26.521 8.928,26.152 8.475,25.784 7.296,24.828 6.097,23.895 4.905,22.954 3.817,22.094 3.104,21.036 3.052,19.597 3.038,19.213 2.923,18.831 2.847,18.45 2.709,17.762 2.563,17.077 2.428,16.388 2.248,15.472 2.072,14.555 1.904,13.637 1.872,13.461 1.883,13.276 1.865,12.913 c 0.37,0.355 0.641,0.569 0.857,0.829 0.772,0.925 1.521,1.869 2.289,2.797 0.496,0.599 1.018,1.177 1.515,1.775 0.372,0.449 0.722,0.917 1.084,1.374 0.604,0.762 1.208,1.524 1.818,2.282 0.341,0.424 0.689,0.844 1.043,1.258 1.038,1.214 2.081,2.423 3.121,3.634 0.204,0.237 0.404,0.476 0.352,0.969 -0.124,0.101 -0.326,0.282 -0.545,0.439 -0.345,0.249 -0.701,0.482 -1.006,0.69 M -13.598,16.106 c -0.146,-1.892 0.547,-3.654 0.462,-5.477 0.73,-0.381 1.458,-0.463 2.194,-0.463 0.741,0 1.475,-0.016 2.201,-0.189 0.127,-0.03 0.273,0.017 0.549,0.04 -0.318,0.443 -0.573,0.774 -0.834,1.103 -0.799,1.003 -1.586,2.016 -2.388,3.016 -0.414,0.516 -0.841,1.023 -1.286,1.512 -0.199,0.218 -0.398,0.483 -0.898,0.458 m -1.983,9.957 c -0.059,0.514 -0.099,1.05 -0.189,1.577 -0.097,0.572 -0.223,1.141 -0.372,1.701 -0.131,0.49 -0.015,1.072 -0.539,1.537 -1.179,-1.515 -2.056,-3.152 -3.017,-4.732 -0.047,-0.078 -0.006,-0.21 -0.006,-0.314 2.123,-0.12 3.256,-0.061 4.123,0.231"
           style="fill:#231f20;fill-opacity:1;fill-rule:nonzero;stroke:none"
           id="path4503" /></g><g
         id="g4505"
         transform="translate(37.883731,329.9927)"><path
           d="m 0,0 c -2.132,2.354 -3.952,4.976 -5.997,7.412 -2.054,2.448 -4.045,4.949 -6.126,7.503 0.222,0.103 0.374,0.194 0.538,0.247 0.965,0.306 1.933,0.6 2.898,0.906 1.151,0.364 2.299,0.737 3.45,1.102 0.148,0.047 0.305,0.11 0.455,0.104 1.167,-0.047 2.181,0.519 3.262,0.809 1.349,0.362 2.682,0.788 4.024,1.18 0.065,0.018 0.148,-0.024 0.28,-0.05 0.02,-0.125 0.09,-0.281 0.059,-0.414 C 2.324,16.521 2.016,14.203 1.464,11.93 1.19,10.801 1.133,9.618 0.998,8.458 0.894,7.568 0.81,6.675 0.742,5.782 0.641,4.46 0.578,3.134 0.469,1.813 0.424,1.271 0.305,0.734 0.208,0.198 0.198,0.141 0.108,0.099 0,0"
           style="fill:#f3f474;fill-opacity:1;fill-rule:nonzero;stroke:none"
           id="path4507" /></g><g
         id="g4509"
         transform="translate(24.586131,345.6495)"><path
           d="m 0,0 c -0.801,4.898 -1.085,9.734 -2.267,14.476 0.267,0.101 0.438,0.196 0.62,0.227 0.619,0.108 1.237,0.098 1.862,-0.008 1.409,-0.238 1.411,-0.225 2.17,-1.443 0.103,-0.165 0.22,-0.329 0.283,-0.511 C 3.133,11.393 4.009,10.287 4.772,9.112 5.706,7.674 6.584,6.2 7.489,4.743 7.694,4.412 7.914,4.09 8.119,3.759 8.383,3.331 8.632,2.895 8.705,2.316 8.51,2.232 8.347,2.142 8.172,2.089 6.123,1.466 4.069,0.857 2.022,0.226 1.378,0.027 0.732,-0.017 0,0"
           style="fill:#f3f474;fill-opacity:1;fill-rule:nonzero;stroke:none"
           id="path4511" /></g><g
         id="g4513"
         transform="translate(41.712231,361.3745)"><path
           d="m 0,0 c 0.327,-1.504 -0.594,-8.888 -0.989,-11.299 -1.006,-0.568 -4.385,-1.466 -6.524,-1.729 -1.036,1.715 -2.08,3.443 -3.142,5.203 0.412,0.528 0.951,0.854 1.44,1.218 1.094,0.818 2.23,1.579 3.339,2.376 0.352,0.253 0.689,0.493 1.143,0.548 0.263,0.032 0.497,0.168 0.613,0.473 0.062,0.163 0.254,0.285 0.404,0.403 1.072,0.843 2.146,1.683 3.225,2.518 C -0.349,-0.178 -0.179,-0.104 0,0"
           style="fill:#f3f474;fill-opacity:1;fill-rule:nonzero;stroke:none"
           id="path4515" /></g><g
         id="g4517"
         transform="translate(50.586331,357.4858)"><path
           d="m 0,0 c 0.305,-0.208 0.661,-0.441 1.006,-0.69 0.219,-0.157 0.421,-0.338 0.545,-0.44 0.052,-0.492 -0.148,-0.731 -0.352,-0.968 -1.04,-1.211 -2.083,-2.42 -3.121,-3.634 -0.354,-0.414 -0.702,-0.834 -1.043,-1.258 -0.61,-0.758 -1.214,-1.52 -1.818,-2.282 -0.362,-0.457 -0.711,-0.925 -1.084,-1.374 -0.497,-0.598 -1.019,-1.176 -1.515,-1.775 -0.768,-0.928 -1.517,-1.873 -2.289,-2.798 -0.216,-0.259 -0.486,-0.473 -0.857,-0.828 0.018,0.363 0.007,0.548 0.039,0.724 0.168,0.918 0.344,1.835 0.524,2.751 0.135,0.688 0.282,1.374 0.419,2.062 0.076,0.381 0.191,0.763 0.205,1.147 0.052,1.439 0.765,2.497 1.853,3.357 1.192,0.941 2.391,1.874 3.57,2.83 0.453,0.367 0.93,0.737 1.278,1.195 0.631,0.833 1.541,1.291 2.334,1.905 C -0.25,-0.033 -0.157,-0.037 0,0"
           style="fill:#f0f152;fill-opacity:1;fill-rule:nonzero;stroke:none"
           id="path4519" /></g><g
         id="g4521"
         transform="translate(24.595631,344.6315)"><path
           d="m 0,0 c 0.5,0.025 0.699,-0.24 0.898,-0.458 0.445,-0.489 0.871,-0.996 1.285,-1.512 0.803,-1 1.59,-2.013 2.388,-3.016 0.262,-0.329 0.517,-0.66 0.834,-1.103 C 5.13,-6.112 4.984,-6.159 4.857,-6.128 4.131,-5.956 3.396,-5.94 2.655,-5.94 1.92,-5.94 1.192,-5.858 0.462,-5.477 0.547,-3.654 -0.146,-1.892 0,0"
           style="fill:#f0f152;fill-opacity:1;fill-rule:nonzero;stroke:none"
           id="path4523" /></g><g
         id="g4525"
         transform="translate(22.612431,354.5887)"><path
           d="m 0,0 c -0.867,-0.293 -2,-0.351 -4.123,-0.232 0,0.105 -0.041,0.237 0.006,0.315 0.961,1.58 1.838,3.216 3.017,4.732 0.524,-0.465 0.408,-1.047 0.539,-1.537 0.149,-0.56 0.274,-1.13 0.372,-1.701 C -0.099,1.049 -0.06,0.514 0,0"
           style="fill:#f0f152;fill-opacity:1;fill-rule:nonzero;stroke:none"
           id="path4527" /></g></g><g
       id="g21790"
       transform="translate(-139.20393,-3.172739)"><g
         id="g4529"
         transform="translate(350.47893,191.7034)"><path
           d="M 0,0 C -1.001,1.19 -2.021,2.365 -2.998,3.574 -4.2,5.06 -5.366,6.576 -6.547,8.079 -6.668,8.233 -6.783,8.391 -6.908,8.54 c -0.31,0.368 -0.655,0.578 -1.185,0.629 -1.357,0.132 -2.702,0.399 -4.071,0.432 -0.039,10e-4 -0.079,0.004 -0.117,0.012 -1.623,0.307 -1.496,0.165 -1.565,1.716 -0.054,1.207 -0.245,2.407 -0.355,3.611 -0.075,0.813 -0.113,1.629 -0.174,2.444 -0.026,0.349 -0.059,0.698 -0.105,1.045 -0.248,1.858 -0.498,3.715 -0.754,5.571 -0.047,0.343 -0.122,0.682 -0.19,1.06 -0.364,0.039 -0.667,0.106 -0.97,0.1 -1.21,-0.024 -2.42,-0.071 -3.629,-0.109 -0.117,-0.004 -0.235,-0.013 -0.351,-0.004 -0.312,0.025 -0.492,0.293 -0.362,0.58 0.193,0.426 0.39,0.856 0.632,1.255 0.77,1.266 1.551,2.527 2.351,3.774 0.358,0.557 0.773,1.076 1.204,1.67 1.246,0.257 2.557,0.309 3.885,0.221 0.689,-0.046 1.179,-0.32 1.505,-0.926 0.407,-0.755 0.86,-1.487 1.241,-2.255 0.627,-1.264 1.483,-2.371 2.235,-3.534 0.765,0.12 1.284,0.553 1.805,0.948 1.215,0.919 2.48,1.757 3.768,2.57 0.984,0.621 1.868,1.402 2.786,2.127 0.919,0.725 1.822,1.47 2.738,2.2 0.15,0.119 0.324,0.214 0.497,0.299 0.164,0.081 0.416,-0.071 0.44,-0.259 C 4.37,33.562 4.389,33.403 4.375,33.25 4.135,30.606 4.124,27.943 3.652,25.318 3.508,24.52 3.389,23.703 3.506,22.783 c 0.211,0.106 0.386,0.165 0.525,0.271 0.933,0.708 1.975,1.32 2.754,2.171 0.766,0.837 1.814,1.348 2.448,2.323 0.22,0.339 0.654,0.547 1.006,0.791 0.704,0.487 1.419,0.958 2.198,1.481 0.772,-0.529 1.507,-1.216 2.266,-1.832 0.041,-0.545 -0.157,-0.953 -0.466,-1.327 C 13.091,25.278 11.951,23.889 10.805,22.506 10.531,22.176 10.214,21.878 9.964,21.531 8.729,19.817 7.299,18.265 5.959,16.638 4.842,15.282 3.759,13.899 2.628,12.555 2.203,12.051 2.019,11.391 1.509,10.945 1.415,10.862 1.411,10.655 1.397,10.503 1.246,8.791 1.103,7.079 0.952,5.367 0.795,3.578 0.631,1.789 0.469,0 Z m -0.31,1.467 c 0.108,0.099 0.198,0.141 0.209,0.198 0.097,0.537 0.215,1.073 0.26,1.615 0.109,1.322 0.173,2.647 0.273,3.969 0.068,0.894 0.153,1.786 0.256,2.676 0.135,1.161 0.192,2.343 0.467,3.472 0.552,2.273 0.86,4.591 1.379,6.869 0.03,0.133 -0.039,0.289 -0.059,0.415 -0.133,0.025 -0.216,0.068 -0.281,0.049 -1.342,-0.392 -2.674,-0.817 -4.024,-1.18 -1.081,-0.29 -2.095,-0.856 -3.262,-0.808 -0.15,0.006 -0.306,-0.057 -0.455,-0.105 -1.15,-0.365 -2.298,-0.738 -3.449,-1.102 -0.965,-0.306 -1.934,-0.6 -2.898,-0.906 -0.165,-0.053 -0.317,-0.144 -0.538,-0.247 2.08,-2.553 4.071,-5.055 6.125,-7.502 2.046,-2.437 3.865,-5.059 5.997,-7.413 m -13.297,15.657 c 0.732,-0.017 1.378,0.027 2.022,0.226 2.047,0.631 4.101,1.24 6.15,1.863 0.174,0.053 0.337,0.143 0.532,0.227 -0.072,0.579 -0.321,1.015 -0.586,1.443 -0.204,0.331 -0.424,0.653 -0.629,0.984 -0.905,1.457 -1.783,2.93 -2.717,4.368 -0.763,1.176 -1.639,2.282 -2.104,3.63 -0.063,0.181 -0.18,0.346 -0.283,0.511 -0.759,1.218 -0.762,1.205 -2.17,1.443 -0.625,0.106 -1.243,0.116 -1.863,0.008 -0.181,-0.031 -0.352,-0.127 -0.62,-0.227 1.183,-4.742 1.467,-9.578 2.268,-14.476 M 3.519,32.849 C 3.34,32.745 3.17,32.671 3.027,32.56 1.949,31.725 0.875,30.885 -0.197,30.042 c -0.15,-0.119 -0.342,-0.24 -0.404,-0.403 -0.116,-0.305 -0.351,-0.441 -0.614,-0.473 -0.454,-0.055 -0.79,-0.295 -1.142,-0.548 -1.109,-0.797 -2.245,-1.559 -3.339,-2.376 -0.489,-0.364 -1.028,-0.69 -1.441,-1.218 1.063,-1.76 2.107,-3.488 3.143,-5.203 2.139,0.263 5.517,1.161 6.524,1.729 0.395,2.411 1.316,9.795 0.989,11.299 M 12.393,28.96 C 12.235,28.923 12.143,28.927 12.087,28.884 11.294,28.27 10.384,27.812 9.753,26.979 9.405,26.521 8.928,26.152 8.475,25.784 7.296,24.828 6.097,23.895 4.905,22.954 3.817,22.094 3.104,21.036 3.052,19.597 3.038,19.213 2.923,18.831 2.847,18.45 2.709,17.762 2.563,17.077 2.428,16.388 2.248,15.472 2.072,14.555 1.904,13.637 1.872,13.461 1.883,13.276 1.865,12.913 c 0.37,0.355 0.641,0.569 0.857,0.829 0.772,0.925 1.521,1.869 2.289,2.797 0.496,0.599 1.018,1.177 1.515,1.775 0.372,0.449 0.722,0.917 1.084,1.374 0.604,0.762 1.208,1.524 1.818,2.282 0.341,0.424 0.689,0.844 1.043,1.258 1.038,1.214 2.081,2.423 3.121,3.634 0.204,0.237 0.404,0.476 0.352,0.969 -0.124,0.101 -0.326,0.282 -0.545,0.439 -0.345,0.249 -0.701,0.482 -1.006,0.69 M -13.598,16.106 c -0.146,-1.892 0.547,-3.654 0.462,-5.477 0.73,-0.381 1.458,-0.463 2.194,-0.463 0.741,0 1.475,-0.016 2.201,-0.189 0.127,-0.03 0.273,0.017 0.549,0.04 -0.318,0.443 -0.573,0.774 -0.834,1.103 -0.799,1.003 -1.586,2.016 -2.388,3.016 -0.414,0.516 -0.841,1.023 -1.286,1.512 -0.199,0.218 -0.398,0.483 -0.898,0.458 m -1.983,9.957 c -0.059,0.514 -0.099,1.05 -0.189,1.577 -0.097,0.572 -0.223,1.141 -0.372,1.701 -0.131,0.49 -0.015,1.072 -0.539,1.537 -1.179,-1.515 -2.056,-3.152 -3.017,-4.732 -0.047,-0.078 -0.006,-0.21 -0.006,-0.314 2.123,-0.12 3.256,-0.061 4.123,0.231"
           style="fill:#231f20;fill-opacity:1;fill-rule:nonzero;stroke:none"
           id="path4531" /></g><g
         id="g4533"
         transform="translate(350.16923,193.1706)"><path
           d="m 0,0 c -2.132,2.354 -3.952,4.976 -5.997,7.412 -2.054,2.448 -4.045,4.949 -6.126,7.503 0.222,0.103 0.374,0.194 0.538,0.247 0.965,0.306 1.933,0.6 2.898,0.906 1.151,0.364 2.299,0.737 3.45,1.102 0.148,0.047 0.305,0.11 0.455,0.104 1.167,-0.047 2.181,0.519 3.262,0.809 1.349,0.362 2.682,0.788 4.024,1.18 0.065,0.018 0.148,-0.024 0.28,-0.05 0.02,-0.125 0.09,-0.281 0.059,-0.414 C 2.324,16.521 2.016,14.203 1.464,11.93 1.19,10.801 1.133,9.618 0.998,8.458 0.894,7.568 0.81,6.675 0.742,5.782 0.641,4.46 0.578,3.134 0.469,1.813 0.424,1.271 0.305,0.734 0.208,0.198 0.198,0.141 0.108,0.099 0,0"
           style="fill:#fdc642;fill-opacity:1;fill-rule:nonzero;stroke:none"
           id="path4535" /></g><g
         id="g4537"
         transform="translate(336.87163,208.8273)"><path
           d="m 0,0 c -0.801,4.898 -1.085,9.734 -2.267,14.476 0.267,0.101 0.438,0.196 0.62,0.227 0.619,0.108 1.237,0.098 1.862,-0.008 1.409,-0.238 1.411,-0.225 2.17,-1.443 0.103,-0.165 0.22,-0.329 0.283,-0.511 C 3.133,11.393 4.009,10.287 4.772,9.112 5.706,7.674 6.584,6.2 7.489,4.743 7.694,4.412 7.914,4.09 8.119,3.759 8.383,3.331 8.632,2.895 8.705,2.316 8.51,2.232 8.347,2.142 8.172,2.089 6.123,1.466 4.069,0.857 2.022,0.226 1.378,0.027 0.732,-0.017 0,0"
           style="fill:#fdc642;fill-opacity:1;fill-rule:nonzero;stroke:none"
           id="path4539" /></g><g
         id="g4541"
         transform="translate(353.99773,224.5524)"><path
           d="m 0,0 c 0.327,-1.504 -0.594,-8.888 -0.989,-11.299 -1.006,-0.568 -4.385,-1.466 -6.524,-1.729 -1.036,1.715 -2.08,3.443 -3.142,5.203 0.412,0.528 0.951,0.854 1.44,1.218 1.094,0.818 2.23,1.579 3.339,2.376 0.352,0.253 0.689,0.493 1.143,0.548 0.263,0.032 0.497,0.168 0.613,0.473 0.062,0.163 0.254,0.285 0.404,0.403 1.072,0.843 2.146,1.683 3.225,2.518 C -0.349,-0.178 -0.179,-0.104 0,0"
           style="fill:#fdc642;fill-opacity:1;fill-rule:nonzero;stroke:none"
           id="path4543" /></g><g
         id="g4545"
         transform="translate(362.87183,220.6636)"><path
           d="m 0,0 c 0.305,-0.208 0.661,-0.441 1.006,-0.69 0.219,-0.157 0.421,-0.338 0.545,-0.44 0.052,-0.492 -0.148,-0.731 -0.352,-0.968 -1.04,-1.211 -2.083,-2.42 -3.121,-3.634 -0.354,-0.414 -0.702,-0.834 -1.043,-1.258 -0.61,-0.758 -1.214,-1.52 -1.818,-2.282 -0.362,-0.457 -0.711,-0.925 -1.084,-1.374 -0.497,-0.598 -1.019,-1.176 -1.515,-1.775 -0.768,-0.928 -1.517,-1.873 -2.289,-2.798 -0.216,-0.259 -0.486,-0.473 -0.857,-0.828 0.018,0.363 0.007,0.548 0.039,0.724 0.168,0.918 0.344,1.835 0.524,2.751 0.135,0.688 0.282,1.374 0.419,2.062 0.076,0.381 0.191,0.763 0.205,1.147 0.052,1.439 0.765,2.497 1.853,3.357 1.192,0.941 2.391,1.874 3.57,2.83 0.453,0.367 0.93,0.737 1.278,1.195 0.631,0.833 1.541,1.291 2.334,1.905 C -0.25,-0.033 -0.157,-0.037 0,0"
           style="fill:#fdb813;fill-opacity:1;fill-rule:nonzero;stroke:none"
           id="path4547" /></g><g
         id="g4549"
         transform="translate(336.88113,207.8093)"><path
           d="m 0,0 c 0.5,0.025 0.699,-0.24 0.898,-0.458 0.445,-0.489 0.871,-0.996 1.285,-1.512 0.803,-1 1.59,-2.013 2.388,-3.016 0.262,-0.329 0.517,-0.66 0.834,-1.103 C 5.13,-6.112 4.984,-6.159 4.857,-6.128 4.131,-5.956 3.396,-5.94 2.655,-5.94 1.92,-5.94 1.192,-5.858 0.462,-5.477 0.547,-3.654 -0.146,-1.892 0,0"
           style="fill:#fdb813;fill-opacity:1;fill-rule:nonzero;stroke:none"
           id="path4551" /></g><g
         id="g4553"
         transform="translate(334.89793,217.7665)"><path
           d="m 0,0 c -0.867,-0.293 -2,-0.351 -4.123,-0.232 0,0.105 -0.041,0.237 0.006,0.315 0.961,1.58 1.838,3.216 3.017,4.732 0.524,-0.465 0.408,-1.047 0.539,-1.537 0.149,-0.56 0.274,-1.13 0.372,-1.701 C -0.099,1.049 -0.06,0.514 0,0"
           style="fill:#fdb813;fill-opacity:1;fill-rule:nonzero;stroke:none"
           id="path4555" /></g></g><g
       id="g21774"
       transform="translate(-197.98581,-79.082152)"><g
         id="g4557"
         transform="translate(398.87423,365.2305)"><path
           d="m 0,0 c -2.791,-2.177 -5.826,-3.421 -8.798,-4.79 -0.785,-0.362 -1.453,-0.82 -1.97,-1.556 -0.328,-0.466 -0.768,-0.841 -1.123,-1.287 -0.587,-0.737 -1.145,-1.499 -1.7,-2.23 0.164,-1.161 2.324,-6.194 3.573,-8.32 -0.187,-0.222 -0.376,-0.48 -0.596,-0.703 -1.61,-1.631 -3.399,-3.027 -5.186,-4.424 -0.638,-0.499 -1.3,-0.962 -1.925,-1.478 -0.308,-0.255 -0.55,-0.597 -0.83,-0.892 -0.129,-0.136 -0.277,-0.254 -0.45,-0.41 -0.362,0.599 -0.554,1.145 -0.597,1.803 -0.116,1.757 -0.299,3.509 -0.49,5.259 -0.075,0.699 -0.452,1.156 -1.054,1.545 -1.043,0.674 -2.018,1.474 -2.978,2.281 -0.807,0.677 -1.555,1.434 -2.321,2.166 -0.204,0.195 -0.373,0.431 -0.567,0.64 -0.499,0.538 -0.988,1.09 -1.51,1.603 -0.466,0.458 -0.884,0.944 -1.245,1.505 -0.254,0.395 -0.424,0.793 -0.513,1.251 -0.176,0.902 -0.426,1.783 -0.679,2.638 -2.67,0.099 -5.245,0.386 -7.744,1.131 -0.082,0.671 0.247,1.022 0.653,1.31 0.626,0.445 1.276,0.851 1.894,1.306 1.469,1.08 2.787,2.355 4.096,3.636 0.243,0.237 0.379,0.596 0.575,0.917 3.384,-1.538 6.719,-3.053 10.124,-4.601 0.773,0.65 1.544,1.3 2.318,1.946 0.341,0.286 0.679,0.578 1.033,0.845 1.225,0.926 2.472,1.822 3.541,2.957 0.139,0.148 0.327,0.243 0.465,0.391 0.473,0.507 0.96,0.562 1.617,0.324 1.385,-0.502 2.809,-0.886 4.22,-1.307 1.829,-0.545 3.661,-1.075 5.49,-1.621 C -2.062,1.651 -1.49,1.373 -1.01,0.902 -0.706,0.603 -0.377,0.334 0,0 m -20.322,-16.907 c 1.102,0.882 1.596,2.245 2.612,3.12 0.026,0.022 0.022,0.079 0.039,0.116 0.491,1.077 1.239,1.938 2.046,2.75 1.294,1.303 2.483,2.693 3.525,4.242 0.47,0.699 0.601,1.323 0.385,2.093 -0.045,0.161 -0.079,0.325 -0.115,0.489 -0.287,1.306 -0.57,2.614 -0.86,3.92 -0.279,1.26 -0.492,2.542 -1.052,3.812 -0.253,-0.169 -0.492,-0.297 -0.696,-0.47 -0.711,-0.603 -1.388,-1.253 -2.118,-1.827 -1.146,-0.9 -2.338,-1.733 -3.382,-2.773 -0.427,-0.425 -0.893,-0.809 -1.36,-1.183 -0.377,-0.301 -0.809,-0.528 -1.174,-0.844 -1.105,-0.956 -2.184,-1.944 -3.282,-2.909 -0.64,-0.562 -1.303,-1.095 -1.942,-1.659 -0.421,-0.371 -0.875,-0.732 -0.922,-1.406 0.219,-0.314 0.404,-0.642 0.645,-0.914 1.652,-1.874 3.486,-3.543 5.32,-5.208 0.661,-0.599 1.385,-1.125 2.331,-1.349 m 9.272,-1.162 c -0.303,0.673 -0.602,1.307 -0.877,1.954 -0.667,1.565 -1.318,3.137 -1.989,4.7 -0.106,0.246 -0.283,0.457 -0.484,0.775 -0.511,-0.557 -0.961,-1.022 -1.382,-1.516 -0.316,-0.369 -0.6,-0.77 -0.888,-1.164 -0.799,-1.093 -1.605,-2.181 -2.383,-3.289 -0.363,-0.517 -0.536,-1.105 -0.456,-1.774 0.242,-2.033 0.463,-4.069 0.698,-6.152 0.624,0.1 1.054,0.556 1.515,0.921 1.489,1.179 2.973,2.366 4.427,3.593 0.671,0.566 1.339,1.161 1.819,1.952 m -1.792,21.997 c 0.188,-1.616 0.652,-3.043 0.941,-4.509 0.418,-2.126 0.859,-3.65 1.222,-4.281 2.173,1.002 4.358,1.977 6.515,3.018 0.824,0.398 1.589,0.936 2.368,1.432 0.183,0.116 0.317,0.321 0.516,0.53 C -1.929,0.7 -2.581,1.037 -3.319,1.252 -4.921,1.72 -6.525,2.189 -8.1,2.748 c -1.352,0.48 -2.751,0.755 -4.115,1.174 -0.143,0.044 -0.309,0.006 -0.627,0.006 M -30.948,1.651 c -0.034,-0.246 -0.087,-0.412 -0.074,-0.572 0.115,-1.421 0.226,-2.843 0.374,-4.261 0.061,-0.581 0.192,-1.157 0.326,-1.725 0.25,-1.057 0.521,-2.109 0.797,-3.159 0.047,-0.182 0.083,-0.418 0.341,-0.422 0.572,0.528 1.13,1.06 1.706,1.569 0.578,0.511 1.18,0.991 1.761,1.499 0.611,0.535 1.237,1.056 1.803,1.64 0.522,0.54 1.264,0.833 1.671,1.616 -1.436,0.672 -2.809,1.319 -4.187,1.956 -0.87,0.403 -1.766,0.751 -2.615,1.199 -0.573,0.301 -1.145,0.543 -1.903,0.66 m -0.815,-0.657 c -0.321,-0.189 -0.47,-0.246 -0.584,-0.348 -1.538,-1.389 -3.092,-2.755 -4.817,-3.886 -0.158,-0.104 -0.353,-0.219 -0.28,-0.512 0.987,-0.415 2.03,-0.617 3.098,-0.681 1.05,-0.063 2.091,-0.292 3.19,-0.283 -0.122,0.99 -0.244,1.894 -0.341,2.802 -0.097,0.907 -0.167,1.817 -0.266,2.908"
           style="fill:#231f20;fill-opacity:1;fill-rule:nonzero;stroke:none"
           id="path4559" /></g><g
         id="g4561"
         transform="translate(378.55263,348.3235)"><path
           d="M 0,0 C -0.947,0.224 -1.67,0.75 -2.331,1.349 -4.166,3.014 -6,4.683 -7.652,6.557 c -0.24,0.272 -0.425,0.6 -0.644,0.914 0.047,0.674 0.501,1.035 0.922,1.406 0.639,0.564 1.302,1.097 1.942,1.659 1.097,0.965 2.177,1.953 3.282,2.909 0.364,0.316 0.796,0.543 1.173,0.844 0.468,0.374 0.934,0.758 1.36,1.183 1.045,1.04 2.237,1.873 3.382,2.773 0.731,0.574 1.407,1.224 2.118,1.827 0.205,0.173 0.443,0.301 0.697,0.47 C 7.139,19.272 7.353,17.99 7.632,16.73 7.921,15.424 8.205,14.116 8.491,12.81 8.527,12.646 8.562,12.482 8.607,12.321 8.823,11.551 8.691,10.927 8.222,10.228 7.18,8.679 5.99,7.289 4.696,5.986 3.89,5.174 3.141,4.313 2.65,3.236 2.633,3.199 2.637,3.142 2.612,3.12 1.595,2.245 1.101,0.882 0,0"
           style="fill:#f799d1;fill-opacity:1;fill-rule:nonzero;stroke:none"
           id="path4563" /></g><g
         id="g4565"
         transform="translate(387.82443,347.1618)"><path
           d="m 0,0 c -0.48,-0.792 -1.148,-1.386 -1.819,-1.952 -1.454,-1.227 -2.939,-2.414 -4.427,-3.594 -0.461,-0.365 -0.891,-0.82 -1.515,-0.92 -0.235,2.083 -0.456,4.119 -0.698,6.152 -0.08,0.669 0.092,1.257 0.455,1.774 0.779,1.108 1.585,2.196 2.384,3.288 0.288,0.395 0.572,0.796 0.888,1.165 0.421,0.493 0.871,0.959 1.382,1.516 C -3.149,7.111 -2.972,6.9 -2.867,6.654 -2.195,5.091 -1.545,3.518 -0.878,1.953 -0.602,1.307 -0.303,0.672 0,0"
           style="fill:#f680c5;fill-opacity:1;fill-rule:nonzero;stroke:none"
           id="path4567" /></g><g
         id="g4569"
         transform="translate(386.03213,369.1584)"><path
           d="M 0,0 C 0.318,0 0.484,0.038 0.627,-0.006 1.992,-0.425 3.39,-0.7 4.743,-1.18 6.317,-1.739 7.921,-2.208 9.523,-2.675 10.261,-2.891 10.913,-3.228 11.562,-3.81 11.363,-4.019 11.229,-4.224 11.046,-4.34 10.267,-4.836 9.502,-5.374 8.679,-5.771 6.521,-6.812 4.336,-7.788 2.163,-8.79 1.8,-8.159 1.36,-6.635 0.941,-4.509 0.652,-3.043 0.188,-1.616 0,0"
           style="fill:#f680c5;fill-opacity:1;fill-rule:nonzero;stroke:none"
           id="path4571" /></g><g
         id="g4573"
         transform="translate(367.92613,366.8811)"><path
           d="M 0,0 C 0.758,-0.117 1.33,-0.358 1.903,-0.66 2.752,-1.107 3.648,-1.455 4.519,-1.858 5.896,-2.495 7.27,-3.143 8.705,-3.814 8.298,-4.598 7.556,-4.891 7.034,-5.43 6.468,-6.015 5.842,-6.536 5.231,-7.071 4.651,-7.579 4.048,-8.059 3.47,-8.57 2.894,-9.078 2.336,-9.61 1.764,-10.139 1.506,-10.135 1.47,-9.898 1.423,-9.717 1.147,-8.667 0.876,-7.615 0.626,-6.558 0.492,-5.989 0.361,-5.414 0.3,-4.833 0.152,-3.415 0.041,-1.993 -0.074,-0.571 -0.087,-0.411 -0.034,-0.245 0,0"
           style="fill:#f799d1;fill-opacity:1;fill-rule:nonzero;stroke:none"
           id="path4575" /></g><g
         id="g4577"
         transform="translate(367.11163,366.2243)"><path
           d="m 0,0 c 0.098,-1.091 0.169,-2.001 0.266,-2.908 0.096,-0.908 0.219,-1.812 0.341,-2.802 -1.1,-0.009 -2.141,0.22 -3.191,0.283 -1.067,0.064 -2.11,0.267 -3.097,0.681 -0.073,0.293 0.122,0.408 0.28,0.512 1.724,1.131 3.278,2.497 4.817,3.886 C -0.471,-0.246 -0.321,-0.189 0,0"
           style="fill:#f680c5;fill-opacity:1;fill-rule:nonzero;stroke:none"
           id="path4579" /></g></g><g
       id="g21804"
       transform="translate(-123.34023,47.194493)"><g
         id="g4581"
         transform="translate(398.87423,234.0018)"><path
           d="m 0,0 c -2.791,-2.177 -5.826,-3.421 -8.798,-4.79 -0.785,-0.362 -1.453,-0.82 -1.97,-1.556 -0.328,-0.466 -0.768,-0.841 -1.123,-1.287 -0.587,-0.737 -1.145,-1.499 -1.7,-2.23 0.164,-1.161 2.324,-6.194 3.573,-8.32 -0.187,-0.222 -0.376,-0.48 -0.596,-0.703 -1.61,-1.631 -3.399,-3.027 -5.186,-4.424 -0.638,-0.499 -1.3,-0.962 -1.925,-1.478 -0.308,-0.255 -0.55,-0.597 -0.83,-0.892 -0.129,-0.136 -0.277,-0.254 -0.45,-0.41 -0.362,0.599 -0.554,1.145 -0.597,1.803 -0.116,1.757 -0.299,3.509 -0.49,5.259 -0.075,0.699 -0.452,1.156 -1.054,1.545 -1.043,0.674 -2.018,1.474 -2.978,2.281 -0.807,0.677 -1.555,1.434 -2.321,2.166 -0.204,0.195 -0.373,0.431 -0.567,0.64 -0.499,0.538 -0.988,1.09 -1.51,1.603 -0.466,0.458 -0.884,0.944 -1.245,1.505 -0.254,0.395 -0.424,0.793 -0.513,1.251 -0.176,0.902 -0.426,1.783 -0.679,2.638 -2.67,0.099 -5.245,0.386 -7.744,1.131 -0.082,0.671 0.247,1.022 0.653,1.31 0.626,0.445 1.276,0.851 1.894,1.306 1.469,1.08 2.787,2.355 4.096,3.636 0.243,0.237 0.379,0.596 0.575,0.917 3.384,-1.538 6.719,-3.053 10.124,-4.601 0.773,0.65 1.544,1.3 2.318,1.946 0.341,0.286 0.679,0.578 1.033,0.845 1.225,0.926 2.472,1.822 3.541,2.957 0.139,0.148 0.327,0.243 0.465,0.391 0.473,0.507 0.96,0.562 1.617,0.324 1.385,-0.502 2.809,-0.886 4.22,-1.307 1.829,-0.545 3.661,-1.075 5.49,-1.621 C -2.062,1.651 -1.49,1.373 -1.01,0.902 -0.706,0.603 -0.377,0.334 0,0 m -20.322,-16.907 c 1.102,0.882 1.596,2.245 2.612,3.12 0.026,0.022 0.022,0.079 0.039,0.116 0.491,1.077 1.239,1.938 2.046,2.75 1.294,1.303 2.483,2.693 3.525,4.242 0.47,0.699 0.601,1.323 0.385,2.093 -0.045,0.161 -0.079,0.325 -0.115,0.489 -0.287,1.306 -0.57,2.614 -0.86,3.92 -0.279,1.26 -0.492,2.542 -1.052,3.812 -0.253,-0.169 -0.492,-0.297 -0.696,-0.47 -0.711,-0.603 -1.388,-1.253 -2.118,-1.827 -1.146,-0.9 -2.338,-1.733 -3.382,-2.773 -0.427,-0.425 -0.893,-0.809 -1.36,-1.183 -0.377,-0.301 -0.809,-0.528 -1.174,-0.844 -1.105,-0.956 -2.184,-1.944 -3.282,-2.909 -0.64,-0.562 -1.303,-1.095 -1.942,-1.659 -0.421,-0.371 -0.875,-0.732 -0.922,-1.406 0.219,-0.314 0.404,-0.642 0.645,-0.914 1.652,-1.874 3.486,-3.543 5.32,-5.208 0.661,-0.599 1.385,-1.125 2.331,-1.349 m 9.272,-1.162 c -0.303,0.673 -0.602,1.307 -0.877,1.954 -0.667,1.565 -1.318,3.137 -1.989,4.7 -0.106,0.246 -0.283,0.457 -0.484,0.775 -0.511,-0.557 -0.961,-1.022 -1.382,-1.516 -0.316,-0.369 -0.6,-0.77 -0.888,-1.164 -0.799,-1.093 -1.605,-2.181 -2.383,-3.289 -0.363,-0.517 -0.536,-1.105 -0.456,-1.774 0.242,-2.033 0.463,-4.069 0.698,-6.152 0.624,0.1 1.054,0.556 1.515,0.921 1.489,1.179 2.973,2.366 4.427,3.593 0.671,0.566 1.339,1.161 1.819,1.952 m -1.792,21.997 c 0.188,-1.616 0.652,-3.043 0.941,-4.509 0.418,-2.126 0.859,-3.65 1.222,-4.281 2.173,1.002 4.358,1.977 6.515,3.018 0.824,0.398 1.589,0.936 2.368,1.432 0.183,0.116 0.317,0.321 0.516,0.53 C -1.929,0.7 -2.581,1.037 -3.319,1.252 -4.921,1.72 -6.525,2.189 -8.1,2.748 c -1.352,0.48 -2.751,0.755 -4.115,1.174 -0.143,0.044 -0.309,0.006 -0.627,0.006 M -30.948,1.651 c -0.034,-0.246 -0.087,-0.412 -0.074,-0.572 0.115,-1.421 0.226,-2.843 0.374,-4.261 0.061,-0.581 0.192,-1.157 0.326,-1.725 0.25,-1.057 0.521,-2.109 0.797,-3.159 0.047,-0.182 0.083,-0.418 0.341,-0.422 0.572,0.528 1.13,1.06 1.706,1.569 0.578,0.511 1.18,0.991 1.761,1.499 0.611,0.535 1.237,1.056 1.803,1.64 0.522,0.54 1.264,0.833 1.671,1.616 -1.436,0.672 -2.809,1.319 -4.187,1.956 -0.87,0.403 -1.766,0.751 -2.615,1.199 -0.573,0.301 -1.145,0.543 -1.903,0.66 m -0.815,-0.657 c -0.321,-0.189 -0.47,-0.246 -0.584,-0.348 -1.538,-1.389 -3.092,-2.755 -4.817,-3.886 -0.158,-0.104 -0.353,-0.219 -0.28,-0.512 0.987,-0.415 2.03,-0.617 3.098,-0.681 1.05,-0.063 2.091,-0.292 3.19,-0.283 -0.122,0.99 -0.244,1.894 -0.341,2.802 -0.097,0.907 -0.167,1.817 -0.266,2.908"
           style="fill:#231f20;fill-opacity:1;fill-rule:nonzero;stroke:none"
           id="path4583" /></g><g
         id="g4585"
         transform="translate(378.55263,217.0947)"><path
           d="M 0,0 C -0.947,0.224 -1.67,0.75 -2.331,1.349 -4.166,3.014 -6,4.683 -7.652,6.557 c -0.24,0.272 -0.425,0.6 -0.644,0.914 0.047,0.674 0.501,1.035 0.922,1.406 0.639,0.564 1.302,1.097 1.942,1.659 1.097,0.965 2.177,1.953 3.282,2.909 0.364,0.316 0.796,0.543 1.173,0.844 0.468,0.374 0.934,0.758 1.36,1.183 1.045,1.04 2.237,1.873 3.382,2.773 0.731,0.574 1.407,1.224 2.118,1.827 0.205,0.173 0.443,0.301 0.697,0.47 C 7.139,19.272 7.353,17.99 7.632,16.73 7.921,15.424 8.205,14.116 8.491,12.81 8.527,12.646 8.562,12.482 8.607,12.321 8.823,11.551 8.691,10.927 8.222,10.228 7.18,8.679 5.99,7.289 4.696,5.986 3.89,5.174 3.141,4.313 2.65,3.236 2.633,3.199 2.637,3.142 2.612,3.12 1.595,2.245 1.101,0.882 0,0"
           style="fill:#dfc4e7;fill-opacity:1;fill-rule:nonzero;stroke:none"
           id="path4587" /></g><g
         id="g4589"
         transform="translate(387.82443,215.9331)"><path
           d="m 0,0 c -0.48,-0.792 -1.148,-1.386 -1.819,-1.952 -1.454,-1.227 -2.939,-2.414 -4.427,-3.594 -0.461,-0.365 -0.891,-0.82 -1.515,-0.92 -0.235,2.083 -0.456,4.119 -0.698,6.152 -0.08,0.669 0.092,1.257 0.455,1.774 0.779,1.108 1.585,2.196 2.384,3.288 0.288,0.395 0.572,0.796 0.888,1.165 0.421,0.493 0.871,0.959 1.382,1.516 C -3.149,7.111 -2.972,6.9 -2.867,6.654 -2.195,5.091 -1.545,3.518 -0.878,1.953 -0.602,1.307 -0.303,0.672 0,0"
           style="fill:#d6b6e1;fill-opacity:1;fill-rule:nonzero;stroke:none"
           id="path4591" /></g><g
         id="g4593"
         transform="translate(386.03213,237.9296)"><path
           d="M 0,0 C 0.318,0 0.484,0.038 0.627,-0.006 1.992,-0.425 3.39,-0.7 4.743,-1.18 6.317,-1.739 7.921,-2.208 9.523,-2.675 10.261,-2.891 10.913,-3.228 11.562,-3.81 11.363,-4.019 11.229,-4.224 11.046,-4.34 10.267,-4.836 9.502,-5.374 8.679,-5.771 6.521,-6.812 4.336,-7.788 2.163,-8.79 1.8,-8.159 1.36,-6.635 0.941,-4.509 0.652,-3.043 0.188,-1.616 0,0"
           style="fill:#d6b6e1;fill-opacity:1;fill-rule:nonzero;stroke:none"
           id="path4595" /></g><g
         id="g4597"
         transform="translate(367.92613,235.6524)"><path
           d="M 0,0 C 0.758,-0.117 1.33,-0.358 1.903,-0.66 2.752,-1.107 3.648,-1.455 4.519,-1.858 5.896,-2.495 7.27,-3.143 8.705,-3.814 8.298,-4.598 7.556,-4.891 7.034,-5.43 6.468,-6.015 5.842,-6.536 5.231,-7.071 4.651,-7.579 4.048,-8.059 3.47,-8.57 2.894,-9.078 2.336,-9.61 1.764,-10.139 1.506,-10.135 1.47,-9.898 1.423,-9.717 1.147,-8.667 0.876,-7.615 0.626,-6.558 0.492,-5.989 0.361,-5.414 0.3,-4.833 0.152,-3.415 0.041,-1.993 -0.074,-0.571 -0.087,-0.411 -0.034,-0.245 0,0"
           style="fill:#dfc4e7;fill-opacity:1;fill-rule:nonzero;stroke:none"
           id="path4599" /></g><g
         id="g4601"
         transform="translate(367.11163,234.9956)"><path
           d="m 0,0 c 0.098,-1.091 0.169,-2.001 0.266,-2.908 0.096,-0.908 0.219,-1.812 0.341,-2.802 -1.1,-0.009 -2.141,0.22 -3.191,0.283 -1.067,0.064 -2.11,0.267 -3.097,0.681 -0.073,0.293 0.122,0.408 0.28,0.512 1.724,1.131 3.278,2.497 4.817,3.886 C -0.471,-0.246 -0.321,-0.189 0,0"
           style="fill:#d6b6e1;fill-opacity:1;fill-rule:nonzero;stroke:none"
           id="path4603" /></g></g><g
       id="g4629"
       transform="translate(24.460931,254.1946)"><path
         d="m 0,0 c -0.161,-0.11 -0.247,-0.379 -0.509,-0.216 -0.206,0.127 -0.128,0.342 -0.085,0.502 0.025,0.094 0.165,0.205 0.259,0.205 C -0.042,0.491 -0.055,0.227 0,0"
         style="fill:#231f20;fill-opacity:1;fill-rule:nonzero;stroke:none"
         id="path4631" /></g><g
       id="g6305"
       transform="translate(360.70473,173.544)"><path
         d="m 0,0 c -1.568,-0.083 -2.931,-0.158 -4.294,-0.227 -1.782,-0.089 -3.563,-0.177 -5.344,-0.259 -1.161,-0.053 -2.322,-0.102 -3.483,-0.138 -2.655,-0.083 -5.309,-0.185 -7.964,-0.226 -2.614,-0.04 -5.23,0.005 -7.844,-0.022 -1.493,-0.015 -2.986,-0.088 -4.477,-0.154 -1.659,-0.073 -3.318,-0.156 -4.975,-0.253 -2.523,-0.147 -5.044,-0.31 -7.551,-0.668 -3.412,-0.488 -6.844,-0.888 -10.289,-0.802 -2.023,0.05 -4.07,-0.178 -6.078,0.271 -0.081,0.018 -0.178,0.067 -0.241,0.04 -1.026,-0.435 -2.051,0.037 -3.077,-0.003 -1.036,-0.04 -2.076,0.004 -3.113,-0.014 -1.784,-0.033 -3.567,-0.101 -5.351,-0.125 -1.576,-0.021 -3.153,-0.003 -4.73,0.003 -0.11,0 -0.22,0.044 -0.328,0.067 0.016,0.11 -0.001,0.216 0.043,0.259 1.905,1.849 3.893,3.597 6.025,5.188 1.694,1.265 3.295,2.653 4.945,3.977 0.582,0.467 1.208,0.881 1.774,1.365 1.704,1.455 3.386,2.935 5.082,4.399 0.753,0.65 1.504,1.303 2.285,1.919 2.411,1.901 4.823,3.8 7.258,5.67 1.611,1.238 3.263,2.422 4.894,3.634 0.4,0.297 0.797,0.599 1.179,0.917 1.274,1.062 2.537,2.137 3.812,3.197 0.221,0.184 0.478,0.325 0.767,0.519 0.268,-0.191 0.533,-0.372 0.79,-0.566 1.29,-0.974 2.578,-1.952 3.867,-2.928 0.165,-0.125 0.33,-0.252 0.501,-0.369 1.163,-0.796 2.326,-1.592 3.493,-2.384 1.784,-1.211 3.573,-2.416 5.356,-3.629 1.782,-1.213 3.555,-2.439 5.341,-3.647 2.06,-1.394 4.144,-2.755 6.191,-4.168 2.39,-1.65 4.895,-3.109 7.36,-4.637 C -6.839,5.377 -5.578,4.423 -4.292,3.514 -3.209,2.747 -2.128,1.976 -1.066,1.18 -0.686,0.895 -0.285,0.599 0,0"
         style="fill:#ffffff;fill-opacity:1;fill-rule:nonzero;stroke:none"
         id="path6307" /></g><g
       id="g9489"
       transform="translate(97.0164,339.3495)"><path
         d="M 0,0 0.06,-0.003 0.031,0.073 Z"
         style="fill:#231f20;fill-opacity:1;fill-rule:nonzero;stroke:none"
         id="path9491" /></g><g
       id="g28740"
       transform="translate(-268.01986,-125.83863)"><g
         id="g27552"
         transform="translate(357.2474,349.6259)"><path
           d="M 0,0 10.913,2.055 11.48,0.142 7.289,-4.677 Z"
           style="fill:#2da0f9;fill-opacity:1;fill-rule:nonzero;stroke:none"
           id="path27554" /></g><g
         id="g27556"><g
           id="g27558"
           clip-path="url(#clipPath27562)"><g
             id="g27564"
             transform="translate(400.1989,332.2725)"><path
               d="m 0,0 c -0.44,-0.299 -0.713,-0.754 -1.03,-1.159 -0.783,-1 -1.517,-2.039 -2.278,-3.058 -0.589,-0.79 -1.199,-1.565 -1.782,-2.359 -1.067,-1.455 -2.129,-2.913 -3.178,-4.38 -0.747,-1.045 -1.814,-1.773 -2.648,-2.732 -0.211,-0.243 -0.512,-0.232 -0.781,-0.034 -0.495,0.365 -1.005,0.711 -1.477,1.103 -0.571,0.473 -1.149,0.909 -1.849,1.196 -0.486,0.201 -0.936,0.511 -1.368,0.821 -0.861,0.619 -1.773,1.149 -2.697,1.665 -0.211,0.118 -0.448,0.243 -0.585,0.43 -0.288,0.391 -0.712,0.549 -1.116,0.729 -0.21,0.094 -0.505,0.138 -0.713,0.065 -1.02,-0.356 -2.093,-0.382 -3.138,-0.572 -1.493,-0.272 -2.981,-0.573 -4.474,-0.843 -1.372,-0.249 -2.746,-0.496 -4.125,-0.702 -1.782,-0.267 -3.567,-0.519 -5.357,-0.727 -1.3,-0.152 -2.609,-0.223 -3.888,-0.327 -0.553,0.52 -0.605,1.07 -0.157,1.561 1.401,1.537 2.27,3.395 3.224,5.201 0.631,1.196 1.213,2.418 1.803,3.636 0.322,0.663 0.603,1.347 0.925,2.011 0.142,0.293 0.297,0.6 0.521,0.828 0.406,0.415 0.52,0.859 0.495,1.442 -0.106,2.539 -0.164,5.08 -0.212,7.621 -0.012,0.653 -0.259,1.109 -0.856,1.35 -0.416,0.167 -4.832,3.147 -5.096,3.328 -0.373,0.254 -0.766,0.479 -1.135,0.739 -0.235,0.166 -0.418,0.386 -0.404,0.772 0.181,0.082 0.35,0.201 0.535,0.237 2.254,0.433 4.5,0.918 6.768,1.255 1.415,0.21 2.457,0.234 3.892,0.312 0.162,0.009 1.771,-1.798 2.188,-2.292 0.902,-1.069 1.705,-2.203 2.432,-3.396 0.77,-1.265 1.703,-2.409 2.677,-3.524 0.592,-0.678 1.131,-1.402 1.681,-2.116 1.002,-1.3 1.983,-2.615 2.993,-3.909 2.173,-2.782 4.358,-5.555 6.539,-8.332 0.125,-0.159 0.259,-0.313 0.439,-0.53 1.86,1.207 3.659,2.475 5.554,3.576 1.913,1.111 3.638,2.511 5.546,3.577 C -1.369,2.223 -0.778,1.692 0,1.726 Z m -34.967,3.366 c 0.486,-0.639 1.139,-0.995 1.767,-1.379 1.645,-1.007 3.245,-2.077 4.68,-3.378 0.242,-0.219 0.519,-0.401 0.776,-0.605 1.095,-0.869 2.331,-1.527 3.477,-2.316 1.924,-1.322 3.759,-2.773 5.662,-4.126 0.901,-0.64 1.837,-1.25 2.822,-1.745 1.251,-0.629 2.452,-1.312 3.525,-2.216 0.243,-0.205 0.543,-0.34 0.785,-0.488 1.195,0.624 1.318,0.739 1.786,1.65 -0.122,0.209 -0.227,0.436 -0.373,0.632 -1.617,2.168 -2.971,4.518 -4.693,6.619 -2.001,2.44 -3.889,4.974 -5.82,7.471 -1.053,1.362 -2.126,2.711 -3.131,4.109 -0.576,0.801 -1.189,1.561 -1.832,2.305 -0.697,0.806 -1.414,1.61 -1.987,2.502 -1.021,1.588 -2.06,3.157 -3.292,4.591 -0.151,0.175 -0.231,0.446 -0.626,0.412 -0.304,-0.358 -0.658,-0.753 -0.985,-1.169 -0.584,-0.742 -1.098,-1.546 -1.739,-2.233 -0.818,-0.88 -1.04,-1.924 -1.027,-3.042 0.019,-1.557 0.111,-3.114 0.161,-4.671 0.031,-0.983 0.043,-1.967 0.064,-2.923 m -7.086,-13.391 c 3.259,0.078 6.323,0.629 9.41,0.965 3.222,0.351 6.323,1.358 9.535,1.77 0.24,0.031 0.472,0.131 0.706,0.203 0.036,0.011 0.076,0.034 0.097,0.064 0.022,0.032 0.025,0.077 0.057,0.192 -0.335,0.291 -0.776,0.551 -1.039,0.933 -0.322,0.471 -0.758,0.76 -1.226,0.982 -0.751,0.357 -1.381,0.867 -2.038,1.354 -0.555,0.413 -1.154,0.766 -1.727,1.154 -0.373,0.252 -0.747,0.506 -1.099,0.786 -0.481,0.382 -0.935,0.797 -1.411,1.185 -1.341,1.091 -2.883,1.832 -4.415,2.614 -0.385,-0.349 -0.658,-0.695 -0.854,-1.109 -0.752,-1.589 -1.481,-3.19 -2.274,-4.759 -0.868,-1.717 -1.805,-3.398 -2.925,-4.971 -0.278,-0.39 -0.633,-0.748 -0.797,-1.363 M -0.697,0.805 C -0.75,0.898 -0.773,0.99 -0.833,1.036 -1.522,1.567 -2.231,1.667 -2.984,1.15 -4.136,0.359 -5.251,-0.497 -6.462,-1.182 c -1.718,-0.972 -3.314,-2.124 -4.979,-3.172 -0.476,-0.298 -0.961,-0.621 -1.223,-1.235 1.293,-1.58 2.116,-3.496 3.608,-5.009 0.566,0.591 1.039,1.143 1.452,1.751 0.46,0.678 0.923,1.355 1.408,2.016 0.995,1.358 1.996,2.712 3.014,4.054 0.644,0.85 1.317,1.678 1.987,2.509 0.262,0.325 0.463,0.668 0.498,1.073 m -35.058,12.331 c 1.14,1.499 2.563,2.977 3.717,4.501 0.017,0.022 -0.011,0.896 -0.567,1.134 -0.695,-0.075 -2.356,-0.116 -3.865,-0.394 -0.186,-0.035 -2.077,-0.273 -3.494,-0.516 -1.164,-0.201 -2.247,-0.345 -2.462,-0.596 -0.35,-0.409 2.78,-1.628 3.375,-2.303 0.326,-0.369 2.852,-1.689 3.296,-1.826"
               style="fill:#231f20;fill-opacity:1;fill-rule:nonzero;stroke:none"
               id="path27566" /></g><g
             id="g27568"
             transform="translate(365.2315,335.6387)"><path
               d="m 0,0 c -0.02,0.956 -0.032,1.94 -0.064,2.923 -0.05,1.557 -0.142,3.114 -0.161,4.671 -0.013,1.118 0.209,2.162 1.028,3.041 0.64,0.688 1.155,1.492 1.739,2.234 0.327,0.416 0.681,0.81 0.984,1.169 0.395,0.033 0.475,-0.237 0.626,-0.412 1.233,-1.434 2.271,-3.003 3.292,-4.591 0.574,-0.892 1.29,-1.696 1.987,-2.502 0.643,-0.744 1.257,-1.505 1.832,-2.305 1.005,-1.398 2.078,-2.747 3.132,-4.109 1.931,-2.497 3.818,-5.031 5.819,-7.471 1.723,-2.101 3.076,-4.451 4.693,-6.62 0.146,-0.196 0.251,-0.422 0.374,-0.632 -0.469,-0.91 -0.592,-1.025 -1.787,-1.649 -0.241,0.148 -0.542,0.283 -0.784,0.487 -1.074,0.905 -2.274,1.587 -3.526,2.217 -0.985,0.494 -1.921,1.105 -2.821,1.745 C 14.459,-10.451 12.624,-9 10.701,-7.678 9.555,-6.89 8.319,-6.231 7.223,-5.362 6.966,-5.158 6.689,-4.977 6.447,-4.757 5.012,-3.456 3.413,-2.386 1.767,-1.379 1.139,-0.995 0.487,-0.639 0,0"
               style="fill:#57b3fa;fill-opacity:1;fill-rule:nonzero;stroke:none"
               id="path27570" /></g><g
             id="g27572"
             transform="translate(358.1458,322.248)"><path
               d="m 0,0 c 0.164,0.615 0.519,0.972 0.797,1.362 1.12,1.573 2.057,3.254 2.925,4.972 0.793,1.569 1.522,3.17 2.275,4.759 0.195,0.413 0.468,0.759 0.854,1.109 1.531,-0.783 3.073,-1.524 4.414,-2.615 0.476,-0.388 0.93,-0.803 1.411,-1.185 0.352,-0.28 0.726,-0.533 1.099,-0.786 C 14.348,7.228 14.947,6.875 15.502,6.463 16.159,5.976 16.789,5.465 17.54,5.109 18.009,4.886 18.444,4.597 18.767,4.126 19.029,3.744 19.47,3.484 19.805,3.193 19.773,3.079 19.77,3.033 19.748,3.002 19.727,2.972 19.688,2.948 19.652,2.937 19.417,2.866 19.185,2.765 18.945,2.735 15.733,2.322 12.632,1.316 9.41,0.965 6.324,0.628 3.259,0.077 0,0"
               style="fill:#2da0f9;fill-opacity:1;fill-rule:nonzero;stroke:none"
               id="path27574" /></g><g
             id="g27576"
             transform="translate(399.5016,333.0775)"><path
               d="m 0,0 c -0.035,-0.405 -0.236,-0.748 -0.498,-1.073 -0.669,-0.831 -1.343,-1.659 -1.987,-2.509 -1.017,-1.342 -2.019,-2.696 -3.014,-4.054 -0.485,-0.661 -0.948,-1.338 -1.408,-2.016 -0.412,-0.608 -0.885,-1.16 -1.452,-1.751 -1.491,1.513 -2.315,3.429 -3.608,5.009 0.262,0.614 0.748,0.937 1.223,1.235 1.665,1.048 3.261,2.2 4.979,3.172 1.211,0.685 2.327,1.541 3.478,2.332 0.753,0.517 1.463,0.417 2.152,-0.114 C -0.076,0.185 -0.053,0.093 0,0"
               style="fill:#2da0f9;fill-opacity:1;fill-rule:nonzero;stroke:none"
               id="path27578" /></g></g></g></g></g></svg>
