<?xml version="1.0" encoding="UTF-8" standalone="no"?>
<!-- Created with Inkscape (http://www.inkscape.org/) -->

<svg
   version="1.1"
   id="svg9"
   xml:space="preserve"
   width="559.37067"
   height="559.37067"
   viewBox="0 0 559.37067 559.37067"
   sodipodi:docname="drinks.svg"
   inkscape:version="1.1 (c68e22c387, 2021-05-23)"
   xmlns:inkscape="http://www.inkscape.org/namespaces/inkscape"
   xmlns:sodipodi="http://sodipodi.sourceforge.net/DTD/sodipodi-0.dtd"
   xmlns="http://www.w3.org/2000/svg"
   xmlns:svg="http://www.w3.org/2000/svg"><defs
     id="defs13"><clipPath
       clipPathUnits="userSpaceOnUse"
       id="clipPath23"><path
         d="M 0,0 H 419.528 V 419.528 H 0 Z"
         id="path21" /></clipPath><clipPath
       clipPathUnits="userSpaceOnUse"
       id="clipPath367"><path
         d="M 0,0 H 419.528 V 419.528 H 0 Z"
         id="path365" /></clipPath><clipPath
       clipPathUnits="userSpaceOnUse"
       id="clipPath735"><path
         d="M 0,0 H 419.528 V 419.528 H 0 Z"
         id="path733" /></clipPath><clipPath
       clipPathUnits="userSpaceOnUse"
       id="clipPath1103"><path
         d="M 0,0 H 419.528 V 419.528 H 0 Z"
         id="path1101" /></clipPath><clipPath
       clipPathUnits="userSpaceOnUse"
       id="clipPath1147"><path
         d="M 0,0 H 419.528 V 419.528 H 0 Z"
         id="path1145" /></clipPath><clipPath
       clipPathUnits="userSpaceOnUse"
       id="clipPath7235"><path
         d="M 0,0 H 419.528 V 419.528 H 0 Z"
         id="path7233" /></clipPath><clipPath
       clipPathUnits="userSpaceOnUse"
       id="clipPath7519"><path
         d="M 0,0 H 419.528 V 419.528 H 0 Z"
         id="path7517" /></clipPath><clipPath
       clipPathUnits="userSpaceOnUse"
       id="clipPath7855"><path
         d="M 0,0 H 419.528 V 419.528 H 0 Z"
         id="path7853" /></clipPath><clipPath
       clipPathUnits="userSpaceOnUse"
       id="clipPath8223"><path
         d="M 0,0 H 419.528 V 419.528 H 0 Z"
         id="path8221" /></clipPath><clipPath
       clipPathUnits="userSpaceOnUse"
       id="clipPath8699"><path
         d="M 0,0 H 419.528 V 419.528 H 0 Z"
         id="path8697" /></clipPath><clipPath
       clipPathUnits="userSpaceOnUse"
       id="clipPath9499"><path
         d="M 0,0 H 419.528 V 419.528 H 0 Z"
         id="path9497" /></clipPath><clipPath
       clipPathUnits="userSpaceOnUse"
       id="clipPath9559"><path
         d="M 0,0 H 419.528 V 419.528 H 0 Z"
         id="path9557" /></clipPath><clipPath
       clipPathUnits="userSpaceOnUse"
       id="clipPath11167"><path
         d="M 0,0 H 419.528 V 419.528 H 0 Z"
         id="path11165" /></clipPath><clipPath
       clipPathUnits="userSpaceOnUse"
       id="clipPath11591"><path
         d="M 0,0 H 419.528 V 419.528 H 0 Z"
         id="path11589" /></clipPath><clipPath
       clipPathUnits="userSpaceOnUse"
       id="clipPath12123"><path
         d="M 0,0 H 419.528 V 419.528 H 0 Z"
         id="path12121" /></clipPath><clipPath
       clipPathUnits="userSpaceOnUse"
       id="clipPath100411"><path
         d="M 0,0 H 419.528 V 419.528 H 0 Z"
         id="path100409" /></clipPath><clipPath
       clipPathUnits="userSpaceOnUse"
       id="clipPath1147-0"><path
         d="M 0,0 H 419.528 V 419.528 H 0 Z"
         id="path1145-0" /></clipPath><clipPath
       clipPathUnits="userSpaceOnUse"
       id="clipPath12123-9"><path
         d="M 0,0 H 419.528 V 419.528 H 0 Z"
         id="path12121-9" /></clipPath></defs><sodipodi:namedview
     id="namedview11"
     pagecolor="#ffffff"
     bordercolor="#666666"
     borderopacity="1.0"
     inkscape:pageshadow="2"
     inkscape:pageopacity="0.0"
     inkscape:pagecheckerboard="0"
     showgrid="false"
     inkscape:zoom="0.66860853"
     inkscape:cx="-9.7216827"
     inkscape:cy="275.1984"
     inkscape:window-width="1920"
     inkscape:window-height="986"
     inkscape:window-x="-11"
     inkscape:window-y="-11"
     inkscape:window-maximized="1"
     inkscape:current-layer="g15" /><g
     id="g15"
     inkscape:groupmode="layer"
     inkscape:label="G&amp;P_02"
     transform="matrix(1.3333333,0,0,-1.3333333,0,559.37067)"><g
       id="g55338"
       transform="translate(80.203885,17.386856)"><g
         id="g4605"
         transform="translate(35.231054,170.18413)"><path
           d="m 0,0 c -0.733,-0.078 -1.467,-0.147 -2.199,-0.236 -0.48,-0.059 -0.958,-0.043 -1.445,-0.001 -0.449,0.039 -0.903,0.011 -1.35,-0.026 -1.136,-0.091 -2.271,-0.192 -3.402,-0.312 -0.73,-0.078 -1.449,-0.225 -2.179,-0.288 -0.627,-0.054 -1.262,-0.063 -1.894,-0.037 -0.453,0.019 -0.62,0.248 -0.652,0.746 -0.028,0.433 0.078,0.804 0.428,1.05 0.105,0.073 0.202,0.161 0.314,0.221 0.868,0.465 1.612,1.093 2.296,1.811 0.367,0.385 0.768,0.736 1.17,1.08 0.247,0.211 0.444,0.45 0.627,0.729 0.287,0.439 0.384,0.923 0.359,1.436 -0.048,1.009 -0.131,2.019 -0.214,3.029 -0.112,1.35 -0.227,2.7 -0.359,4.049 -0.079,0.803 -0.234,1.604 -0.282,2.407 -0.075,1.231 -0.315,2.446 -0.471,3.668 -0.078,0.611 -0.233,1.217 -0.376,1.821 -0.157,0.668 -0.32,1.337 -0.52,1.994 -0.115,0.377 -0.302,0.734 -0.468,1.094 -0.224,0.486 -0.436,0.979 -0.694,1.445 -0.391,0.71 -0.807,1.407 -1.232,2.097 -0.615,0.996 -1.208,2.013 -1.886,2.962 -0.581,0.813 -1.121,1.645 -1.595,2.525 -0.344,0.637 -0.665,1.288 -1.002,1.93 -0.153,0.289 -0.321,0.57 -0.482,0.854 -0.404,0.716 -0.574,1.517 -0.828,2.286 -0.205,0.619 -0.409,1.248 -0.523,1.885 -0.185,1.032 -0.301,2.074 -0.436,3.112 -0.115,0.885 -0.248,1.771 -0.313,2.658 -0.067,0.92 -0.107,1.846 -0.075,2.761 0.046,1.272 0.206,2.533 0.249,3.805 0.034,1.002 0.311,1.927 0.511,2.879 0.077,0.362 0.093,0.743 0.185,1.099 0.141,0.544 0.184,0.814 0.941,0.83 0.252,0.005 0.497,0.108 0.749,0.118 1.206,0.048 2.404,0.137 3.598,0.293 0.922,0.121 1.867,0.105 2.802,0.132 0.581,0.016 1.167,-0.031 1.744,0.009 0.592,0.041 1.174,0.162 1.763,0.232 0.239,0.028 0.483,0.024 0.726,0.019 0.202,-0.003 0.474,-0.222 0.515,-0.401 0.109,-0.483 0.227,-0.964 0.32,-1.45 0.171,-0.907 0.448,-1.792 0.558,-2.714 0.09,-0.762 0.304,-1.513 0.444,-2.272 0.147,-0.792 0.279,-1.587 0.402,-2.382 0.15,-0.965 0.287,-1.932 0.42,-2.899 0.152,-1.104 0.159,-2.209 0.154,-3.312 -0.004,-1.023 -0.01,-2.048 -0.079,-3.064 -0.069,-1.016 -0.184,-2.028 -0.336,-3.029 -0.168,-1.101 -0.391,-2.19 -0.609,-3.279 -0.225,-1.124 -0.46,-2.244 -0.717,-3.359 -0.154,-0.671 -0.369,-1.324 -0.535,-1.992 -0.17,-0.679 -0.317,-1.367 -0.466,-2.053 -0.118,-0.54 -0.289,-1.076 -0.322,-1.629 -0.065,-1.067 -0.256,-2.12 -0.176,-3.206 0.062,-0.836 0.071,-1.674 0.145,-2.51 0.078,-0.889 0.202,-1.776 0.31,-2.664 0.119,-0.986 0.249,-1.971 0.362,-2.957 0.109,-0.953 0.178,-1.91 0.31,-2.86 C -5.567,9.064 -5.378,7.998 -4.967,6.98 -4.779,6.517 -4.63,6.038 -4.421,5.586 -4.008,4.696 -3.316,4.071 -2.574,3.489 -2.074,3.096 -1.533,2.812 -0.957,2.6 -0.22,2.328 0.391,1.844 0.918,1.25 1.081,1.066 1.144,0.752 1.185,0.489 1.221,0.259 0.973,0.03 0.731,0.009 0.49,-0.012 0.246,-0.012 0.004,-0.022 0.003,-0.015 0.001,-0.007 0,0 m -14.461,49.647 c -0.015,-0.303 -0.046,-0.554 -0.036,-0.804 0.049,-1.123 0.141,-2.243 0.273,-3.364 0.09,-0.769 0.126,-1.542 0.211,-2.311 0.128,-1.145 0.277,-2.289 0.419,-3.434 0.025,-0.202 0.076,-0.403 0.091,-0.606 0.053,-0.717 0.093,-1.434 0.145,-2.151 0.012,-0.17 0.039,-0.342 0.077,-0.51 0.173,-0.77 0.36,-1.538 0.526,-2.309 0.071,-0.331 -0.2,-0.625 -0.464,-0.498 -0.121,0.057 -0.226,0.241 -0.272,0.388 -0.515,1.647 -1.048,3.289 -1.513,4.949 -0.353,1.262 -0.647,2.541 -0.909,3.823 -0.203,0.994 -0.301,2.006 -0.47,3.007 -0.139,0.815 -0.249,1.629 -0.289,2.452 -0.017,0.353 -0.091,0.706 -0.148,1.118 -0.74,-0.135 -1.478,0.245 -2.182,-0.104 -0.018,-0.15 -0.044,-0.298 -0.051,-0.449 -0.087,-1.811 0.046,-3.618 0.329,-5.427 0.231,-1.476 0.514,-2.942 0.921,-4.385 0.35,-1.24 0.622,-2.514 1.36,-3.613 0.038,-0.056 0.055,-0.127 0.086,-0.188 0.65,-1.256 1.24,-2.547 2.123,-3.664 0.405,-0.511 0.746,-1.076 1.139,-1.597 0.411,-0.546 0.842,-1.077 1.281,-1.599 0.306,-0.363 0.496,-0.806 0.871,-1.132 0.337,-0.293 0.682,-0.453 1.082,-0.532 0.123,-0.024 0.254,-0.023 0.37,-0.069 0.778,-0.305 1.486,-0.128 2.088,0.334 0.551,0.422 0.916,1.034 1.078,1.761 0.158,0.703 0.302,1.411 0.462,2.114 0.341,1.506 0.696,3.007 1.027,4.516 0.093,0.425 0.098,0.875 0.181,1.304 0.21,1.09 0.447,2.172 0.4,3.312 -0.014,0.341 0.008,0.682 0.015,1.022 0.019,0.87 0.067,1.738 0.051,2.608 -0.014,0.677 -0.113,1.357 -0.164,2.035 -0.025,0.34 0.004,0.685 -0.049,1.021 -0.165,1.052 -0.359,2.101 -0.536,3.152 -0.079,0.465 -0.105,0.492 -0.527,0.47 -0.555,-0.028 -1.111,-0.044 -1.667,-0.073 -0.737,-0.038 -1.475,-0.069 -2.209,-0.128 -0.882,-0.072 -1.76,-0.178 -2.642,-0.255 -0.815,-0.07 -1.632,-0.122 -2.478,-0.184 m 9.324,1.389 c -0.288,1.404 -0.551,2.755 -0.848,4.1 -0.141,0.638 -0.338,1.265 -0.526,1.893 -0.147,0.486 -0.251,0.547 -0.719,0.488 -0.303,-0.038 -0.603,-0.089 -0.907,-0.121 -0.622,-0.067 -1.246,-0.121 -1.867,-0.191 -0.239,-0.027 -0.47,-0.112 -0.709,-0.124 -0.547,-0.026 -1.099,-0.004 -1.645,-0.037 -0.592,-0.034 -1.18,-0.114 -1.771,-0.159 -0.205,-0.016 -0.416,0.016 -0.624,0.022 -0.528,0.014 -1.064,0.079 -1.583,0.024 -0.538,-0.058 -1.058,-0.234 -1.559,-0.352 -0.406,-0.812 -1.044,-5.506 -1.027,-6.466 0.056,-0.024 0.133,-0.089 0.174,-0.071 0.413,0.182 0.845,0.084 1.278,0.072 0.618,-0.016 0.67,0.072 0.644,0.749 -0.033,0.872 -0.08,1.745 -0.125,2.618 -0.021,0.416 0.133,0.56 0.531,0.536 0.367,-0.022 0.734,-0.019 1.099,-0.011 0.463,0.011 0.847,-0.382 0.834,-0.87 -0.011,-0.425 -0.027,-0.85 -0.035,-1.276 -0.008,-0.486 -0.01,-0.973 -0.014,-1.439 0.073,-0.039 0.104,-0.068 0.131,-0.067 0.976,0.066 1.951,0.134 2.927,0.202 0.112,0.008 0.226,0.034 0.337,0.022 0.889,-0.093 1.764,-0.047 2.633,0.102 0.33,0.056 0.667,0.086 1.003,0.107 0.528,0.032 1.061,0.033 1.588,0.075 0.245,0.019 0.482,0.105 0.78,0.174 m -6.814,-51.21 c 0.213,0.024 0.369,0.04 0.525,0.059 0.653,0.08 1.306,0.17 1.961,0.237 0.622,0.064 1.247,0.107 1.871,0.154 1.108,0.082 2.216,0.167 3.325,0.239 0.644,0.041 1.296,0.024 1.935,0.095 0.749,0.084 1.488,0.237 2.255,0.172 C -0.008,0.776 0.064,0.811 0.151,0.83 0.123,0.913 0.12,0.982 0.09,1.001 -0.546,1.4 -1.181,1.802 -1.826,2.185 c -0.619,0.367 -1.249,0.71 -1.871,1.071 -0.067,0.039 -0.114,0.125 -0.161,0.195 -0.359,0.547 -0.717,1.095 -1.073,1.644 -0.046,0.071 -0.072,0.193 -0.128,0.213 -0.472,0.169 -0.438,0.594 -0.502,0.974 -0.051,0.305 -0.073,0.621 -0.173,0.91 -0.365,1.054 -0.559,2.137 -0.682,3.229 -0.143,1.26 -0.2,2.526 -0.359,3.784 -0.118,0.932 -0.308,1.858 -0.354,2.798 -0.017,0.356 -0.043,0.712 -0.071,1.068 -0.093,1.209 -0.22,2.418 -0.27,3.627 -0.029,0.692 0.053,1.385 0.113,2.074 0.038,0.437 0.128,0.866 0.193,1.299 0.056,0.377 0.11,0.755 0.176,1.213 -0.347,-0.121 -0.662,-0.186 -0.933,-0.336 -0.363,-0.2 -0.735,-0.198 -1.126,-0.124 -0.225,0.043 -0.447,0.109 -0.672,0.149 -0.167,0.03 -0.336,0.034 -0.537,0.053 -0.04,-0.548 0.053,-1.038 0.222,-1.47 0.311,-0.801 0.614,-1.591 0.843,-2.428 0.389,-1.423 0.611,-2.863 0.845,-4.305 0.165,-1.018 0.255,-2.047 0.369,-3.072 0.167,-1.516 0.31,-3.035 0.493,-4.55 0.173,-1.42 0.269,-2.84 0.253,-4.258 C -7.237,5.364 -7.326,4.788 -7.74,4.357 -8.006,4.08 -8.271,3.8 -8.513,3.501 -8.84,3.098 -9.131,2.672 -9.551,2.351 -10.239,1.826 -10.888,1.244 -11.547,0.679 -11.768,0.488 -11.94,0.256 -11.951,-0.174 m -4.246,53.479 c -0.011,-0.108 -0.03,-0.204 -0.029,-0.302 0.007,-1.125 -0.016,-2.25 0.036,-3.375 0.075,-1.607 0.228,-3.215 0.498,-4.81 0.165,-0.981 0.413,-1.95 0.64,-2.922 0.124,-0.534 0.268,-1.066 0.428,-1.592 0.082,-0.269 0.217,-0.523 0.328,-0.783 0.036,0.01 0.073,0.02 0.109,0.031 -0.541,4.586 -1.133,9.17 -1.125,13.787 -0.285,-0.011 -0.55,-0.021 -0.885,-0.034"
           style="fill:#231f20;fill-opacity:1;fill-rule:nonzero;stroke:none"
           id="path4607" /></g><g
         id="g4609"
         transform="translate(19.267655,232.94933)"><path
           d="m 0,0 c 0.015,-0.403 -0.157,-0.818 -0.421,-0.879 -0.206,-0.048 -0.393,-0.063 -0.54,0.113 -0.162,0.193 -0.35,0.394 -0.26,0.687 0.034,0.111 0.074,0.22 0.109,0.331 0.134,0.436 0.172,0.471 0.466,0.412 C -0.233,0.581 -0.024,0.366 0,0"
           style="fill:#231f20;fill-opacity:1;fill-rule:nonzero;stroke:none"
           id="path4611" /></g><g
         id="g4613"
         transform="translate(24.914654,232.62323)"><path
           d="m 0,0 c 0.013,-0.319 -0.199,-0.607 -0.447,-0.607 -0.229,-0.001 -0.574,0.401 -0.589,0.686 -0.013,0.27 0.161,0.433 0.468,0.438 C -0.254,0.522 -0.013,0.303 0,0"
           style="fill:#231f20;fill-opacity:1;fill-rule:nonzero;stroke:none"
           id="path4615" /></g><g
         id="g4617"
         transform="translate(23.066955,229.25073)"><path
           d="M 0,0 C -0.229,-0.019 -0.394,0.166 -0.423,0.471 -0.445,0.708 -0.295,0.865 -0.037,0.875 0.2,0.884 0.426,0.729 0.461,0.532 0.502,0.302 0.258,0.021 0,0"
           style="fill:#231f20;fill-opacity:1;fill-rule:nonzero;stroke:none"
           id="path4619" /></g><g
         id="g4621"
         transform="translate(19.013455,239.77253)"><path
           d="M 0,0 C -0.222,-0.013 -0.427,0.213 -0.463,0.51 -0.491,0.741 -0.34,0.898 -0.086,0.901 0.138,0.904 0.321,0.733 0.344,0.5 0.371,0.219 0.23,0.013 0,0"
           style="fill:#231f20;fill-opacity:1;fill-rule:nonzero;stroke:none"
           id="path4623" /></g><g
         id="g4625"
         transform="translate(22.216454,237.39073)"><path
           d="M 0,0 C 0.271,0.458 0.373,0.509 0.619,0.328 0.759,0.226 0.81,-0.031 0.717,-0.163 0.578,-0.359 0.307,-0.304 0,0"
           style="fill:#231f20;fill-opacity:1;fill-rule:nonzero;stroke:none"
           id="path4627" /></g><g
         id="g4629"
         transform="translate(22.375254,243.09713)"><path
           d="m 0,0 c -0.161,-0.11 -0.247,-0.379 -0.509,-0.216 -0.206,0.127 -0.128,0.342 -0.085,0.502 0.025,0.094 0.165,0.205 0.259,0.205 C -0.042,0.491 -0.055,0.227 0,0"
           style="fill:#231f20;fill-opacity:1;fill-rule:nonzero;stroke:none"
           id="path4631" /></g><g
         id="g4633"
         transform="translate(20.769854,219.83153)"><path
           d="M 0,0 C 0.846,0.062 1.664,0.113 2.478,0.184 3.36,0.26 4.238,0.367 5.12,0.438 5.855,0.498 6.593,0.529 7.33,0.567 7.885,0.596 8.441,0.612 8.996,0.64 9.418,0.661 9.445,0.635 9.523,0.169 9.7,-0.882 9.895,-1.93 10.059,-2.983 c 0.053,-0.335 0.024,-0.68 0.049,-1.02 0.052,-0.679 0.15,-1.358 0.164,-2.035 0.017,-0.871 -0.032,-1.739 -0.051,-2.608 -0.007,-0.341 -0.029,-0.681 -0.015,-1.022 0.047,-1.14 -0.19,-2.223 -0.4,-3.313 -0.082,-0.428 -0.088,-0.879 -0.181,-1.303 -0.33,-1.509 -0.686,-3.011 -1.027,-4.517 -0.16,-0.703 -0.304,-1.41 -0.461,-2.114 -0.163,-0.727 -0.528,-1.338 -1.079,-1.761 -0.602,-0.461 -1.31,-0.639 -2.088,-0.333 -0.116,0.045 -0.247,0.044 -0.37,0.069 -0.4,0.079 -0.745,0.239 -1.082,0.532 -0.375,0.326 -0.565,0.769 -0.871,1.132 -0.439,0.521 -0.869,1.052 -1.281,1.598 -0.393,0.522 -0.734,1.087 -1.138,1.598 -0.884,1.117 -1.474,2.407 -2.123,3.663 -0.032,0.062 -0.049,0.133 -0.086,0.189 -0.739,1.098 -1.01,2.372 -1.361,3.613 -0.407,1.442 -0.69,2.908 -0.921,4.385 -0.283,1.809 -0.416,3.615 -0.329,5.426 0.007,0.151 0.034,0.3 0.051,0.449 0.704,0.35 1.442,-0.031 2.182,0.104 0.057,-0.411 0.131,-0.765 0.148,-1.118 0.04,-0.822 0.151,-1.636 0.289,-2.452 0.169,-1 0.268,-2.012 0.47,-3.007 0.262,-1.281 0.556,-2.561 0.909,-3.822 0.466,-1.66 0.998,-3.303 1.513,-4.95 0.046,-0.146 0.152,-0.33 0.272,-0.388 0.264,-0.127 0.535,0.167 0.464,0.498 -0.166,0.772 -0.353,1.54 -0.526,2.31 -0.038,0.168 -0.065,0.339 -0.077,0.509 -0.051,0.718 -0.092,1.435 -0.145,2.152 -0.015,0.202 -0.066,0.403 -0.091,0.606 -0.142,1.144 -0.291,2.288 -0.418,3.433 -0.086,0.77 -0.121,1.543 -0.212,2.312 -0.132,1.12 -0.224,2.241 -0.272,3.363 C -0.046,-0.554 -0.015,-0.304 0,0 M 5.292,-4.283 C 4.829,-4.407 4.911,-4.836 4.842,-5.155 4.753,-5.566 4.935,-5.859 5.28,-5.964 c 0.365,-0.112 0.748,0.062 0.876,0.399 0.148,0.388 -0.027,0.892 -0.396,1.093 -0.158,0.086 -0.333,0.136 -0.468,0.189 m 1.623,-11.996 c 0.321,0.005 0.502,0.295 0.481,0.772 -0.019,0.438 -0.311,0.829 -0.608,0.815 -0.408,-0.019 -0.707,-0.368 -0.682,-0.794 0.027,-0.458 0.375,-0.8 0.809,-0.793 M 1.819,-3.595 c 0.308,-0.004 0.479,0.144 0.48,0.414 0,0.238 -0.2,0.508 -0.39,0.525 -0.23,0.02 -0.464,-0.285 -0.452,-0.587 0.012,-0.276 0.087,-0.349 0.362,-0.352 m 6.256,-7.584 c -0.022,0.28 -0.12,0.389 -0.35,0.39 -0.291,10e-4 -0.464,-0.176 -0.44,-0.448 0.019,-0.22 0.243,-0.433 0.465,-0.441 0.226,-0.009 0.349,0.181 0.325,0.499 m -4.083,-4.272 c 0.04,0.214 0.104,0.404 0.105,0.598 0.002,0.306 -0.251,0.444 -0.503,0.298 -0.251,-0.146 -0.286,-0.337 -0.158,-0.629 0.105,-0.239 0.286,-0.247 0.556,-0.267 m -0.773,5.3 c -0.216,0.009 -0.356,-0.112 -0.348,-0.304 0.009,-0.254 0.277,-0.607 0.46,-0.608 0.133,0 0.345,0.291 0.35,0.48 0.007,0.229 -0.198,0.421 -0.462,0.432 m 4.347,8.439 c -0.011,0.198 -0.203,0.388 -0.394,0.388 -0.177,0 -0.38,-0.236 -0.375,-0.434 0.008,-0.267 0.201,-0.485 0.424,-0.478 0.188,0.006 0.36,0.268 0.345,0.524 M 5.679,-19.876 c -0.016,0.269 -0.188,0.424 -0.453,0.429 -0.206,0.004 -0.281,-0.129 -0.289,-0.307 -0.012,-0.233 0.214,-0.51 0.392,-0.513 0.171,-0.003 0.361,0.21 0.35,0.391"
           style="fill:#f1e8cb;fill-opacity:1;fill-rule:nonzero;stroke:none"
           id="path4635" /></g><g
         id="g4637"
         transform="translate(30.093855,221.22033)"><path
           d="M 0,0 C -0.297,-0.069 -0.535,-0.155 -0.78,-0.174 -1.307,-0.216 -1.839,-0.217 -2.368,-0.249 -2.704,-0.27 -3.041,-0.3 -3.371,-0.356 -4.24,-0.505 -5.115,-0.551 -6.003,-0.458 c -0.112,0.012 -0.226,-0.014 -0.338,-0.022 -0.976,-0.068 -1.951,-0.136 -2.927,-0.202 -0.027,-0.002 -0.057,0.028 -0.131,0.067 0.004,0.466 0.006,0.953 0.015,1.439 0.007,0.426 0.023,0.85 0.034,1.276 0.013,0.488 -0.371,0.88 -0.833,0.87 -0.366,-0.008 -0.733,-0.011 -1.1,0.011 -0.398,0.024 -0.552,-0.12 -0.531,-0.536 0.045,-0.873 0.092,-1.746 0.126,-2.618 0.026,-0.677 -0.027,-0.765 -0.645,-0.749 -0.433,0.012 -0.865,0.109 -1.278,-0.072 -0.041,-0.018 -0.118,0.046 -0.174,0.071 -0.016,0.96 0.621,5.654 1.028,6.466 0.5,0.118 1.021,0.294 1.559,0.351 0.518,0.056 1.054,-0.009 1.582,-0.023 0.208,-0.006 0.419,-0.038 0.624,-0.022 0.592,0.045 1.179,0.125 1.771,0.159 0.546,0.032 1.098,0.011 1.645,0.037 0.239,0.012 0.471,0.097 0.709,0.124 0.622,0.07 1.246,0.124 1.867,0.191 0.304,0.032 0.604,0.083 0.907,0.121 C -1.625,6.539 -1.52,6.479 -1.374,5.992 -1.186,5.365 -0.988,4.737 -0.848,4.1 -0.551,2.755 -0.288,1.404 0,0"
           style="fill:#fcfaf5;fill-opacity:1;fill-rule:nonzero;stroke:none"
           id="path4639" /></g><g
         id="g4641"
         transform="translate(23.280554,170.01033)"><path
           d="M 0,0 C 0.01,0.429 0.182,0.662 0.404,0.852 1.063,1.418 1.712,1.999 2.4,2.525 2.82,2.846 3.111,3.272 3.437,3.675 3.68,3.974 3.945,4.254 4.21,4.531 4.624,4.962 4.714,5.538 4.72,6.116 4.735,7.535 4.639,8.955 4.467,10.375 4.283,11.89 4.141,13.409 3.973,14.925 3.86,15.95 3.769,16.978 3.604,17.997 3.371,19.438 3.149,20.879 2.759,22.302 2.53,23.138 2.228,23.928 1.916,24.73 1.748,25.162 1.654,25.652 1.694,26.2 1.895,26.181 2.065,26.177 2.232,26.147 2.457,26.107 2.679,26.041 2.904,25.998 3.295,25.924 3.667,25.922 4.03,26.122 4.3,26.272 4.615,26.337 4.963,26.458 4.896,25.999 4.843,25.622 4.786,25.245 4.722,24.812 4.631,24.383 4.594,23.946 4.534,23.257 4.452,22.564 4.48,21.871 4.53,20.663 4.658,19.454 4.751,18.245 4.778,17.889 4.805,17.533 4.822,17.176 4.868,16.237 5.058,15.311 5.176,14.379 5.335,13.121 5.392,11.854 5.534,10.595 5.658,9.503 5.852,8.419 6.216,7.366 6.316,7.077 6.338,6.76 6.39,6.456 6.454,6.076 6.42,5.651 6.892,5.482 6.948,5.462 6.973,5.339 7.019,5.269 7.376,4.72 7.733,4.172 8.093,3.625 8.139,3.555 8.187,3.469 8.254,3.43 8.875,3.069 9.506,2.725 10.124,2.358 10.769,1.976 11.404,1.573 12.041,1.175 12.071,1.156 12.074,1.087 12.102,1.004 12.015,0.985 11.943,0.95 11.872,0.956 11.105,1.021 10.366,0.868 9.617,0.784 8.978,0.713 8.326,0.73 7.682,0.688 6.572,0.617 5.465,0.532 4.356,0.45 3.732,0.403 3.108,0.36 2.486,0.296 1.83,0.229 1.178,0.139 0.524,0.059 0.369,0.04 0.213,0.024 0,0"
           style="fill:#fcfaf5;fill-opacity:1;fill-rule:nonzero;stroke:none"
           id="path4643" /></g><g
         id="g4645"
         transform="translate(19.034354,223.48893)"><path
           d="m 0,0 c 0.334,0.013 0.599,0.023 0.885,0.034 -0.009,-4.616 0.583,-9.201 1.125,-13.787 -0.037,-0.01 -0.073,-0.021 -0.109,-0.031 -0.111,0.261 -0.247,0.514 -0.328,0.783 -0.16,0.526 -0.304,1.058 -0.428,1.592 -0.227,0.972 -0.475,1.942 -0.641,2.922 -0.269,1.595 -0.422,3.203 -0.497,4.81 -0.052,1.126 -0.029,2.251 -0.037,3.376 0,0.097 0.019,0.193 0.03,0.301"
           style="fill:#ece7dd;fill-opacity:1;fill-rule:nonzero;stroke:none"
           id="path4647" /></g><g
         id="g4649"
         transform="translate(26.062355,215.54893)"><path
           d="M 0,0 C 0.135,-0.053 0.31,-0.103 0.468,-0.19 0.836,-0.39 1.012,-0.895 0.864,-1.283 0.736,-1.619 0.353,-1.794 -0.012,-1.682 -0.357,-1.576 -0.539,-1.283 -0.451,-0.873 -0.382,-0.553 -0.463,-0.124 0,0 m 0.224,-1.048 c 0.087,0.22 0.087,0.22 -0.096,0.391 -0.092,-0.224 -0.092,-0.224 0.096,-0.391"
           style="fill:#231f20;fill-opacity:1;fill-rule:nonzero;stroke:none"
           id="path4651" /></g><g
         id="g4653"
         transform="translate(27.684355,203.55223)"><path
           d="M 0,0 C -0.433,-0.007 -0.782,0.335 -0.809,0.793 -0.834,1.219 -0.534,1.568 -0.127,1.587 0.17,1.602 0.462,1.21 0.482,0.773 0.503,0.295 0.322,0.005 0,0 m -0.181,0.569 c 0.204,0.233 0.138,0.395 -0.082,0.574 -0.163,-0.22 -0.241,-0.392 0.082,-0.574"
           style="fill:#231f20;fill-opacity:1;fill-rule:nonzero;stroke:none"
           id="path4655" /></g><g
         id="g4657"
         transform="translate(22.589154,216.23613)"><path
           d="M 0,0 C -0.275,0.003 -0.35,0.076 -0.362,0.352 -0.375,0.654 -0.14,0.96 0.089,0.939 0.28,0.922 0.48,0.653 0.48,0.414 0.479,0.145 0.308,-0.003 0,0"
           style="fill:#231f20;fill-opacity:1;fill-rule:nonzero;stroke:none"
           id="path4659" /></g><g
         id="g4661"
         transform="translate(28.844554,208.65243)"><path
           d="M 0,0 C 0.025,-0.318 -0.099,-0.508 -0.324,-0.499 -0.546,-0.49 -0.771,-0.278 -0.79,-0.057 -0.814,0.214 -0.64,0.391 -0.35,0.39 -0.119,0.389 -0.022,0.281 0,0"
           style="fill:#231f20;fill-opacity:1;fill-rule:nonzero;stroke:none"
           id="path4663" /></g><g
         id="g4665"
         transform="translate(24.761755,204.38053)"><path
           d="M 0,0 C -0.27,0.02 -0.451,0.028 -0.556,0.267 -0.684,0.559 -0.649,0.75 -0.398,0.896 -0.146,1.042 0.107,0.904 0.105,0.598 0.104,0.404 0.04,0.214 0,0"
           style="fill:#231f20;fill-opacity:1;fill-rule:nonzero;stroke:none"
           id="path4667" /></g><g
         id="g4669"
         transform="translate(23.989254,209.68053)"><path
           d="m 0,0 c 0.264,-0.011 0.469,-0.203 0.462,-0.432 -0.006,-0.189 -0.218,-0.48 -0.35,-0.48 -0.183,0.001 -0.451,0.354 -0.461,0.608 C -0.356,-0.112 -0.217,0.009 0,0"
           style="fill:#231f20;fill-opacity:1;fill-rule:nonzero;stroke:none"
           id="path4671" /></g><g
         id="g4673"
         transform="translate(28.336054,218.11953)"><path
           d="m 0,0 c 0.014,-0.256 -0.158,-0.518 -0.345,-0.524 -0.223,-0.007 -0.417,0.211 -0.424,0.478 -0.005,0.198 0.198,0.434 0.375,0.434 0.19,0 0.383,-0.19 0.394,-0.388"
           style="fill:#231f20;fill-opacity:1;fill-rule:nonzero;stroke:none"
           id="path4675" /></g><g
         id="g4677"
         transform="translate(26.449054,199.95593)"><path
           d="m 0,0 c 0.011,-0.182 -0.179,-0.394 -0.35,-0.392 -0.178,0.003 -0.404,0.281 -0.393,0.513 0.009,0.179 0.083,0.312 0.29,0.308 C -0.189,0.424 -0.016,0.268 0,0"
           style="fill:#231f20;fill-opacity:1;fill-rule:nonzero;stroke:none"
           id="path4679" /></g><g
         id="g4681"
         transform="translate(26.286654,214.50103)"><path
           d="M 0,0 C -0.188,0.167 -0.188,0.167 -0.096,0.391 0.087,0.22 0.087,0.22 0,0"
           style="fill:#ffffff;fill-opacity:1;fill-rule:nonzero;stroke:none"
           id="path4683" /></g><g
         id="g4685"
         transform="translate(27.503654,204.12143)"><path
           d="M 0,0 C -0.323,0.182 -0.245,0.354 -0.083,0.574 0.138,0.394 0.204,0.233 0,0"
           style="fill:#ffffff;fill-opacity:1;fill-rule:nonzero;stroke:none"
           id="path4687" /></g><g
         id="g4689"
         transform="translate(43.443154,148.30223)"><path
           d="m 0,0 c -0.741,0.071 -1.481,0.151 -2.222,0.211 -0.488,0.039 -0.954,0.15 -1.423,0.288 -0.431,0.127 -0.885,0.19 -1.334,0.244 -1.14,0.138 -2.282,0.267 -3.426,0.377 -0.737,0.071 -1.482,0.072 -2.216,0.157 -0.63,0.072 -1.257,0.191 -1.872,0.342 -0.441,0.108 -0.548,0.363 -0.453,0.85 0.082,0.423 0.28,0.76 0.687,0.928 0.122,0.05 0.239,0.116 0.365,0.151 0.97,0.276 1.862,0.733 2.717,1.29 0.458,0.298 0.94,0.557 1.423,0.809 0.297,0.155 0.551,0.345 0.802,0.579 0.393,0.366 0.611,0.814 0.716,1.314 0.209,0.984 0.382,1.976 0.555,2.966 0.232,1.326 0.46,2.652 0.672,3.98 0.125,0.791 0.176,1.595 0.331,2.38 0.238,1.204 0.309,2.424 0.465,3.635 0.077,0.605 0.078,1.221 0.091,1.832 0.014,0.677 0.023,1.355 -0.008,2.03 -0.017,0.386 -0.111,0.768 -0.183,1.149 -0.097,0.513 -0.181,1.031 -0.317,1.533 -0.205,0.764 -0.438,1.519 -0.682,2.27 -0.353,1.084 -0.679,2.184 -1.105,3.235 -0.366,0.901 -0.687,1.812 -0.931,2.756 -0.177,0.684 -0.328,1.376 -0.498,2.062 -0.076,0.31 -0.171,0.615 -0.257,0.922 -0.217,0.771 -0.181,1.578 -0.236,2.37 -0.045,0.639 -0.087,1.287 -0.038,1.925 0.079,1.033 0.228,2.061 0.359,3.091 0.11,0.877 0.203,1.759 0.364,2.628 0.167,0.901 0.361,1.803 0.625,2.68 0.366,1.219 0.843,2.404 1.207,3.623 0.287,0.961 0.793,1.798 1.231,2.677 0.167,0.334 0.28,0.698 0.46,1.024 0.276,0.497 0.387,0.749 1.135,0.613 0.25,-0.045 0.517,0.006 0.767,-0.035 1.199,-0.194 2.4,-0.347 3.614,-0.434 C 2.322,58.384 3.247,58.18 4.174,58.019 4.75,57.92 5.314,57.756 5.892,57.68 6.485,57.602 7.088,57.602 7.685,57.552 7.927,57.532 8.167,57.479 8.404,57.426 8.602,57.383 8.814,57.117 8.809,56.936 8.794,56.448 8.789,55.96 8.757,55.473 8.697,54.563 8.745,53.654 8.619,52.741 8.516,51.988 8.536,51.221 8.482,50.46 8.425,49.666 8.355,48.873 8.275,48.08 8.177,47.119 8.068,46.158 7.955,45.198 7.825,44.102 7.552,43.034 7.268,41.971 7.005,40.984 6.739,39.995 6.415,39.028 6.09,38.062 5.721,37.108 5.318,36.172 4.874,35.143 4.38,34.136 3.89,33.128 3.384,32.089 2.869,31.054 2.335,30.03 2.013,29.412 1.637,28.825 1.304,28.213 0.966,27.591 0.647,26.957 0.327,26.324 0.074,25.826 -0.23,25.343 -0.402,24.816 -0.736,23.799 -1.19,22.821 -1.386,21.757 -1.537,20.937 -1.74,20.126 -1.879,19.305 -2.027,18.431 -2.129,17.55 -2.248,16.671 -2.38,15.696 -2.502,14.719 -2.64,13.744 -2.773,12.803 -2.948,11.866 -3.059,10.922 -3.183,9.86 -3.267,8.793 -3.12,7.728 -3.053,7.245 -3.027,6.752 -2.936,6.274 -2.755,5.333 -2.232,4.591 -1.65,3.881 -1.257,3.402 -0.797,3.02 -0.284,2.7 0.372,2.291 0.851,1.702 1.219,1.024 1.333,0.814 1.315,0.497 1.289,0.236 1.266,0.006 0.965,-0.166 0.721,-0.137 0.479,-0.109 0.239,-0.061 -0.002,-0.022 -0.001,-0.015 -0.001,-0.007 0,0 M -1.666,50.808 C -1.757,50.518 -1.851,50.283 -1.904,50.039 -2.141,48.946 -2.333,47.846 -2.487,46.738 -2.593,45.977 -2.753,45.224 -2.864,44.464 -3.028,43.333 -3.171,42.2 -3.321,41.067 -3.347,40.866 -3.348,40.662 -3.385,40.463 -3.514,39.761 -3.655,39.06 -3.786,38.358 -3.817,38.191 -3.834,38.02 -3.839,37.851 -3.864,37.073 -3.874,36.294 -3.906,35.516 -3.92,35.183 -4.261,34.953 -4.489,35.128 c -0.103,0.08 -0.161,0.278 -0.169,0.429 -0.09,1.692 -0.198,3.384 -0.236,5.08 -0.028,1.288 0.006,2.581 0.073,3.871 0.052,1 0.211,1.996 0.298,2.996 0.07,0.814 0.167,1.622 0.336,2.424 0.073,0.345 0.089,0.701 0.137,1.109 -0.762,0.018 -1.392,0.532 -2.172,0.335 -0.055,-0.141 -0.119,-0.279 -0.165,-0.423 -0.543,-1.731 -0.869,-3.502 -1.048,-5.304 -0.147,-1.471 -0.239,-2.943 -0.203,-4.416 0.03,-1.268 -0.025,-2.552 0.424,-3.759 0.023,-0.062 0.021,-0.134 0.037,-0.199 0.321,-1.343 0.575,-2.706 1.161,-3.96 0.269,-0.574 0.461,-1.188 0.716,-1.77 0.267,-0.608 0.556,-1.207 0.856,-1.798 0.209,-0.411 0.283,-0.877 0.57,-1.267 0.257,-0.35 0.557,-0.573 0.93,-0.729 0.115,-0.048 0.244,-0.073 0.346,-0.14 0.689,-0.451 1.429,-0.42 2.138,-0.095 0.65,0.298 1.163,0.815 1.507,1.485 0.333,0.648 0.654,1.302 0.989,1.948 0.716,1.386 1.446,2.764 2.153,4.155 0.199,0.391 0.318,0.825 0.508,1.222 0.482,1.011 0.989,2.008 1.231,3.118 0.073,0.332 0.18,0.656 0.273,0.984 0.239,0.835 0.506,1.663 0.71,2.507 0.158,0.656 0.233,1.331 0.354,1.997 0.061,0.333 0.176,0.66 0.21,0.995 0.104,1.048 0.178,2.099 0.27,3.149 0.04,0.465 0.021,0.496 -0.4,0.559 -0.553,0.084 -1.104,0.179 -1.657,0.263 -0.735,0.11 -1.469,0.227 -2.206,0.316 -0.886,0.107 -1.777,0.18 -2.664,0.282 -0.819,0.094 -1.636,0.207 -2.484,0.316 m 9.523,-0.519 c 0.072,1.412 0.156,2.769 0.204,4.126 0.023,0.644 -0.013,1.289 -0.04,1.932 -0.02,0.499 -0.107,0.578 -0.583,0.615 C 7.131,56.986 6.822,56.997 6.515,57.026 5.887,57.085 5.26,57.158 4.631,57.214 4.389,57.236 4.14,57.2 3.901,57.237 3.357,57.321 2.82,57.451 2.274,57.529 c -0.591,0.085 -1.189,0.125 -1.782,0.199 -0.206,0.026 -0.405,0.099 -0.608,0.146 -0.517,0.119 -1.027,0.289 -1.551,0.339 -0.544,0.051 -1.101,-0.015 -1.623,-0.029 -0.605,-0.702 -2.42,-5.106 -2.646,-6.036 0.049,-0.035 0.108,-0.112 0.153,-0.103 0.452,0.093 0.852,-0.088 1.276,-0.186 0.603,-0.139 0.677,-0.064 0.823,0.594 0.188,0.849 0.362,1.701 0.539,2.553 0.084,0.405 0.272,0.514 0.658,0.411 0.355,-0.094 0.717,-0.165 1.078,-0.23 0.458,-0.082 0.736,-0.537 0.6,-1.006 -0.119,-0.408 -0.242,-0.815 -0.357,-1.224 -0.131,-0.468 -0.256,-0.938 -0.378,-1.387 0.063,-0.052 0.085,-0.087 0.112,-0.09 0.976,-0.132 1.953,-0.26 2.93,-0.389 0.113,-0.015 0.231,-0.013 0.338,-0.046 0.851,-0.268 1.723,-0.398 2.615,-0.428 0.339,-0.011 0.678,-0.049 1.014,-0.096 0.528,-0.074 1.052,-0.18 1.581,-0.245 0.246,-0.03 0.501,0.006 0.811,0.013 M -11.8,2.216 c 0.216,-0.019 0.373,-0.035 0.531,-0.047 0.663,-0.054 1.328,-0.097 1.99,-0.163 C -8.652,1.944 -8.026,1.861 -7.401,1.781 -6.29,1.64 -5.178,1.501 -4.069,1.348 -3.425,1.26 -2.788,1.113 -2.142,1.055 -1.383,0.986 -0.618,0.986 0.121,0.771 0.189,0.751 0.268,0.77 0.359,0.771 0.352,0.857 0.366,0.924 0.342,0.948 -0.183,1.46 -0.706,1.975 -1.244,2.473 -1.759,2.951 -2.293,3.408 -2.813,3.88 c -0.056,0.051 -0.081,0.144 -0.109,0.221 -0.215,0.6 -0.428,1.2 -0.64,1.801 -0.028,0.077 -0.021,0.2 -0.072,0.231 -0.421,0.257 -0.28,0.661 -0.247,1.04 0.026,0.305 0.085,0.614 0.06,0.914 -0.092,1.089 -0.009,2.174 0.145,3.252 0.179,1.244 0.444,2.478 0.605,3.724 0.12,0.924 0.168,1.856 0.36,2.771 0.073,0.348 0.137,0.697 0.2,1.046 0.214,1.185 0.395,2.378 0.652,3.554 0.147,0.674 0.402,1.327 0.636,1.98 0.148,0.415 0.345,0.811 0.518,1.216 0.151,0.352 0.299,0.706 0.48,1.135 -0.372,-0.047 -0.699,-0.047 -1.003,-0.137 -0.407,-0.122 -0.773,-0.045 -1.138,0.105 -0.211,0.086 -0.413,0.194 -0.624,0.277 -0.157,0.062 -0.322,0.1 -0.515,0.158 -0.178,-0.52 -0.21,-1.012 -0.154,-1.463 0.104,-0.836 0.202,-1.658 0.215,-2.512 C -3.421,21.742 -3.566,20.307 -3.701,18.87 -3.797,17.853 -3.968,16.843 -4.116,15.831 -4.334,14.333 -4.578,12.839 -4.781,11.34 -4.971,9.935 -5.236,8.545 -5.609,7.179 -5.762,6.622 -5.996,6.084 -6.512,5.75 -6.843,5.536 -7.174,5.319 -7.489,5.078 -7.912,4.754 -8.306,4.401 -8.8,4.175 -9.61,3.805 -10.395,3.373 -11.187,2.959 -11.453,2.819 -11.681,2.629 -11.8,2.216 m 9.352,52.469 C -2.486,54.583 -2.529,54.494 -2.553,54.4 -2.83,53.313 -3.138,52.231 -3.371,51.135 -3.704,49.568 -3.96,47.986 -4.099,46.392 c -0.085,-0.979 -0.086,-1.965 -0.109,-2.948 -0.013,-0.54 -0.006,-1.082 0.018,-1.622 0.013,-0.276 0.082,-0.548 0.125,-0.822 0.038,0.003 0.077,0.006 0.115,0.009 0.628,4.534 1.205,9.078 2.381,13.532 -0.283,0.047 -0.547,0.09 -0.879,0.144"
           style="fill:#231f20;fill-opacity:1;fill-rule:nonzero;stroke:none"
           id="path4691" /></g><g
         id="g4693"
         transform="translate(43.617954,212.07273)"><path
           d="m 0,0 c -0.088,-0.392 -0.361,-0.758 -0.637,-0.764 -0.215,-0.005 -0.402,0.017 -0.502,0.217 -0.111,0.218 -0.245,0.449 -0.083,0.714 0.062,0.101 0.13,0.198 0.192,0.299 0.242,0.393 0.288,0.419 0.562,0.304 C -0.082,0.607 0.069,0.358 0,0"
           style="fill:#231f20;fill-opacity:1;fill-rule:nonzero;stroke:none"
           id="path4695" /></g><g
         id="g4697"
         transform="translate(49.090354,210.63143)"><path
           d="m 0,0 c -0.067,-0.31 -0.349,-0.546 -0.593,-0.497 -0.226,0.045 -0.464,0.502 -0.406,0.78 0.055,0.263 0.267,0.386 0.571,0.329 C -0.118,0.554 0.064,0.295 0,0"
           style="fill:#231f20;fill-opacity:1;fill-rule:nonzero;stroke:none"
           id="path4699" /></g><g
         id="g4701"
         transform="translate(46.419654,207.74453)"><path
           d="M 0,0 C -0.23,0.028 -0.346,0.239 -0.297,0.539 -0.259,0.772 -0.071,0.894 0.185,0.852 0.421,0.813 0.604,0.618 0.588,0.421 0.57,0.192 0.259,-0.031 0,0"
           style="fill:#231f20;fill-opacity:1;fill-rule:nonzero;stroke:none"
           id="path4703" /></g><g
         id="g4705"
         transform="translate(45.093954,218.70973)"><path
           d="M 0,0 C -0.222,0.032 -0.366,0.291 -0.326,0.585 -0.295,0.813 -0.107,0.934 0.143,0.887 0.364,0.845 0.501,0.644 0.465,0.414 0.42,0.137 0.229,-0.033 0,0"
           style="fill:#231f20;fill-opacity:1;fill-rule:nonzero;stroke:none"
           id="path4707" /></g><g
         id="g4709"
         transform="translate(47.642254,215.77163)"><path
           d="M 0,0 C 0.383,0.388 0.496,0.417 0.692,0.193 0.804,0.067 0.789,-0.192 0.664,-0.3 0.477,-0.462 0.225,-0.355 0,0"
           style="fill:#231f20;fill-opacity:1;fill-rule:nonzero;stroke:none"
           id="path4711" /></g><g
         id="g4713"
         transform="translate(49.242054,221.24833)"><path
           d="m 0,0 c -0.187,-0.074 -0.339,-0.317 -0.556,-0.107 -0.17,0.164 -0.039,0.356 0.044,0.502 0.048,0.085 0.214,0.165 0.306,0.146 C 0.083,0.482 0.003,0.229 0,0"
           style="fill:#231f20;fill-opacity:1;fill-rule:nonzero;stroke:none"
           id="path4715" /></g><g
         id="g4717"
         transform="translate(41.777254,199.11073)"><path
           d="M 0,0 C 0.848,-0.109 1.665,-0.223 2.484,-0.317 3.371,-0.419 4.262,-0.491 5.148,-0.598 5.885,-0.687 6.619,-0.805 7.353,-0.915 7.907,-0.998 8.458,-1.094 9.011,-1.177 9.432,-1.241 9.451,-1.271 9.41,-1.736 9.319,-2.786 9.245,-3.837 9.141,-4.886 9.107,-5.221 8.992,-5.547 8.931,-5.881 8.809,-6.546 8.735,-7.222 8.577,-7.878 8.373,-8.721 8.106,-9.55 7.867,-10.385 c -0.093,-0.327 -0.201,-0.652 -0.273,-0.984 -0.242,-1.109 -0.749,-2.107 -1.231,-3.117 -0.19,-0.398 -0.309,-0.831 -0.508,-1.223 -0.707,-1.39 -1.437,-2.769 -2.154,-4.154 -0.334,-0.647 -0.655,-1.301 -0.988,-1.949 -0.344,-0.669 -0.857,-1.186 -1.507,-1.484 -0.709,-0.326 -1.449,-0.356 -2.138,0.094 -0.103,0.067 -0.231,0.093 -0.346,0.141 -0.373,0.156 -0.673,0.379 -0.93,0.729 -0.287,0.389 -0.361,0.855 -0.57,1.267 -0.3,0.591 -0.589,1.189 -0.856,1.798 -0.255,0.582 -0.447,1.195 -0.716,1.769 -0.586,1.255 -0.84,2.618 -1.161,3.96 -0.016,0.066 -0.014,0.137 -0.037,0.199 -0.449,1.208 -0.394,2.492 -0.425,3.759 -0.035,1.474 0.057,2.945 0.204,4.417 0.179,1.802 0.505,3.573 1.048,5.303 0.046,0.145 0.109,0.283 0.164,0.423 0.781,0.198 1.411,-0.317 2.173,-0.335 -0.048,-0.408 -0.064,-0.764 -0.137,-1.108 -0.169,-0.802 -0.266,-1.61 -0.336,-2.424 -0.087,-1 -0.246,-1.997 -0.298,-2.997 -0.067,-1.289 -0.101,-2.583 -0.073,-3.871 0.038,-1.695 0.146,-3.387 0.236,-5.08 0.008,-0.15 0.065,-0.349 0.169,-0.428 0.228,-0.175 0.569,0.054 0.583,0.388 0.032,0.778 0.042,1.556 0.067,2.334 0.005,0.17 0.022,0.341 0.053,0.507 0.13,0.703 0.272,1.403 0.401,2.106 0.037,0.198 0.038,0.403 0.064,0.603 0.15,1.133 0.293,2.267 0.457,3.398 0.111,0.76 0.271,1.513 0.377,2.273 0.154,1.108 0.346,2.208 0.583,3.301 C -0.185,-0.525 -0.091,-0.29 0,0 M 4.123,-5.19 C 3.635,-5.217 3.607,-5.647 3.458,-5.942 3.268,-6.321 3.373,-6.64 3.685,-6.811 4.016,-6.991 4.437,-6.899 4.648,-6.6 4.892,-6.255 4.847,-5.733 4.535,-5.466 4.401,-5.351 4.242,-5.268 4.123,-5.19 M 2.684,-17.094 c 0.317,-0.059 0.569,0.185 0.669,0.65 0.092,0.427 -0.097,0.862 -0.393,0.908 -0.405,0.063 -0.788,-0.214 -0.871,-0.631 -0.09,-0.447 0.167,-0.847 0.595,-0.927 M 0.88,-3.833 c 0.302,-0.065 0.508,0.043 0.577,0.304 0.061,0.23 -0.068,0.53 -0.252,0.584 C 0.985,-2.879 0.677,-3.127 0.613,-3.421 0.555,-3.69 0.611,-3.776 0.88,-3.833 m 4.235,-8.569 c 0.049,0.275 -0.019,0.4 -0.245,0.446 -0.286,0.059 -0.501,-0.077 -0.547,-0.344 -0.036,-0.216 0.131,-0.466 0.347,-0.519 0.22,-0.053 0.389,0.105 0.445,0.417 m -5.097,-3.309 c 0.094,0.199 0.205,0.369 0.255,0.557 0.079,0.294 -0.135,0.479 -0.42,0.387 -0.284,-0.091 -0.366,-0.268 -0.314,-0.575 0.043,-0.252 0.218,-0.296 0.479,-0.369 m 0.581,5.27 c -0.211,0.053 -0.379,-0.037 -0.42,-0.224 -0.055,-0.246 0.12,-0.641 0.299,-0.678 0.13,-0.027 0.413,0.211 0.466,0.393 0.065,0.22 -0.088,0.445 -0.345,0.509 M 7.01,-3.162 C 7.049,-2.968 6.908,-2.747 6.72,-2.709 6.546,-2.674 6.286,-2.86 6.242,-3.053 6.181,-3.313 6.316,-3.561 6.538,-3.599 6.724,-3.63 6.959,-3.412 7.01,-3.162 M 0.559,-20.318 c 0.052,0.262 -0.079,0.446 -0.337,0.504 -0.203,0.045 -0.309,-0.069 -0.363,-0.239 -0.07,-0.223 0.081,-0.535 0.256,-0.574 0.168,-0.036 0.408,0.131 0.444,0.309"
           style="fill:#f1e8cb;fill-opacity:1;fill-rule:nonzero;stroke:none"
           id="path4719" /></g><g
         id="g4721"
         transform="translate(51.300454,198.59103)"><path
           d="m 0,0 c -0.31,-0.007 -0.565,-0.043 -0.811,-0.013 -0.529,0.065 -1.053,0.171 -1.581,0.245 -0.336,0.047 -0.675,0.085 -1.014,0.097 -0.892,0.029 -1.765,0.159 -2.615,0.427 -0.107,0.034 -0.225,0.031 -0.338,0.046 -0.977,0.129 -1.954,0.257 -2.93,0.389 -0.027,0.004 -0.05,0.038 -0.113,0.09 0.123,0.449 0.248,0.919 0.379,1.387 0.115,0.409 0.238,0.816 0.357,1.224 0.136,0.469 -0.142,0.924 -0.6,1.006 -0.362,0.066 -0.724,0.136 -1.078,0.23 -0.386,0.103 -0.574,-0.006 -0.658,-0.411 -0.177,-0.851 -0.352,-1.704 -0.54,-2.553 -0.145,-0.658 -0.219,-0.732 -0.823,-0.593 -0.423,0.097 -0.823,0.278 -1.276,0.185 -0.044,-0.009 -0.103,0.068 -0.152,0.103 0.226,0.93 2.04,5.334 2.646,6.036 0.522,0.014 1.079,0.08 1.622,0.029 0.524,-0.05 1.035,-0.22 1.551,-0.339 C -7.77,7.538 -7.571,7.465 -7.365,7.439 -6.772,7.365 -6.174,7.325 -5.583,7.24 -5.038,7.162 -4.5,7.032 -3.956,6.948 -3.718,6.911 -3.468,6.947 -3.227,6.926 -2.598,6.87 -1.97,6.797 -1.342,6.737 -1.035,6.708 -0.727,6.697 -0.419,6.673 0.056,6.636 0.143,6.557 0.164,6.059 0.191,5.415 0.226,4.77 0.203,4.127 0.155,2.769 0.072,1.413 0,0"
           style="fill:#fcfaf5;fill-opacity:1;fill-rule:nonzero;stroke:none"
           id="path4723" /></g><g
         id="g4725"
         transform="translate(31.643555,150.51863)"><path
           d="m 0,0 c 0.119,0.412 0.347,0.603 0.613,0.742 0.791,0.415 1.577,0.846 2.386,1.216 0.495,0.226 0.889,0.58 1.312,0.904 0.314,0.24 0.645,0.457 0.977,0.671 0.516,0.334 0.75,0.872 0.902,1.429 0.374,1.367 0.639,2.756 0.829,4.161 0.202,1.5 0.446,2.994 0.665,4.491 0.148,1.012 0.319,2.023 0.414,3.039 0.135,1.438 0.281,2.873 0.258,4.324 -0.014,0.853 -0.111,1.676 -0.215,2.512 -0.056,0.45 -0.024,0.942 0.153,1.463 0.194,-0.058 0.359,-0.096 0.516,-0.158 0.211,-0.084 0.413,-0.192 0.623,-0.278 0.366,-0.149 0.731,-0.226 1.139,-0.105 0.304,0.091 0.631,0.09 1.003,0.138 -0.181,-0.429 -0.33,-0.783 -0.48,-1.135 C 10.921,23.008 10.724,22.612 10.576,22.198 10.343,21.545 10.087,20.892 9.94,20.218 9.683,19.042 9.503,17.849 9.289,16.663 9.226,16.314 9.162,15.965 9.089,15.618 8.896,14.702 8.848,13.77 8.729,12.847 8.567,11.601 8.303,10.367 8.124,9.123 7.969,8.044 7.886,6.96 7.978,5.87 8.004,5.571 7.945,5.261 7.918,4.957 7.885,4.578 7.745,4.174 8.166,3.917 8.216,3.886 8.21,3.763 8.237,3.686 8.45,3.085 8.663,2.484 8.878,1.885 8.906,1.807 8.931,1.715 8.987,1.664 c 0.52,-0.473 1.053,-0.93 1.569,-1.407 0.537,-0.498 1.06,-1.013 1.586,-1.525 0.024,-0.024 0.01,-0.091 0.016,-0.177 -0.09,-10e-4 -0.17,-0.02 -0.238,-10e-4 C 11.182,-1.23 10.417,-1.23 9.658,-1.162 9.011,-1.103 8.375,-0.956 7.731,-0.868 6.621,-0.716 5.51,-0.576 4.399,-0.435 3.773,-0.356 3.148,-0.272 2.52,-0.21 1.858,-0.144 1.194,-0.101 0.531,-0.048 0.373,-0.035 0.215,-0.019 0,0"
           style="fill:#fcfaf5;fill-opacity:1;fill-rule:nonzero;stroke:none"
           id="path4727" /></g><g
         id="g4729"
         transform="translate(40.995354,202.98743)"><path
           d="m 0,0 c 0.332,-0.054 0.596,-0.097 0.879,-0.144 -1.176,-4.454 -1.754,-8.998 -2.381,-13.533 -0.039,-0.002 -0.077,-0.005 -0.115,-0.008 -0.044,0.274 -0.113,0.546 -0.125,0.822 -0.024,0.54 -0.031,1.081 -0.018,1.622 0.023,0.983 0.024,1.969 0.109,2.948 0.139,1.594 0.395,3.176 0.728,4.742 0.233,1.097 0.541,2.178 0.818,3.266 C -0.082,-0.191 -0.038,-0.102 0,0"
           style="fill:#ece7dd;fill-opacity:1;fill-rule:nonzero;stroke:none"
           id="path4731" /></g><g
         id="g4733"
         transform="translate(45.900054,193.92093)"><path
           d="M 0,0 C 0.119,-0.078 0.279,-0.161 0.412,-0.276 0.724,-0.543 0.769,-1.065 0.525,-1.41 0.314,-1.71 -0.107,-1.802 -0.437,-1.621 -0.75,-1.45 -0.855,-1.131 -0.664,-0.753 -0.516,-0.457 -0.487,-0.027 0,0 m -0.044,-1.056 c 0.141,0.195 0.141,0.195 0.004,0.396 -0.147,-0.198 -0.147,-0.198 -0.004,-0.396"
           style="fill:#231f20;fill-opacity:1;fill-rule:nonzero;stroke:none"
           id="path4735" /></g><g
         id="g4737"
         transform="translate(44.460754,182.01713)"><path
           d="M 0,0 C -0.428,0.08 -0.684,0.48 -0.595,0.927 -0.512,1.343 -0.129,1.62 0.277,1.558 0.573,1.512 0.761,1.076 0.669,0.65 0.569,0.185 0.318,-0.059 0,0 m -0.034,0.586 c 0.26,0.184 0.235,0.353 0.064,0.57 -0.216,-0.18 -0.336,-0.33 -0.064,-0.57"
           style="fill:#231f20;fill-opacity:1;fill-rule:nonzero;stroke:none"
           id="path4739" /></g><g
         id="g4741"
         transform="translate(42.657354,195.27723)"><path
           d="M 0,0 C -0.27,0.058 -0.325,0.143 -0.267,0.412 -0.203,0.706 0.105,0.954 0.325,0.889 0.509,0.834 0.638,0.534 0.577,0.304 0.508,0.044 0.302,-0.065 0,0"
           style="fill:#231f20;fill-opacity:1;fill-rule:nonzero;stroke:none"
           id="path4743" /></g><g
         id="g4745"
         transform="translate(46.892254,186.70883)"><path
           d="m 0,0 c -0.056,-0.312 -0.225,-0.471 -0.445,-0.417 -0.216,0.053 -0.383,0.303 -0.347,0.519 0.046,0.267 0.261,0.403 0.547,0.344 C -0.019,0.399 0.049,0.275 0,0"
           style="fill:#231f20;fill-opacity:1;fill-rule:nonzero;stroke:none"
           id="path4747" /></g><g
         id="g4749"
         transform="translate(41.795354,183.39983)"><path
           d="m 0,0 c -0.261,0.073 -0.436,0.117 -0.479,0.369 -0.052,0.307 0.03,0.484 0.314,0.575 C 0.12,1.035 0.334,0.851 0.255,0.557 0.205,0.369 0.094,0.199 0,0"
           style="fill:#231f20;fill-opacity:1;fill-rule:nonzero;stroke:none"
           id="path4751" /></g><g
         id="g4753"
         transform="translate(42.376154,188.66993)"><path
           d="M 0,0 C 0.257,-0.064 0.41,-0.289 0.345,-0.509 0.292,-0.691 0.01,-0.929 -0.121,-0.902 -0.3,-0.865 -0.474,-0.47 -0.42,-0.224 -0.379,-0.037 -0.211,0.052 0,0"
           style="fill:#231f20;fill-opacity:1;fill-rule:nonzero;stroke:none"
           id="path4755" /></g><g
         id="g4757"
         transform="translate(48.786954,195.94873)"><path
           d="m 0,0 c -0.051,-0.25 -0.286,-0.468 -0.472,-0.437 -0.221,0.038 -0.357,0.286 -0.296,0.546 0.045,0.193 0.304,0.379 0.478,0.344 C -0.102,0.415 0.039,0.194 0,0"
           style="fill:#231f20;fill-opacity:1;fill-rule:nonzero;stroke:none"
           id="path4759" /></g><g
         id="g4761"
         transform="translate(42.335754,178.79223)"><path
           d="M 0,0 C -0.035,-0.177 -0.276,-0.345 -0.443,-0.308 -0.618,-0.27 -0.77,0.043 -0.7,0.265 -0.646,0.436 -0.539,0.549 -0.337,0.504 -0.078,0.447 0.052,0.262 0,0"
           style="fill:#231f20;fill-opacity:1;fill-rule:nonzero;stroke:none"
           id="path4763" /></g><g
         id="g4765"
         transform="translate(45.855654,192.86473)"><path
           d="M 0,0 C -0.143,0.199 -0.143,0.199 0.004,0.396 0.141,0.195 0.141,0.195 0,0"
           style="fill:#ffffff;fill-opacity:1;fill-rule:nonzero;stroke:none"
           id="path4767" /></g><g
         id="g4769"
         transform="translate(44.426954,182.60273)"><path
           d="M 0,0 C -0.272,0.24 -0.152,0.391 0.064,0.57 0.235,0.353 0.259,0.184 0,0"
           style="fill:#ffffff;fill-opacity:1;fill-rule:nonzero;stroke:none"
           id="path4771" /></g></g><g
       id="g53092"
       transform="translate(-290.52876,65.621363)"><g
         id="g12377"
         transform="translate(537.23025,169.7683)"><path
           d="m 0,0 c -0.127,0.547 -0.241,1.009 -0.341,1.475 -0.24,1.118 -0.466,2.24 -0.71,3.358 -0.227,1.039 -0.467,2.075 -0.709,3.111 -0.114,0.489 -0.244,0.975 -0.39,1.552 0.085,0.456 0.454,0.781 0.952,0.96 0.452,0.164 0.96,0.073 1.085,-0.577 C -0.058,9.592 -0.028,9.3 0.005,9.009 0.14,7.818 0.364,6.644 0.629,5.476 0.811,4.671 0.921,3.85 1.098,3.044 1.31,2.085 1.54,1.129 1.881,0.169 2.388,0.143 2.888,0.151 3.376,0.245 4.563,0.474 5.757,0.383 6.95,0.361 8.04,0.34 9.123,0.233 10.199,0.064 c 0.314,-0.049 0.552,0.027 0.781,0.268 1.073,1.126 2.369,1.875 3.878,2.25 0.488,0.121 0.969,0.273 1.46,0.379 0.282,0.06 0.577,0.074 0.867,0.077 0.476,0.004 0.96,0.028 1.428,-0.041 0.493,-0.072 0.989,-0.2 1.455,-0.378 0.973,-0.371 1.867,-0.922 2.686,-1.542 1.469,-1.11 2.142,-2.67 2.171,-4.51 0.004,-0.266 -0.005,-0.533 -0.001,-0.799 0.023,-1.501 -0.175,-2.973 -0.579,-4.418 -0.035,-0.125 -0.097,-0.243 -0.152,-0.377 -0.389,-0.028 -0.673,0.198 -0.943,0.376 -0.315,0.208 -0.645,0.358 -0.988,0.504 -0.34,0.144 -0.673,0.315 -0.992,0.503 -0.89,0.526 -1.77,1.069 -2.656,1.6 -0.062,0.038 -0.145,0.041 -0.283,0.077 0.013,-0.266 0.016,-0.499 0.038,-0.73 0.095,-1.008 0.247,-2.013 0.281,-3.022 0.038,-1.142 0.115,-2.286 0.022,-3.433 -0.063,-0.767 -0.056,-1.538 -0.136,-2.31 -0.165,-1.601 -0.513,-3.151 -1.043,-4.667 -0.316,-0.905 -0.585,-1.826 -0.908,-2.728 -0.152,-0.424 -0.391,-0.815 -0.57,-1.23 -0.424,-0.981 -0.976,-1.89 -1.526,-2.801 -0.344,-0.569 -0.679,-1.146 -0.979,-1.738 -0.147,-0.289 -0.309,-0.555 -0.532,-0.787 -0.055,-0.057 -0.4,-0.656 -0.689,-0.756 -0.145,-0.05 -0.273,-0.164 -0.397,-0.264 -0.697,-0.565 -1.514,-0.873 -2.364,-1.099 -0.9,-0.24 -1.821,-0.379 -2.747,-0.443 -0.499,-0.035 -1.01,0.004 -1.509,0.065 -0.63,0.077 -1.257,0.19 -1.878,0.323 -1.064,0.228 -2.122,0.478 -3.18,0.731 -0.334,0.08 -0.676,0.162 -0.985,0.307 -0.67,0.315 -1.394,0.494 -2.035,0.891 -0.679,0.422 -1.211,0.912 -1.442,1.718 -0.35,1.228 -0.769,2.435 -1.132,3.659 -0.286,0.969 -0.541,1.947 -0.792,2.926 -0.293,1.142 -0.311,2.32 -0.401,3.488 -0.023,0.291 -0.029,0.585 -0.057,0.876 -0.11,1.145 -0.024,2.289 0.008,3.433 0.036,1.279 0.157,2.55 0.358,3.815 0.205,1.292 0.537,2.553 0.921,3.8 0.211,0.685 0.441,1.365 0.694,2.034 0.122,0.32 0.3,0.623 0.484,0.913 0.37,0.581 0.642,1.219 1.06,1.775 0.115,0.153 0.163,0.321 0.388,0.308 0.026,-0.002 0.056,0.003 0.078,0.016 0.784,0.47 1.66,0.678 2.639,0.897 m 4.676,-10.834 c 0.972,-0.458 1.918,-0.432 2.834,-0.467 1.245,-0.046 2.493,-0.003 3.729,-0.211 0.18,-0.03 0.369,-0.021 0.553,-0.015 0.716,0.022 1.431,0.053 2.147,0.075 0.74,0.023 1.48,0.038 2.221,0.059 0.395,0.01 0.793,0.044 1.198,-0.188 0.013,-0.138 0.046,-0.293 0.038,-0.446 -0.038,-0.717 -0.076,-1.436 -0.136,-2.152 -0.036,-0.423 -0.108,-0.844 -0.175,-1.264 -0.108,-0.683 -0.222,-1.366 -0.341,-2.048 -0.087,-0.497 -0.182,-0.994 -0.284,-1.488 -0.187,-0.913 -0.384,-1.823 -0.57,-2.736 -0.023,-0.113 0.003,-0.236 0.006,-0.357 0.194,0.011 0.196,0.143 0.237,0.229 0.464,0.994 0.716,2.055 0.934,3.122 0.25,1.226 0.48,2.456 0.689,3.689 0.103,0.601 0.145,1.213 0.2,1.822 0.021,0.237 -0.008,0.479 0.005,0.718 0.058,1.089 0.103,2.179 0.032,3.267 -0.066,1.008 -0.187,2.011 -0.274,3.017 -0.034,0.395 -0.17,0.72 -0.52,0.94 C 17.124,-5.28 17.044,-5.286 16.968,-5.307 15.737,-5.642 14.488,-5.855 13.212,-5.904 12.55,-5.93 11.886,-5.947 11.226,-6.009 9.659,-6.157 8.1,-6.012 6.545,-5.876 5.622,-5.796 4.71,-5.597 3.793,-5.455 3.674,-5.437 3.543,-5.355 3.394,-5.551 3.63,-6.376 3.906,-7.233 4.117,-8.106 4.336,-9.007 4.492,-9.924 4.676,-10.834 M -2.82,-27.289 c 1.113,-0.583 2.374,-1.085 3.865,-1.35 -0.68,0.904 -1.465,1.524 -2.168,2.22 -0.714,0.707 -1.466,1.375 -2.214,2.072 -0.009,0.146 -0.049,0.311 -0.021,0.463 0.4,2.228 0.898,4.436 1.49,6.621 0.095,0.348 0.313,0.514 0.634,0.438 0.786,-0.187 1.577,-0.146 2.371,-0.106 0.529,0.027 1.06,0.028 1.589,0.032 0.47,0.003 0.94,-0.006 1.47,-0.011 -0.515,1.869 -1.014,3.68 -1.508,5.475 -0.26,0.067 -0.462,0.149 -0.668,0.165 -0.77,0.061 -1.518,0.233 -2.252,0.453 -0.913,0.273 -1.816,0.577 -2.714,0.895 -0.535,0.19 -1.076,0.203 -1.589,0.22 -0.072,-0.089 -0.125,-0.126 -0.134,-0.171 -0.164,-0.861 -0.406,-1.711 -0.43,-2.595 -0.023,-0.825 -0.047,-1.651 -0.05,-2.476 -0.003,-1.276 -0.024,-2.547 0.136,-3.823 0.139,-1.107 0.381,-2.193 0.522,-3.297 0.043,-0.341 0.173,-0.671 0.212,-1.011 0.115,-1.016 0.438,-1.962 0.873,-2.878 0.192,-0.404 0.36,-0.819 0.586,-1.336 M 2.119,-0.591 C 2.227,-1.089 2.3,-1.48 2.398,-1.864 c 0.171,-0.666 0.36,-1.327 0.538,-1.991 0.196,-0.731 0.265,-0.907 1.12,-0.984 1.267,-0.114 2.533,-0.239 3.798,-0.373 1.237,-0.13 2.472,-0.245 3.718,-0.177 0.502,0.027 1.01,0.062 1.509,0.017 1.022,-0.091 1.999,0.191 2.995,0.316 0.136,0.017 0.308,0.126 0.374,0.243 0.089,0.158 -0.051,0.294 -0.186,0.391 -0.192,0.138 -0.377,0.289 -0.581,0.407 -1.216,0.703 -2.441,1.389 -3.652,2.101 -0.386,0.227 -0.798,0.46 -1.089,0.788 -0.485,0.548 -1.092,0.699 -1.76,0.763 -0.184,0.018 -0.37,0.032 -0.555,0.037 -1.405,0.043 -2.811,0.039 -4.214,-0.055 -0.735,-0.05 -1.469,-0.133 -2.294,-0.21 m 9.923,-11.51 c 0.251,-0.977 0.496,-1.926 0.741,-2.875 0.145,-0.566 0.298,-1.13 0.434,-1.698 0.03,-0.124 0.039,-0.277 -0.007,-0.391 -0.312,-0.764 -0.392,-1.583 -0.612,-2.41 0.41,-0.342 0.818,-0.679 1.298,-0.909 0.488,-0.234 0.804,-0.576 0.881,-1.135 0.035,-0.25 0.143,-0.49 0.24,-0.806 0.095,0.135 0.156,0.189 0.173,0.253 0.216,0.824 0.464,1.643 0.626,2.478 0.177,0.912 0.457,1.808 0.472,2.751 0.004,0.237 0.057,0.477 0.12,0.708 0.329,1.22 0.421,2.463 0.389,3.72 -0.003,0.148 -0.041,0.295 -0.064,0.452 -0.818,-0.009 -1.586,0.021 -2.347,-0.035 -0.76,-0.056 -1.53,0.089 -2.344,-0.103 m -0.738,-0.202 c -0.293,-0.039 -0.556,-0.055 -0.811,-0.11 -0.776,-0.172 -1.551,-0.353 -2.324,-0.541 -0.385,-0.094 -0.773,-0.19 -1.147,-0.322 -0.471,-0.167 -0.922,-0.383 -1.289,-0.75 0.229,-0.71 0.47,-1.385 0.662,-2.074 0.192,-0.684 0.334,-1.382 0.501,-2.087 0.439,0.075 0.831,0.123 1.214,0.21 0.534,0.121 1.109,0.144 1.495,0.602 0.234,-0.053 0.375,-0.25 0.624,-0.166 0.777,0.26 1.566,0.483 2.323,0.909 -0.011,0.264 0.01,0.533 -0.042,0.787 -0.11,0.547 -0.239,1.092 -0.397,1.627 -0.135,0.458 -0.312,0.905 -0.49,1.349 -0.076,0.191 -0.202,0.362 -0.319,0.566 m -8.216,-11.07 c -0.195,-0.312 -0.367,-0.63 -0.485,-0.991 -0.272,-0.832 -0.613,-1.642 -0.883,-2.475 -0.11,-0.34 -0.327,-0.674 -0.216,-1.122 0.32,-0.085 0.646,-0.189 0.979,-0.257 0.598,-0.122 1.209,-0.187 1.797,-0.341 0.658,-0.171 1.353,-0.217 1.97,-0.54 0.033,-0.018 0.097,0.024 0.209,0.057 0.56,1.616 1.133,3.268 1.682,4.85 -0.172,0.55 -0.538,0.673 -0.96,0.677 -0.314,0.003 -0.631,-0.067 -0.942,-0.041 -0.31,0.026 -0.612,0.135 -0.92,0.199 -0.103,0.021 -0.211,0.023 -0.317,0.021 -0.608,-0.009 -1.217,-0.023 -1.914,-0.037 m -4.47,5.374 c -0.44,-1.271 -0.715,-2.432 -0.983,-3.592 -0.13,-0.568 -0.202,-1.149 -0.316,-1.721 -0.1,-0.497 0.083,-0.875 0.428,-1.214 0.51,-0.501 1.006,-1.016 1.507,-1.527 0.312,-0.318 0.563,-0.702 1.047,-0.812 0.128,-0.03 0.22,-0.215 0.328,-0.329 0.083,-0.088 0.166,-0.178 0.273,-0.294 0.068,0.125 0.115,0.187 0.137,0.256 0.228,0.735 0.458,1.47 0.675,2.208 0.194,0.66 0.427,1.315 0.377,2.034 -0.543,0.805 -1.085,1.622 -1.641,2.43 -0.568,0.825 -1.084,1.689 -1.832,2.561 m 15.176,-3.112 c -0.28,0.25 -0.492,0.45 -0.715,0.635 -0.346,0.288 -0.71,0.555 -1.049,0.851 -0.712,0.62 -1.544,1.003 -2.443,1.332 -0.134,-0.166 -0.269,-0.295 -0.358,-0.45 -0.223,-0.393 -0.419,-0.801 -0.637,-1.196 -0.297,-0.536 -0.578,-1.075 -0.745,-1.672 -0.093,-0.331 -0.179,-0.619 0.209,-0.811 0.067,-0.033 0.145,-0.095 0.167,-0.161 0.129,-0.389 0.468,-0.567 0.765,-0.78 0.518,-0.372 1.059,-0.707 1.647,-0.96 0.219,-0.094 0.419,-0.236 0.641,-0.32 0.369,-0.139 0.597,-0.04 0.788,0.309 0.282,0.514 0.561,1.028 0.838,1.544 0.289,0.538 0.573,1.078 0.892,1.679 m 1.452,18.002 c -0.484,0.597 -0.975,1.19 -1.449,1.795 -0.129,0.164 -0.221,0.361 -0.308,0.553 -0.084,0.185 -0.031,0.361 0.093,0.519 0.256,0.326 0.808,0.454 1.234,0.267 0.322,-0.142 0.58,-0.366 0.768,-0.671 0.107,-0.173 0.23,-0.335 0.438,-0.635 -0.01,0.267 -10e-4,0.369 -0.021,0.465 -0.034,0.156 -0.1,0.305 -0.128,0.462 -0.126,0.699 0.343,1.146 1.03,1.002 0.223,-0.046 0.41,-0.134 0.507,-0.34 0.122,-0.262 0.227,-0.532 0.325,-0.803 0.103,-0.286 0.066,-0.621 0.335,-0.89 0.131,0.309 0.245,0.604 0.379,0.89 0.189,0.402 0.5,0.604 0.958,0.562 0.362,-0.034 0.563,-0.201 0.537,-0.555 -0.024,-0.313 -0.125,-0.621 -0.19,-0.932 -0.034,-0.165 -0.063,-0.331 -0.117,-0.616 0.231,0.159 0.349,0.266 0.487,0.33 0.31,0.145 0.623,0.292 0.949,0.391 0.201,0.06 0.427,0.032 0.572,-0.175 0.139,-0.199 0.123,-0.418 0.006,-0.604 -0.17,-0.268 -0.384,-0.509 -0.569,-0.768 -0.1,-0.139 -0.301,-0.225 -0.259,-0.475 0.191,0.012 0.372,0.03 0.554,0.033 0.185,0.004 0.373,0.013 0.554,-0.015 0.486,-0.075 0.914,-0.381 0.902,-0.662 -0.019,-0.427 -0.332,-0.649 -0.667,-0.827 -0.205,-0.109 -0.43,-0.179 -0.713,-0.292 0.185,-0.088 0.303,-0.132 0.408,-0.196 0.427,-0.266 0.872,-0.506 1.172,-0.938 0.249,-0.36 0.205,-0.667 -0.183,-0.85 -0.185,-0.087 -0.405,-0.116 -0.613,-0.134 -0.191,-0.017 -0.387,0.015 -0.675,0.03 0.348,-0.404 0.747,-0.49 1.106,-0.629 0.385,-0.149 0.715,-0.432 1.153,-0.514 0.046,0.132 0.069,0.237 0.117,0.328 0.275,0.527 0.305,1.06 0.112,1.624 -0.085,0.248 -0.121,0.521 -0.135,0.785 -0.026,0.511 -0.144,0.998 -0.336,1.467 -0.201,0.491 -0.451,0.964 -0.619,1.466 -0.141,0.423 -0.374,0.759 -0.689,1.053 -0.525,0.489 -1.043,0.987 -1.579,1.463 -0.196,0.174 -0.428,0.312 -0.656,0.444 -0.921,0.529 -1.947,0.726 -2.977,0.786 -1.972,0.116 -3.775,-0.447 -5.394,-1.586 -0.118,-0.082 -0.301,-0.132 -0.296,-0.379 0.105,-0.109 0.21,-0.28 0.362,-0.367 1.143,-0.656 2.271,-1.342 3.515,-1.862 M -0.756,-17.684 c 0.102,-0.15 0.14,-0.22 0.19,-0.278 1.191,-1.387 2.462,-2.711 3.322,-4.353 0.091,-0.174 0.251,-0.259 0.457,-0.269 0.738,-0.036 1.475,-0.084 2.213,-0.118 0.091,-0.004 0.185,0.049 0.271,0.074 -0.099,0.713 -1.097,4.411 -1.36,5.048 -0.194,0.011 -0.403,0.042 -0.611,0.031 -0.926,-0.05 -1.849,-0.073 -2.774,0.033 -0.552,0.063 -1.104,0.007 -1.708,-0.168 m 12.227,17.673 c 0.071,0.02 0.152,0.025 0.211,0.064 0.632,0.403 1.318,0.69 2.019,0.941 1.943,0.697 3.892,0.703 5.839,0.018 0.582,-0.204 1.101,-0.519 1.56,-0.933 0.474,-0.427 0.941,-0.86 1.424,-1.276 0.416,-0.357 0.718,-0.778 0.851,-1.317 0.032,-0.127 0.067,-0.263 0.138,-0.371 0.414,-0.627 0.629,-1.334 0.856,-2.049 0.034,0.444 0.017,0.885 0.037,1.325 0.069,1.493 -0.484,2.755 -1.417,3.871 -0.203,0.243 -0.435,0.476 -0.695,0.652 -0.461,0.311 -0.941,0.598 -1.434,0.856 -0.852,0.445 -1.74,0.789 -2.722,0.793 -0.262,0 -0.525,-0.015 -0.787,-0.026 -2.282,-0.097 -4.296,-0.844 -5.88,-2.548 m -0.127,-29.826 c -0.311,0.015 -0.461,0.044 -0.604,0.025 -0.604,-0.077 -1.209,-0.158 -1.81,-0.258 -0.526,-0.088 -1.051,-0.132 -1.582,-0.071 -1.633,0.188 -3.274,0.329 -4.897,0.577 -1.859,0.285 -3.708,0.65 -5.376,1.602 -0.022,0.013 -0.049,0.03 -0.073,0.028 -0.07,-0.006 -0.14,-0.02 -0.201,-0.03 -0.011,-0.051 -0.027,-0.079 -0.021,-0.102 0.013,-0.05 0.024,-0.109 0.057,-0.144 0.764,-0.802 1.666,-1.389 2.728,-1.71 1.015,-0.308 2.042,-0.564 3.074,-0.809 0.855,-0.203 1.713,-0.33 2.583,-0.392 1.164,-0.083 2.324,-0.015 3.483,0.109 0.955,0.102 1.719,0.601 2.639,1.175 M -1.445,8.871 C -1.372,8.492 -1.309,8.132 -1.232,7.775 -1.001,6.711 -0.763,5.648 -0.532,4.584 -0.25,3.286 0.02,1.987 0.311,0.692 0.374,0.413 0.41,0.12 0.606,-0.123 0.676,-0.209 0.655,-0.369 0.673,-0.495 0.696,-0.652 0.7,-0.813 0.741,-0.965 0.989,-1.888 1.24,-2.81 1.503,-3.728 1.545,-3.874 1.636,-4.018 1.739,-4.13 1.847,-4.248 1.997,-4.325 2.149,-4.148 1.251,0.184 0.353,4.521 -0.552,8.889 -0.83,8.959 -1.106,8.973 -1.445,8.871 m 8.496,-31.596 c -0.029,0.124 -0.052,0.272 -0.099,0.412 -0.729,2.167 -1.38,4.357 -1.993,6.559 -0.114,0.409 -0.218,0.822 -0.301,1.239 -0.523,2.633 -1.183,5.235 -1.816,7.843 -0.136,0.564 -0.321,1.116 -0.473,1.64 -0.241,0.106 -0.42,0.244 -0.678,0.067 0.085,-0.453 0.153,-0.924 0.264,-1.385 0.435,-1.808 0.836,-3.626 1.343,-5.414 0.478,-1.687 1.079,-3.339 1.614,-5.01 0.194,-0.607 0.374,-1.22 0.521,-1.84 0.325,-1.367 0.657,-2.731 1.123,-4.05 0.153,-0.052 0.271,-0.207 0.495,-0.061 m 4.387,-2.6 c -0.844,0.457 -1.715,0.928 -2.615,1.414 -0.302,-1.039 -0.591,-2.029 -0.876,-3.008 0.206,-0.179 0.382,-0.325 0.618,-0.32 0.028,0.13 0.047,0.215 0.07,0.32 1.184,-0.806 1.994,-1.171 2.809,-1.278 0.156,0.61 0.158,1.917 -0.006,2.872 m 0.658,-2.573 c 0.108,-0.012 0.176,-0.042 0.203,-0.02 0.413,0.335 0.854,0.643 1.219,1.025 0.346,0.361 0.614,0.797 0.908,1.206 0.13,0.181 0.135,0.384 0.108,0.609 -0.113,0.922 -0.201,1.847 -0.304,2.77 -0.014,0.125 -0.061,0.246 -0.106,0.417 -0.095,-0.095 -0.16,-0.137 -0.194,-0.197 -0.405,-0.716 -0.823,-1.426 -1.203,-2.156 -0.418,-0.803 -0.766,-1.631 -0.644,-2.579 0.033,-0.261 -0.01,-0.532 -0.012,-0.798 -10e-4,-0.098 0.017,-0.197 0.025,-0.277 M -2.373,-1.395 c 0.542,-0.563 0.86,-1.199 1.45,-1.577 0.566,-0.363 1.145,-0.715 1.867,-0.818 -0.128,0.573 -0.2,1.101 -0.368,1.597 -0.175,0.516 -0.149,1.102 -0.524,1.595 -0.848,-0.052 -1.658,-0.188 -2.425,-0.797 m 7.694,-11.812 c 0.149,0.011 0.228,0.005 0.301,0.023 1.203,0.301 2.405,0.606 3.607,0.908 0.23,0.058 0.465,0.097 0.691,0.167 0.11,0.035 0.204,0.123 0.436,0.269 -0.445,0.02 -0.729,0.034 -1.013,0.045 -1.107,0.044 -2.214,0.084 -3.321,0.132 -0.359,0.015 -0.718,0.05 -1.121,0.079 0.035,-0.591 0.23,-1.077 0.42,-1.623 m 5.932,-15.714 c -1.204,0.452 -2.374,0.816 -3.497,1.397 -0.193,-0.629 -0.517,-1.15 -0.611,-1.797 0.229,-0.026 0.437,-0.083 0.638,-0.067 1.105,0.085 2.219,0.056 3.311,0.281 0.038,0.008 0.065,0.073 0.159,0.186 m 6.461,25.253 c 0.032,0.1 0.082,0.175 0.072,0.24 -0.135,0.914 -0.271,1.827 -0.424,2.738 -0.034,0.205 -0.115,0.407 -0.203,0.596 -0.133,0.285 -0.346,0.393 -0.557,0.315 -0.195,-0.071 -0.321,-0.329 -0.29,-0.595 0.007,-0.052 0.021,-0.103 0.037,-0.154 0.204,-0.654 0.386,-1.316 0.622,-1.958 0.135,-0.366 0.353,-0.701 0.544,-1.044 0.032,-0.056 0.118,-0.083 0.199,-0.138 m -0.863,0.06 c -0.121,0.265 -0.154,0.366 -0.209,0.454 -0.478,0.759 -0.958,1.518 -1.445,2.272 -0.085,0.131 -0.196,0.254 -0.318,0.351 -0.294,0.233 -0.607,0.279 -0.943,0.047 -10e-4,-0.462 0.308,-0.732 0.567,-1.019 0.371,-0.41 0.747,-0.818 1.151,-1.194 0.319,-0.296 0.609,-0.642 1.197,-0.911 m 2.135,-1.469 c 0.187,-0.154 0.268,-0.251 0.372,-0.301 0.783,-0.38 1.579,-0.731 2.298,-1.238 0.277,-0.195 0.622,-0.225 0.96,-0.06 -0.232,0.488 -0.28,0.558 -0.674,0.777 -0.532,0.294 -1.099,0.503 -1.673,0.706 -0.392,0.139 -0.765,0.118 -1.283,0.116 m -0.663,1.398 c 0.18,0.223 0.267,0.294 0.306,0.385 0.195,0.461 0.389,0.924 0.559,1.394 0.135,0.372 0.239,0.755 0.346,1.136 0.037,0.132 0.021,0.293 -0.122,0.337 -0.109,0.034 -0.284,0.024 -0.362,-0.044 -0.153,-0.135 -0.321,-0.305 -0.375,-0.492 -0.182,-0.632 -0.401,-1.261 -0.394,-1.932 0.003,-0.207 0.022,-0.413 0.042,-0.784 M 7.429,-20.826 c 0.655,0.876 1.192,1.841 1.315,2.334 -0.447,-0.032 -0.901,-0.127 -1.105,-0.288 -0.139,-0.108 -0.234,-0.272 -0.337,-0.397 0.049,-0.218 0.091,-0.395 0.127,-0.574 0.004,-0.016 -0.02,-0.039 -0.02,-0.038 -0.107,-0.044 -0.197,-0.08 -0.314,-0.129 0.111,-0.303 0.211,-0.573 0.334,-0.908 M 21.327,-1.77 c -0.65,-0.056 -1.01,-0.355 -1.365,-0.66 -0.49,-0.421 -0.881,-1.045 -1.046,-1.7 0.193,0.099 0.373,0.146 0.493,0.259 0.653,0.613 1.388,1.154 1.918,2.101 m -1.813,-2.691 c 0.671,-0.174 1.41,-0.223 1.798,-0.128 0.231,0.057 0.459,0.131 0.678,0.223 0.146,0.061 0.304,0.177 0.239,0.357 -0.034,0.095 -0.182,0.19 -0.293,0.211 -0.855,0.164 -1.597,-0.115 -2.422,-0.663 m -7.423,-14.461 c 0.245,0.359 0.303,0.776 0.373,1.183 0.017,0.102 -0.062,0.221 -0.11,0.371 -0.328,-0.104 -0.602,-0.19 -0.875,-0.277 -0.259,-0.083 -0.518,-0.166 -0.858,-0.274 0.45,-0.341 0.823,-0.628 1.202,-0.908 0.058,-0.042 0.14,-0.051 0.268,-0.095 M 1.41,-28.727 c 0.659,-0.249 1.399,-0.346 2.1,-0.255 -0.747,0.132 -1.36,0.241 -1.974,0.347 -0.018,0.003 -0.042,-0.029 -0.126,-0.092 M -0.638,9.704 C -0.707,9.803 -0.737,9.895 -0.793,9.917 -0.985,9.992 -1.158,9.938 -1.281,9.768 -1.307,9.733 -1.315,9.636 -1.3,9.628 c 0.111,-0.057 0.233,-0.141 0.344,-0.131 0.105,0.01 0.2,0.125 0.318,0.207"
           style="fill:#231f20;fill-opacity:1;fill-rule:nonzero;stroke:none"
           id="path12379" /></g><g
         id="g12381"
         transform="translate(541.90585,158.9345)"><path
           d="M 0,0 C -0.184,0.91 -0.34,1.826 -0.558,2.728 -0.77,3.6 -1.045,4.457 -1.282,5.283 c 0.149,0.195 0.281,0.114 0.4,0.096 C 0.035,5.236 0.947,5.038 1.869,4.957 3.425,4.821 4.983,4.677 6.551,4.825 7.21,4.887 7.874,4.904 8.536,4.93 c 1.276,0.049 2.526,0.262 3.757,0.597 0.076,0.021 0.156,0.027 0.231,0.039 0.35,-0.221 0.485,-0.545 0.519,-0.94 0.087,-1.006 0.209,-2.01 0.274,-3.017 0.071,-1.088 0.026,-2.178 -0.032,-3.267 -0.013,-0.239 0.017,-0.481 -0.005,-0.718 -0.055,-0.609 -0.097,-1.221 -0.199,-1.822 -0.21,-1.233 -0.44,-2.464 -0.69,-3.689 -0.218,-1.067 -0.469,-2.128 -0.934,-3.122 -0.04,-0.086 -0.043,-0.218 -0.237,-0.229 -0.003,0.121 -0.028,0.244 -0.005,0.357 0.185,0.913 0.382,1.823 0.569,2.735 0.102,0.495 0.197,0.992 0.284,1.489 0.12,0.682 0.233,1.364 0.341,2.048 0.067,0.42 0.139,0.841 0.175,1.264 0.061,0.716 0.098,1.434 0.136,2.152 0.008,0.153 -0.025,0.308 -0.038,0.446 -0.405,0.232 -0.803,0.198 -1.198,0.187 C 10.744,-0.58 10.003,-0.595 9.263,-0.618 8.548,-0.64 7.832,-0.671 7.117,-0.693 6.932,-0.699 6.743,-0.709 6.563,-0.678 5.327,-0.471 4.08,-0.513 2.835,-0.467 1.918,-0.432 0.972,-0.458 0,0"
           style="fill:#f4f4f4;fill-opacity:1;fill-rule:nonzero;stroke:none"
           id="path12383" /></g><g
         id="g12385"
         transform="translate(534.41045,142.4792)"><path
           d="m 0,0 c -0.226,0.517 -0.394,0.932 -0.586,1.336 -0.435,0.916 -0.758,1.862 -0.873,2.878 -0.039,0.341 -0.169,0.67 -0.212,1.011 -0.141,1.104 -0.383,2.19 -0.522,3.297 -0.16,1.277 -0.14,2.548 -0.136,3.823 0.003,0.826 0.027,1.651 0.049,2.476 0.025,0.884 0.267,1.734 0.431,2.595 0.009,0.045 0.062,0.082 0.134,0.171 0.513,-0.017 1.054,-0.03 1.589,-0.22 0.898,-0.318 1.801,-0.622 2.713,-0.895 0.735,-0.22 1.483,-0.391 2.253,-0.453 0.206,-0.016 0.407,-0.098 0.667,-0.164 0.495,-1.796 0.994,-3.607 1.509,-5.476 -0.53,0.005 -1,0.014 -1.47,0.011 C 5.017,10.386 4.486,10.385 3.957,10.358 3.163,10.318 2.372,10.277 1.586,10.464 1.265,10.541 1.047,10.374 0.952,10.026 0.36,7.841 -0.138,5.633 -0.538,3.405 -0.566,3.253 -0.526,3.088 -0.518,2.942 0.231,2.245 0.983,1.577 1.697,0.87 2.4,0.174 3.185,-0.446 3.865,-1.35 2.374,-1.085 1.113,-0.583 0,0"
           style="fill:#fbf6d9;fill-opacity:1;fill-rule:nonzero;stroke:none"
           id="path12387" /></g><g
         id="g12389"
         transform="translate(539.34965,169.1771)"><path
           d="M 0,0 C 0.825,0.077 1.558,0.16 2.294,0.21 3.697,0.304 5.102,0.308 6.507,0.266 6.693,0.26 6.878,0.246 7.063,0.228 7.73,0.164 8.338,0.013 8.823,-0.535 c 0.291,-0.328 0.703,-0.561 1.089,-0.788 1.211,-0.712 2.436,-1.398 3.652,-2.101 0.203,-0.118 0.388,-0.269 0.58,-0.407 0.136,-0.096 0.276,-0.233 0.187,-0.391 -0.066,-0.117 -0.238,-0.226 -0.375,-0.243 -0.995,-0.124 -1.972,-0.407 -2.995,-0.316 -0.498,0.045 -1.006,0.01 -1.508,-0.017 C 8.207,-4.866 6.971,-4.751 5.735,-4.62 4.47,-4.487 3.203,-4.362 1.936,-4.248 1.082,-4.171 1.013,-3.995 0.817,-3.264 0.638,-2.6 0.45,-1.939 0.279,-1.273 0.18,-0.889 0.108,-0.497 0,0"
           style="fill:#f4f4f4;fill-opacity:1;fill-rule:nonzero;stroke:none"
           id="path12391" /></g><g
         id="g12393"
         transform="translate(532.35215,146.5516)"><path
           d="m 0,0 c -0.21,0.025 -0.226,0.203 -0.259,0.353 -0.147,0.649 -0.3,1.297 -0.425,1.95 -0.309,1.625 -0.527,3.265 -0.577,4.916 -0.028,0.928 -0.065,1.864 0.061,2.796 0.097,0.712 0.087,1.437 0.178,2.15 0.115,0.897 0.245,1.797 0.442,2.679 0.197,0.882 0.434,1.763 0.746,2.609 0.377,1.022 0.85,2.008 1.284,3.008 0.129,0.297 0.357,0.517 0.586,0.794 0.404,-0.349 0.791,-0.663 1.152,-1.003 0.511,-0.482 1.089,-0.844 1.745,-1.091 0.346,-0.13 0.682,-0.288 1.035,-0.439 0.226,-1.057 0.451,-2.092 0.667,-3.13 0.215,-1.03 0.626,-2.017 0.727,-3.115 -0.378,0.043 -0.698,0.047 -1.003,0.12 -1.134,0.269 -2.271,0.528 -3.389,0.856 -0.684,0.2 -1.342,0.494 -2.049,0.625 -0.179,0.033 -0.37,0.09 -0.543,0.061 -0.786,-0.129 -0.817,-0.166 -0.874,-0.874 -0.069,-0.85 -0.114,-1.702 -0.177,-2.552 -0.1,-1.331 -0.09,-2.662 -0.066,-3.995 0.022,-1.199 0.101,-2.393 0.257,-3.581 0.138,-1.053 0.31,-2.102 0.467,-3.153 z"
           style="fill:#f4f4f4;fill-opacity:1;fill-rule:nonzero;stroke:none"
           id="path12395" /></g><g
         id="g12397"
         transform="translate(549.27185,157.6678)"><path
           d="M 0,0 C 0.815,0.191 1.584,0.047 2.344,0.103 3.106,0.158 3.874,0.129 4.691,0.137 4.714,-0.02 4.752,-0.167 4.756,-0.314 4.788,-1.571 4.695,-2.815 4.366,-4.035 4.304,-4.265 4.251,-4.506 4.247,-4.743 4.232,-5.685 3.952,-6.582 3.775,-7.494 3.612,-8.329 3.364,-9.147 3.149,-9.971 3.132,-10.036 3.07,-10.089 2.975,-10.225 2.879,-9.909 2.77,-9.669 2.736,-9.419 2.658,-8.86 2.342,-8.518 1.854,-8.284 c -0.48,0.23 -0.887,0.568 -1.298,0.909 0.22,0.828 0.301,1.646 0.613,2.411 0.046,0.113 0.037,0.267 0.007,0.391 C 1.04,-4.005 0.887,-3.442 0.741,-2.876 0.496,-1.927 0.252,-0.977 0,0"
           style="fill:#fbf6d9;fill-opacity:1;fill-rule:nonzero;stroke:none"
           id="path12399" /></g><g
         id="g12401"
         transform="translate(548.53385,157.465)"><path
           d="m 0,0 c 0.117,-0.204 0.243,-0.374 0.32,-0.565 0.178,-0.444 0.354,-0.891 0.489,-1.35 0.158,-0.535 0.287,-1.079 0.398,-1.626 0.051,-0.255 0.03,-0.524 0.042,-0.788 -0.758,-0.426 -1.547,-0.648 -2.323,-0.909 -0.249,-0.083 -0.39,0.113 -0.625,0.166 -0.386,-0.458 -0.961,-0.481 -1.494,-0.602 -0.384,-0.087 -0.776,-0.135 -1.215,-0.209 -0.167,0.704 -0.309,1.402 -0.5,2.086 -0.193,0.689 -0.434,1.364 -0.663,2.075 0.368,0.366 0.818,0.583 1.29,0.749 0.374,0.132 0.761,0.228 1.147,0.322 0.773,0.188 1.547,0.37 2.324,0.541 0.254,0.056 0.517,0.071 0.81,0.11"
           style="fill:#faf2cd;fill-opacity:1;fill-rule:nonzero;stroke:none"
           id="path12403" /></g><g
         id="g12405"
         transform="translate(540.31815,146.3954)"><path
           d="m 0,0 c 0.697,0.014 1.306,0.028 1.915,0.037 0.105,0.002 0.214,0 0.316,-0.021 0.308,-0.064 0.61,-0.173 0.92,-0.199 0.311,-0.026 0.628,0.044 0.942,0.041 0.422,-0.004 0.788,-0.127 0.96,-0.677 C 4.504,-2.401 3.931,-4.053 3.371,-5.669 3.259,-5.702 3.195,-5.744 3.162,-5.726 c -0.617,0.323 -1.312,0.368 -1.97,0.54 -0.588,0.154 -1.199,0.219 -1.796,0.341 -0.334,0.068 -0.66,0.172 -0.98,0.257 -0.111,0.448 0.107,0.782 0.216,1.122 0.27,0.833 0.611,1.642 0.883,2.475 C -0.366,-0.63 -0.195,-0.313 0,0"
           style="fill:#faf2cd;fill-opacity:1;fill-rule:nonzero;stroke:none"
           id="path12407" /></g><g
         id="g12409"
         transform="translate(535.84835,151.7689)"><path
           d="M 0,0 C 0.748,-0.872 1.264,-1.735 1.832,-2.561 2.387,-3.369 2.93,-4.186 3.473,-4.991 3.523,-5.71 3.29,-6.364 3.096,-7.025 2.879,-7.763 2.649,-8.497 2.421,-9.233 2.399,-9.302 2.352,-9.364 2.284,-9.488 c -0.107,0.115 -0.19,0.205 -0.273,0.294 -0.108,0.114 -0.2,0.299 -0.328,0.328 -0.484,0.111 -0.735,0.495 -1.047,0.813 -0.501,0.51 -0.997,1.025 -1.507,1.527 -0.345,0.339 -0.528,0.716 -0.428,1.213 0.114,0.572 0.186,1.153 0.316,1.721 C -0.715,-2.431 -0.441,-1.271 0,0"
           style="fill:#faf2cd;fill-opacity:1;fill-rule:nonzero;stroke:none"
           id="path12411" /></g><g
         id="g12413"
         transform="translate(551.02475,148.657)"><path
           d="m 0,0 c -0.319,-0.601 -0.604,-1.141 -0.892,-1.678 -0.277,-0.516 -0.557,-1.031 -0.838,-1.544 -0.192,-0.35 -0.42,-0.448 -0.789,-0.309 -0.222,0.083 -0.421,0.225 -0.64,0.32 -0.589,0.253 -1.129,0.587 -1.647,0.959 -0.297,0.214 -0.637,0.392 -0.766,0.78 -0.022,0.066 -0.1,0.128 -0.166,0.161 -0.388,0.192 -0.302,0.481 -0.21,0.811 0.168,0.597 0.449,1.136 0.745,1.672 0.219,0.395 0.415,0.804 0.638,1.196 0.088,0.155 0.223,0.284 0.358,0.451 0.898,-0.33 1.731,-0.713 2.443,-1.333 0.339,-0.295 0.703,-0.563 1.049,-0.85 C -0.492,0.45 -0.281,0.25 0,0"
           style="fill:#faf2cd;fill-opacity:1;fill-rule:nonzero;stroke:none"
           id="path12415" /></g><g
         id="g12417"
         transform="translate(552.47635,166.6588)"><path
           d="M 0,0 C -1.244,0.52 -2.372,1.207 -3.516,1.863 -3.667,1.95 -3.772,2.12 -3.877,2.23 -3.882,2.477 -3.699,2.527 -3.581,2.609 -1.962,3.747 -0.159,4.31 1.813,4.195 2.843,4.134 3.869,3.938 4.79,3.408 5.018,3.276 5.25,3.138 5.446,2.964 5.982,2.488 6.5,1.991 7.025,1.502 7.34,1.207 7.573,0.871 7.714,0.448 7.882,-0.053 8.132,-0.526 8.333,-1.017 8.525,-1.487 8.643,-1.973 8.669,-2.485 8.683,-2.749 8.719,-3.021 8.804,-3.269 8.997,-3.833 8.967,-4.367 8.692,-4.893 8.644,-4.985 8.621,-5.09 8.575,-5.221 8.137,-5.139 7.807,-4.856 7.422,-4.707 7.063,-4.569 6.663,-4.482 6.316,-4.079 6.604,-4.094 6.8,-4.126 6.991,-4.109 c 0.208,0.019 0.428,0.047 0.613,0.134 0.388,0.183 0.432,0.491 0.182,0.85 -0.299,0.433 -0.744,0.673 -1.171,0.938 -0.105,0.065 -0.223,0.108 -0.408,0.196 0.283,0.114 0.508,0.183 0.713,0.292 0.335,0.178 0.648,0.401 0.667,0.828 0.012,0.28 -0.416,0.587 -0.902,0.662 -0.181,0.027 -0.37,0.018 -0.554,0.015 C 5.949,-0.198 5.768,-0.216 5.577,-0.228 5.535,0.023 5.736,0.108 5.836,0.247 6.021,0.506 6.235,0.747 6.405,1.016 6.522,1.201 6.538,1.42 6.399,1.62 6.254,1.827 6.028,1.855 5.827,1.794 5.501,1.695 5.188,1.548 4.878,1.404 4.74,1.339 4.622,1.232 4.391,1.074 4.445,1.358 4.473,1.525 4.508,1.69 4.572,2.001 4.674,2.308 4.698,2.622 4.724,2.975 4.523,3.142 4.16,3.176 3.703,3.219 3.392,3.016 3.203,2.614 3.068,2.328 2.954,2.033 2.824,1.724 2.555,1.994 2.592,2.329 2.489,2.614 2.391,2.886 2.286,3.156 2.164,3.417 2.067,3.624 1.88,3.711 1.657,3.758 0.97,3.901 0.501,3.455 0.627,2.755 0.655,2.599 0.721,2.45 0.755,2.294 0.775,2.198 0.766,2.095 0.776,1.829 0.568,2.128 0.445,2.291 0.338,2.464 0.15,2.769 -0.108,2.993 -0.43,3.135 -0.856,3.322 -1.408,3.194 -1.664,2.867 -1.788,2.71 -1.841,2.533 -1.757,2.348 -1.67,2.156 -1.578,1.96 -1.449,1.795 -0.975,1.19 -0.484,0.597 0,0"
           style="fill:#e7f5d7;fill-opacity:1;fill-rule:nonzero;stroke:none"
           id="path12419" /></g><g
         id="g12421"
         transform="translate(536.47465,152.0846)"><path
           d="M 0,0 C 0.604,0.174 1.156,0.231 1.708,0.167 2.633,0.061 3.556,0.084 4.482,0.135 4.689,0.146 4.899,0.115 5.092,0.104 5.356,-0.533 6.354,-4.231 6.453,-4.945 6.367,-4.969 6.273,-5.022 6.181,-5.018 5.444,-4.984 4.706,-4.936 3.968,-4.9 3.763,-4.89 3.603,-4.805 3.512,-4.631 2.652,-2.989 1.38,-1.665 0.19,-0.279 0.14,-0.22 0.102,-0.151 0,0"
           style="fill:#faf2cd;fill-opacity:1;fill-rule:nonzero;stroke:none"
           id="path12423" /></g><g
         id="g12425"
         transform="translate(548.70175,169.7572)"><path
           d="M 0,0 C 1.584,1.704 3.598,2.451 5.879,2.548 6.142,2.559 6.404,2.575 6.667,2.574 7.649,2.57 8.537,2.226 9.388,1.781 9.881,1.523 10.362,1.237 10.823,0.925 c 0.259,-0.176 0.492,-0.409 0.694,-0.651 0.934,-1.117 1.487,-2.379 1.418,-3.872 -0.021,-0.439 -0.003,-0.881 -0.038,-1.325 -0.226,0.715 -0.442,1.422 -0.856,2.05 -0.071,0.107 -0.106,0.243 -0.137,0.37 -0.133,0.539 -0.436,0.96 -0.851,1.318 C 10.57,-0.77 10.102,-0.337 9.629,0.09 9.17,0.505 8.65,0.819 8.068,1.023 6.121,1.708 4.172,1.702 2.229,1.005 1.529,0.754 0.843,0.467 0.211,0.064 0.151,0.026 0.071,0.02 0,0"
           style="fill:#9fd870;fill-opacity:1;fill-rule:nonzero;stroke:none"
           id="path12427" /></g><g
         id="g12429"
         transform="translate(548.57465,139.9314)"><path
           d="m 0,0 c -0.92,-0.574 -1.684,-1.073 -2.64,-1.175 -1.159,-0.124 -2.318,-0.192 -3.482,-0.109 -0.871,0.062 -1.728,0.189 -2.583,0.392 -1.032,0.245 -2.06,0.501 -3.074,0.809 -1.063,0.321 -1.964,0.908 -2.728,1.71 -0.033,0.035 -0.045,0.094 -0.057,0.144 -0.006,0.023 0.009,0.051 0.021,0.102 0.061,0.01 0.13,0.024 0.201,0.03 0.023,0.002 0.05,-0.015 0.073,-0.028 1.667,-0.952 3.516,-1.317 5.375,-1.602 1.624,-0.248 3.265,-0.389 4.898,-0.577 0.531,-0.061 1.056,-0.017 1.582,0.071 0.601,0.1 1.205,0.181 1.81,0.258 C -0.461,0.044 -0.312,0.015 0,0"
           style="fill:#f4f4f4;fill-opacity:1;fill-rule:nonzero;stroke:none"
           id="path12431" /></g><g
         id="g12433"
         transform="translate(535.78495,178.6394)"><path
           d="m 0,0 c 0.339,0.102 0.615,0.087 0.893,0.018 0.905,-4.369 1.804,-8.705 2.701,-13.037 -0.152,-0.177 -0.302,-0.1 -0.41,0.018 -0.102,0.112 -0.193,0.256 -0.235,0.401 -0.264,0.919 -0.515,1.841 -0.763,2.764 -0.041,0.152 -0.045,0.313 -0.068,0.47 C 2.1,-9.24 2.121,-9.08 2.052,-8.994 1.855,-8.751 1.819,-8.458 1.757,-8.179 1.466,-6.884 1.195,-5.585 0.914,-4.288 0.683,-3.223 0.444,-2.16 0.213,-1.096 0.136,-0.739 0.073,-0.379 0,0"
           style="fill:#f3e187;fill-opacity:1;fill-rule:nonzero;stroke:none"
           id="path12435" /></g><g
         id="g12437"
         transform="translate(544.28115,147.043)"><path
           d="m 0,0 c -0.224,-0.145 -0.342,0.009 -0.495,0.061 -0.466,1.32 -0.798,2.684 -1.123,4.05 -0.147,0.62 -0.327,1.233 -0.521,1.84 -0.534,1.672 -1.136,3.323 -1.614,5.01 -0.507,1.788 -0.908,3.607 -1.343,5.415 -0.111,0.46 -0.179,0.931 -0.264,1.384 0.258,0.178 0.437,0.039 0.678,-0.066 0.153,-0.525 0.337,-1.077 0.474,-1.641 0.632,-2.608 1.292,-5.209 1.815,-7.843 C -2.31,7.794 -2.206,7.38 -2.092,6.971 -1.479,4.769 -0.828,2.579 -0.099,0.413 -0.052,0.272 -0.029,0.124 0,0"
           style="fill:#f3e187;fill-opacity:1;fill-rule:nonzero;stroke:none"
           id="path12439" /></g><g
         id="g12441"
         transform="translate(548.66845,144.4436)"><path
           d="m 0,0 c 0.163,-0.955 0.162,-2.262 0.006,-2.872 -0.815,0.106 -1.625,0.472 -2.809,1.278 -0.023,-0.105 -0.042,-0.19 -0.071,-0.32 -0.235,-0.005 -0.411,0.141 -0.617,0.32 0.285,0.979 0.573,1.968 0.876,3.008 C -1.715,0.928 -0.844,0.456 0,0"
           style="fill:#faf2cd;fill-opacity:1;fill-rule:nonzero;stroke:none"
           id="path12443" /></g><g
         id="g12445"
         transform="translate(549.32595,141.8705)"><path
           d="M 0,0 C -0.008,0.08 -0.026,0.178 -0.025,0.277 -0.023,0.543 0.021,0.814 -0.013,1.075 -0.135,2.023 0.213,2.85 0.631,3.654 1.011,4.384 1.429,5.093 1.834,5.81 1.868,5.87 1.933,5.912 2.029,6.007 2.073,5.836 2.12,5.715 2.134,5.59 2.237,4.667 2.326,3.742 2.438,2.82 2.466,2.595 2.46,2.392 2.33,2.211 2.036,1.802 1.768,1.365 1.423,1.005 1.058,0.623 0.616,0.315 0.203,-0.02 0.176,-0.042 0.108,-0.012 0,0"
           style="fill:#faf2cd;fill-opacity:1;fill-rule:nonzero;stroke:none"
           id="path12447" /></g><g
         id="g12449"
         transform="translate(534.85705,168.3732)"><path
           d="M 0,0 C 0.767,0.609 1.578,0.745 2.425,0.797 2.801,0.304 2.774,-0.282 2.949,-0.798 3.117,-1.293 3.189,-1.822 3.317,-2.395 2.595,-2.292 2.016,-1.94 1.45,-1.577 0.86,-1.199 0.542,-0.563 0,0"
           style="fill:#ffffff;fill-opacity:1;fill-rule:nonzero;stroke:none"
           id="path12451" /></g><g
         id="g12453"
         transform="translate(542.55165,156.5618)"><path
           d="M 0,0 C -0.19,0.545 -0.385,1.031 -0.42,1.622 -0.017,1.593 0.341,1.559 0.701,1.543 1.808,1.496 2.915,1.456 4.022,1.412 4.306,1.401 4.59,1.386 5.035,1.366 4.803,1.22 4.709,1.133 4.599,1.098 4.373,1.027 4.138,0.989 3.908,0.931 2.705,0.628 1.503,0.324 0.3,0.022 0.227,0.004 0.149,0.01 0,0"
           style="fill:#fbf6d9;fill-opacity:1;fill-rule:nonzero;stroke:none"
           id="path12455" /></g><g
         id="g12457"
         transform="translate(548.48335,140.847)"><path
           d="M 0,0 C -0.094,-0.112 -0.121,-0.178 -0.159,-0.186 -1.251,-0.41 -2.365,-0.382 -3.47,-0.467 -3.671,-0.483 -3.879,-0.426 -4.108,-0.4 -4.014,0.247 -3.69,0.768 -3.497,1.397 -2.374,0.816 -1.204,0.452 0,0"
           style="fill:#fbf6d9;fill-opacity:1;fill-rule:nonzero;stroke:none"
           id="path12459" /></g><g
         id="g12461"
         transform="translate(554.94445,166.1008)"><path
           d="m 0,0 c -0.082,0.055 -0.167,0.081 -0.199,0.138 -0.191,0.343 -0.41,0.678 -0.544,1.043 -0.236,0.643 -0.418,1.305 -0.622,1.959 -0.016,0.05 -0.03,0.102 -0.037,0.154 -0.032,0.266 0.095,0.524 0.29,0.595 0.211,0.077 0.424,-0.031 0.557,-0.315 0.088,-0.19 0.169,-0.392 0.203,-0.596 C -0.199,2.067 -0.063,1.154 0.072,0.24 0.082,0.174 0.031,0.099 0,0"
           style="fill:#cfebb2;fill-opacity:1;fill-rule:nonzero;stroke:none"
           id="path12463" /></g><g
         id="g12465"
         transform="translate(554.08095,166.1607)"><path
           d="m 0,0 c -0.588,0.269 -0.878,0.614 -1.197,0.91 -0.404,0.376 -0.78,0.785 -1.151,1.195 -0.259,0.286 -0.567,0.557 -0.567,1.018 0.336,0.232 0.649,0.187 0.943,-0.047 0.123,-0.097 0.233,-0.219 0.318,-0.35 C -1.166,1.972 -0.687,1.213 -0.209,0.453 -0.154,0.366 -0.121,0.264 0,0"
           style="fill:#cfebb2;fill-opacity:1;fill-rule:nonzero;stroke:none"
           id="path12467" /></g><g
         id="g12469"
         transform="translate(556.21675,164.6909)"><path
           d="M 0,0 C 0.518,0.003 0.891,0.023 1.283,-0.116 1.856,-0.319 2.423,-0.527 2.955,-0.822 3.349,-1.04 3.397,-1.111 3.63,-1.599 3.292,-1.764 2.946,-1.734 2.67,-1.539 1.951,-1.032 1.155,-0.681 0.372,-0.3 0.268,-0.25 0.187,-0.153 0,0"
           style="fill:#cfebb2;fill-opacity:1;fill-rule:nonzero;stroke:none"
           id="path12471" /></g><g
         id="g12473"
         transform="translate(555.55315,166.0896)"><path
           d="M 0,0 C -0.02,0.371 -0.039,0.577 -0.042,0.784 -0.049,1.455 0.17,2.084 0.352,2.716 0.406,2.903 0.574,3.073 0.728,3.208 0.806,3.276 0.98,3.286 1.089,3.252 1.232,3.207 1.248,3.047 1.211,2.915 1.104,2.534 1,2.151 0.866,1.779 0.695,1.308 0.501,0.846 0.306,0.385 0.267,0.293 0.18,0.223 0,0"
           style="fill:#cfebb2;fill-opacity:1;fill-rule:nonzero;stroke:none"
           id="path12475" /></g><g
         id="g12477"
         transform="translate(544.65965,148.9424)"><path
           d="M 0,0 C -0.123,0.335 -0.223,0.605 -0.335,0.908 -0.217,0.956 -0.127,0.993 -0.02,1.037 -0.021,1.036 0.003,1.058 0,1.075 -0.037,1.254 -0.078,1.431 -0.127,1.649 -0.025,1.774 0.071,1.938 0.209,2.046 0.414,2.206 0.868,2.302 1.315,2.334 1.191,1.841 0.655,0.876 0,0"
           style="fill:#faf2cd;fill-opacity:1;fill-rule:nonzero;stroke:none"
           id="path12479" /></g><g
         id="g12481"
         transform="translate(558.55705,167.9984)"><path
           d="m 0,0 c -0.53,-0.947 -1.264,-1.488 -1.918,-2.101 -0.119,-0.113 -0.299,-0.161 -0.493,-0.26 0.165,0.656 0.557,1.28 1.046,1.701 C -1.01,-0.355 -0.649,-0.057 0,0"
           style="fill:#cfebb2;fill-opacity:1;fill-rule:nonzero;stroke:none"
           id="path12483" /></g><g
         id="g12485"
         transform="translate(556.74395,165.3072)"><path
           d="M 0,0 C 0.826,0.548 1.567,0.828 2.422,0.663 2.533,0.642 2.681,0.548 2.716,0.452 2.78,0.272 2.622,0.156 2.477,0.095 2.258,0.003 2.029,-0.071 1.798,-0.127 1.41,-0.223 0.672,-0.174 0,0"
           style="fill:#cfebb2;fill-opacity:1;fill-rule:nonzero;stroke:none"
           id="path12487" /></g><g
         id="g12489"
         transform="translate(549.32135,150.8467)"><path
           d="m 0,0 c -0.128,0.044 -0.21,0.052 -0.268,0.095 -0.379,0.28 -0.752,0.567 -1.202,0.907 0.34,0.109 0.598,0.192 0.858,0.275 0.273,0.087 0.547,0.173 0.875,0.277 C 0.311,1.403 0.39,1.285 0.373,1.183 0.303,0.776 0.245,0.358 0,0"
           style="fill:#faf2cd;fill-opacity:1;fill-rule:nonzero;stroke:none"
           id="path12491" /></g><g
         id="g12493"
         transform="translate(538.64035,141.0413)"><path
           d="M 0,0 C 0.084,0.063 0.108,0.095 0.126,0.092 0.74,-0.014 1.353,-0.123 2.1,-0.255 1.399,-0.346 0.659,-0.249 0,0"
           style="fill:#fbf6d9;fill-opacity:1;fill-rule:nonzero;stroke:none"
           id="path12495" /></g><g
         id="g12497"
         transform="translate(536.59275,179.4719)"><path
           d="m 0,0 c -0.119,-0.082 -0.214,-0.197 -0.318,-0.207 -0.111,-0.01 -0.234,0.075 -0.345,0.131 -0.014,0.008 -0.006,0.105 0.019,0.141 0.123,0.17 0.296,0.223 0.489,0.148 C -0.099,0.191 -0.07,0.1 0,0"
           style="fill:#f0d14b;fill-opacity:1;fill-rule:nonzero;stroke:none"
           id="path12499" /></g></g></g></svg>
