<?xml version="1.0" encoding="UTF-8" standalone="no"?>
<!-- Created with Inkscape (http://www.inkscape.org/) -->

<svg
   version="1.1"
   id="svg9"
   xml:space="preserve"
   width="559.37067"
   height="559.37067"
   viewBox="0 0 559.37067 559.37067"
   sodipodi:docname="hearts.svg"
   inkscape:version="1.1 (c68e22c387, 2021-05-23)"
   xmlns:inkscape="http://www.inkscape.org/namespaces/inkscape"
   xmlns:sodipodi="http://sodipodi.sourceforge.net/DTD/sodipodi-0.dtd"
   xmlns="http://www.w3.org/2000/svg"
   xmlns:svg="http://www.w3.org/2000/svg"><defs
     id="defs13"><clipPath
       clipPathUnits="userSpaceOnUse"
       id="clipPath23"><path
         d="M 0,0 H 419.528 V 419.528 H 0 Z"
         id="path21" /></clipPath><clipPath
       clipPathUnits="userSpaceOnUse"
       id="clipPath367"><path
         d="M 0,0 H 419.528 V 419.528 H 0 Z"
         id="path365" /></clipPath><clipPath
       clipPathUnits="userSpaceOnUse"
       id="clipPath735"><path
         d="M 0,0 H 419.528 V 419.528 H 0 Z"
         id="path733" /></clipPath><clipPath
       clipPathUnits="userSpaceOnUse"
       id="clipPath1103"><path
         d="M 0,0 H 419.528 V 419.528 H 0 Z"
         id="path1101" /></clipPath><clipPath
       clipPathUnits="userSpaceOnUse"
       id="clipPath1147"><path
         d="M 0,0 H 419.528 V 419.528 H 0 Z"
         id="path1145" /></clipPath><clipPath
       clipPathUnits="userSpaceOnUse"
       id="clipPath7235"><path
         d="M 0,0 H 419.528 V 419.528 H 0 Z"
         id="path7233" /></clipPath><clipPath
       clipPathUnits="userSpaceOnUse"
       id="clipPath7519"><path
         d="M 0,0 H 419.528 V 419.528 H 0 Z"
         id="path7517" /></clipPath><clipPath
       clipPathUnits="userSpaceOnUse"
       id="clipPath7855"><path
         d="M 0,0 H 419.528 V 419.528 H 0 Z"
         id="path7853" /></clipPath><clipPath
       clipPathUnits="userSpaceOnUse"
       id="clipPath8223"><path
         d="M 0,0 H 419.528 V 419.528 H 0 Z"
         id="path8221" /></clipPath><clipPath
       clipPathUnits="userSpaceOnUse"
       id="clipPath8699"><path
         d="M 0,0 H 419.528 V 419.528 H 0 Z"
         id="path8697" /></clipPath><clipPath
       clipPathUnits="userSpaceOnUse"
       id="clipPath9499"><path
         d="M 0,0 H 419.528 V 419.528 H 0 Z"
         id="path9497" /></clipPath><clipPath
       clipPathUnits="userSpaceOnUse"
       id="clipPath9559"><path
         d="M 0,0 H 419.528 V 419.528 H 0 Z"
         id="path9557" /></clipPath><clipPath
       clipPathUnits="userSpaceOnUse"
       id="clipPath11167"><path
         d="M 0,0 H 419.528 V 419.528 H 0 Z"
         id="path11165" /></clipPath><clipPath
       clipPathUnits="userSpaceOnUse"
       id="clipPath11591"><path
         d="M 0,0 H 419.528 V 419.528 H 0 Z"
         id="path11589" /></clipPath><clipPath
       clipPathUnits="userSpaceOnUse"
       id="clipPath12123"><path
         d="M 0,0 H 419.528 V 419.528 H 0 Z"
         id="path12121" /></clipPath></defs><sodipodi:namedview
     id="namedview11"
     pagecolor="#ffffff"
     bordercolor="#666666"
     borderopacity="1.0"
     inkscape:pageshadow="2"
     inkscape:pageopacity="0.0"
     inkscape:pagecheckerboard="0"
     showgrid="false"
     inkscape:zoom="1.3372171"
     inkscape:cx="352.59795"
     inkscape:cy="289.40702"
     inkscape:window-width="1920"
     inkscape:window-height="986"
     inkscape:window-x="-11"
     inkscape:window-y="-11"
     inkscape:window-maximized="1"
     inkscape:current-layer="g15" /><g
     id="g15"
     inkscape:groupmode="layer"
     inkscape:label="G&amp;P_02"
     transform="matrix(1.3333333,0,0,-1.3333333,0,559.37067)"><g
       id="g14402"
       transform="translate(11.778193,48.79537)"><g
         id="g9809"
         transform="translate(191.42358,192.7943)"><path
           d="m 0,0 c -0.473,0.043 -0.767,0.298 -1.046,0.565 -1.457,1.391 -2.995,2.706 -4.25,4.294 -1.128,1.427 -1.878,3.025 -2.002,4.871 -0.067,0.997 0.082,1.933 0.772,2.72 0.741,0.844 1.695,1.083 2.728,0.668 0.816,-0.327 1.441,-0.893 1.964,-1.582 0.204,-0.27 0.397,-0.546 0.635,-0.874 0.384,0.319 0.586,0.695 0.797,1.05 0.344,0.577 0.791,1.051 1.317,1.456 0.939,0.722 2.41,0.753 3.386,0.082 C 4.635,13.02 4.856,12.699 4.975,12.325 5.488,10.72 5.486,9.141 4.813,7.558 4.02,5.692 2.895,4.025 1.794,2.343 1.35,1.663 0.866,1.009 0.387,0.354 0.279,0.206 0.112,0.101 0,0 M -0.199,0.977 C 0.057,1.321 0.25,1.56 0.422,1.814 1.072,2.779 1.681,3.774 2.37,4.709 3.045,5.623 3.527,6.632 4.024,7.64 4.616,8.839 4.694,10.1 4.475,11.389 4.257,12.672 3.378,13.205 2.093,12.895 1.492,12.75 1.029,12.401 0.699,11.915 0.265,11.275 -0.111,10.594 -0.49,9.918 -0.634,9.659 -0.6,9.253 -0.988,9.205 -1.446,9.149 -1.551,9.574 -1.686,9.871 c -0.361,0.795 -0.888,1.461 -1.541,2.018 -0.318,0.27 -0.705,0.477 -1.091,0.643 -0.415,0.178 -0.819,0.097 -1.198,-0.194 -0.82,-0.63 -1.058,-1.484 -1.037,-2.462 0.041,-1.883 0.835,-3.439 2.062,-4.813 1.292,-1.446 2.749,-2.715 4.292,-4.086"
           style="fill:#231f20;fill-opacity:1;fill-rule:nonzero;stroke:none"
           id="path9811" /></g><g
         id="g9813"
         transform="translate(191.22488,193.7712)"><path
           d="m 0,0 c -1.543,1.371 -3.001,2.641 -4.292,4.087 -1.227,1.374 -2.022,2.929 -2.063,4.812 -0.021,0.978 0.217,1.832 1.038,2.462 0.379,0.291 0.783,0.372 1.198,0.194 0.385,-0.166 0.773,-0.373 1.09,-0.643 0.654,-0.557 1.181,-1.223 1.542,-2.018 0.135,-0.297 0.24,-0.722 0.698,-0.665 0.388,0.047 0.353,0.453 0.498,0.712 0.379,0.676 0.754,1.357 1.189,1.997 0.33,0.486 0.793,0.835 1.394,0.98 1.285,0.31 2.163,-0.223 2.382,-1.506 C 4.893,9.123 4.815,7.863 4.223,6.663 3.726,5.655 3.244,4.646 2.569,3.732 1.879,2.797 1.271,1.802 0.62,0.838 0.449,0.583 0.256,0.344 0,0"
           style="fill:#f24dae;fill-opacity:1;fill-rule:nonzero;stroke:none"
           id="path9815" /></g></g><g
       id="g14390"
       transform="translate(18.508589,44.869306)"><g
         id="g9817"
         transform="translate(122.39214,197.88539)"><path
           d="m 0,0 c -0.473,0.043 -0.767,0.298 -1.046,0.565 -1.457,1.391 -2.995,2.706 -4.25,4.294 -1.128,1.427 -1.878,3.025 -2.002,4.871 -0.067,0.997 0.082,1.933 0.772,2.72 0.741,0.844 1.695,1.083 2.728,0.668 0.816,-0.327 1.441,-0.893 1.964,-1.582 0.204,-0.27 0.397,-0.546 0.635,-0.874 0.384,0.319 0.586,0.695 0.797,1.05 0.344,0.577 0.791,1.051 1.317,1.456 0.939,0.722 2.41,0.753 3.386,0.082 C 4.635,13.02 4.856,12.699 4.975,12.325 5.488,10.72 5.486,9.141 4.813,7.558 4.02,5.692 2.895,4.025 1.794,2.343 1.35,1.663 0.866,1.009 0.387,0.354 0.279,0.206 0.112,0.101 0,0 M -0.199,0.977 C 0.057,1.321 0.25,1.56 0.422,1.814 1.072,2.779 1.681,3.774 2.37,4.709 3.045,5.623 3.527,6.632 4.024,7.64 4.616,8.839 4.694,10.1 4.475,11.389 4.257,12.672 3.378,13.205 2.093,12.895 1.492,12.75 1.029,12.401 0.699,11.915 0.265,11.275 -0.111,10.594 -0.49,9.918 -0.634,9.659 -0.6,9.253 -0.988,9.205 -1.446,9.149 -1.551,9.574 -1.686,9.871 c -0.361,0.795 -0.888,1.461 -1.541,2.018 -0.318,0.27 -0.705,0.477 -1.091,0.643 -0.415,0.178 -0.819,0.097 -1.198,-0.194 -0.82,-0.63 -1.058,-1.484 -1.037,-2.462 0.041,-1.883 0.835,-3.439 2.062,-4.813 1.292,-1.446 2.749,-2.715 4.292,-4.086"
           style="fill:#231f20;fill-opacity:1;fill-rule:nonzero;stroke:none"
           id="path9819" /></g><g
         id="g9821"
         transform="translate(122.19344,198.86219)"><path
           d="m 0,0 c -1.543,1.371 -3.001,2.641 -4.292,4.087 -1.227,1.374 -2.022,2.929 -2.063,4.812 -0.021,0.978 0.217,1.832 1.038,2.462 0.379,0.291 0.783,0.372 1.198,0.194 0.385,-0.166 0.773,-0.373 1.09,-0.643 0.654,-0.557 1.181,-1.223 1.542,-2.018 0.135,-0.297 0.24,-0.722 0.698,-0.665 0.388,0.047 0.353,0.453 0.498,0.712 0.379,0.676 0.754,1.357 1.189,1.997 0.33,0.486 0.793,0.835 1.394,0.98 1.285,0.31 2.163,-0.223 2.382,-1.506 C 4.893,9.123 4.815,7.863 4.223,6.663 3.726,5.655 3.244,4.646 2.569,3.732 1.879,2.797 1.271,1.802 0.62,0.838 0.449,0.583 0.256,0.344 0,0"
           style="fill:#fdc642;fill-opacity:1;fill-rule:nonzero;stroke:none"
           id="path9823" /></g></g><g
       id="g14396"
       transform="translate(-120.58626,-72.351756)"><g
         id="g9825"
         transform="translate(391.27899,317.94326)"><path
           d="m 0,0 c -0.473,0.043 -0.767,0.298 -1.046,0.565 -1.457,1.391 -2.995,2.706 -4.25,4.294 -1.128,1.427 -1.878,3.025 -2.002,4.871 -0.067,0.997 0.082,1.933 0.772,2.72 0.741,0.844 1.695,1.083 2.728,0.668 0.816,-0.327 1.441,-0.893 1.964,-1.582 0.204,-0.269 0.397,-0.546 0.635,-0.874 0.384,0.319 0.586,0.695 0.797,1.05 0.344,0.577 0.791,1.051 1.317,1.456 0.939,0.722 2.41,0.753 3.386,0.082 C 4.635,13.02 4.856,12.699 4.975,12.325 5.488,10.72 5.486,9.141 4.813,7.559 4.02,5.692 2.895,4.025 1.794,2.343 1.35,1.663 0.866,1.009 0.387,0.354 0.279,0.206 0.112,0.101 0,0 M -0.199,0.977 C 0.057,1.321 0.25,1.56 0.422,1.814 1.072,2.779 1.681,3.774 2.37,4.709 3.045,5.623 3.527,6.632 4.024,7.64 4.616,8.84 4.694,10.1 4.475,11.389 4.257,12.672 3.378,13.205 2.093,12.895 1.492,12.75 1.029,12.401 0.699,11.915 0.265,11.275 -0.111,10.594 -0.49,9.918 -0.634,9.659 -0.6,9.253 -0.988,9.206 -1.446,9.149 -1.551,9.574 -1.686,9.871 c -0.361,0.795 -0.888,1.461 -1.541,2.018 -0.318,0.27 -0.705,0.477 -1.091,0.643 -0.415,0.178 -0.819,0.097 -1.198,-0.194 -0.82,-0.63 -1.058,-1.484 -1.037,-2.462 0.041,-1.883 0.835,-3.439 2.062,-4.813 1.292,-1.446 2.749,-2.715 4.292,-4.086"
           style="fill:#231f20;fill-opacity:1;fill-rule:nonzero;stroke:none"
           id="path9827" /></g><g
         id="g9829"
         transform="translate(391.08029,318.92016)"><path
           d="m 0,0 c -1.543,1.371 -3.001,2.641 -4.292,4.087 -1.227,1.374 -2.022,2.929 -2.063,4.812 -0.021,0.978 0.217,1.832 1.038,2.462 0.379,0.291 0.783,0.372 1.198,0.194 0.385,-0.166 0.773,-0.373 1.09,-0.643 0.654,-0.557 1.181,-1.222 1.542,-2.018 0.135,-0.297 0.24,-0.722 0.698,-0.665 0.388,0.047 0.353,0.453 0.498,0.712 0.379,0.676 0.754,1.357 1.189,1.997 0.33,0.486 0.793,0.835 1.394,0.98 1.285,0.31 2.163,-0.223 2.382,-1.506 C 4.893,9.123 4.815,7.863 4.223,6.663 3.726,5.655 3.244,4.646 2.569,3.732 1.879,2.797 1.271,1.802 0.62,0.838 0.449,0.583 0.256,0.344 0,0"
           style="fill:#be89cf;fill-opacity:1;fill-rule:nonzero;stroke:none"
           id="path9831" /></g></g></g></svg>
