<?xml version="1.0" encoding="UTF-8" standalone="no"?>
<!-- Created with Inkscape (http://www.inkscape.org/) -->

<svg
   version="1.1"
   id="svg9"
   xml:space="preserve"
   width="559.37067"
   height="559.37067"
   viewBox="0 0 559.37067 559.37067"
   sodipodi:docname="lights.svg"
   inkscape:version="1.1 (c68e22c387, 2021-05-23)"
   xmlns:inkscape="http://www.inkscape.org/namespaces/inkscape"
   xmlns:sodipodi="http://sodipodi.sourceforge.net/DTD/sodipodi-0.dtd"
   xmlns="http://www.w3.org/2000/svg"
   xmlns:svg="http://www.w3.org/2000/svg"><defs
     id="defs13"><clipPath
       clipPathUnits="userSpaceOnUse"
       id="clipPath23"><path
         d="M 0,0 H 419.528 V 419.528 H 0 Z"
         id="path21" /></clipPath><clipPath
       clipPathUnits="userSpaceOnUse"
       id="clipPath1995"><path
         d="M 0,0 H 419.528 V 419.528 H 0 Z"
         id="path1993" /></clipPath><clipPath
       clipPathUnits="userSpaceOnUse"
       id="clipPath3259"><path
         d="M 0,0 H 419.528 V 419.528 H 0 Z"
         id="path3257" /></clipPath><clipPath
       clipPathUnits="userSpaceOnUse"
       id="clipPath3449"><path
         d="M 0,0 H 419.528 V 419.528 H 0 Z"
         id="path3447" /></clipPath><clipPath
       clipPathUnits="userSpaceOnUse"
       id="clipPath4237"><path
         d="M 0,0 H 419.528 V 419.528 H 0 Z"
         id="path4235" /></clipPath><clipPath
       clipPathUnits="userSpaceOnUse"
       id="clipPath4305"><path
         d="M 0,0 H 419.528 V 419.528 H 0 Z"
         id="path4303" /></clipPath><clipPath
       clipPathUnits="userSpaceOnUse"
       id="clipPath4837"><path
         d="M 0,0 H 419.528 V 419.528 H 0 Z"
         id="path4835" /></clipPath><clipPath
       clipPathUnits="userSpaceOnUse"
       id="clipPath5505"><path
         d="M 0,0 H 419.528 V 419.528 H 0 Z"
         id="path5503" /></clipPath><clipPath
       clipPathUnits="userSpaceOnUse"
       id="clipPath5669"><path
         d="M 0,0 H 419.528 V 419.528 H 0 Z"
         id="path5667" /></clipPath><clipPath
       clipPathUnits="userSpaceOnUse"
       id="clipPath5697"><path
         d="M 0,0 H 419.528 V 419.528 H 0 Z"
         id="path5695" /></clipPath><clipPath
       clipPathUnits="userSpaceOnUse"
       id="clipPath5813"><path
         d="M 0,0 H 419.528 V 419.528 H 0 Z"
         id="path5811" /></clipPath><clipPath
       clipPathUnits="userSpaceOnUse"
       id="clipPath6725"><path
         d="M 0,0 H 419.528 V 419.528 H 0 Z"
         id="path6723" /></clipPath></defs><sodipodi:namedview
     id="namedview11"
     pagecolor="#ffffff"
     bordercolor="#666666"
     borderopacity="1.0"
     inkscape:pageshadow="2"
     inkscape:pageopacity="0.0"
     inkscape:pagecheckerboard="0"
     showgrid="false"
     inkscape:zoom="1.8911106"
     inkscape:cx="198.03179"
     inkscape:cy="142.77325"
     inkscape:window-width="1920"
     inkscape:window-height="986"
     inkscape:window-x="-11"
     inkscape:window-y="-11"
     inkscape:window-maximized="1"
     inkscape:current-layer="g15" /><g
     id="g15"
     inkscape:groupmode="layer"
     inkscape:label="G&amp;P_02"
     transform="matrix(1.3333333,0,0,-1.3333333,0,559.37067)"><g
       id="g313"
       transform="translate(-24.588727,-7.9318474)"><g
         id="g969"
         transform="translate(128.68725,300.62184)"><path
           d="m 0,0 c 0.483,0.399 6.365,-1.827 6.729,-1.943 0.438,-0.14 0.885,-0.274 1.296,-0.474 1.427,-0.694 2.997,-0.958 4.495,-1.435 1.389,-0.442 2.791,-0.845 4.189,-1.261 0.589,-0.175 1.175,-0.365 1.774,-0.503 2.024,-0.466 4.052,-0.916 6.081,-1.361 0.525,-0.116 1.056,-0.223 1.59,-0.28 1.386,-0.146 2.727,-0.468 4.048,-0.886 1.429,-0.453 2.868,-0.851 4.377,-0.999 0.84,-0.083 1.674,-0.259 2.499,-0.442 2.407,-0.535 4.871,-0.706 7.305,-1.065 1.481,-0.218 2.994,-0.244 4.493,-0.353 1.458,-0.107 2.925,-0.089 4.367,-0.4 0.633,-0.137 1.304,-0.101 1.955,-0.167 1.721,-0.174 3.438,-0.385 5.162,-0.534 0.957,-0.082 1.925,-0.055 2.886,-0.106 0.923,-0.048 1.845,-0.121 2.766,-0.203 1.65,-0.146 3.296,-0.324 4.947,-0.458 1.42,-0.115 2.842,-0.239 4.265,-0.271 3.119,-0.068 6.24,-0.203 9.356,0.168 0.645,0.077 1.307,0.027 1.961,0.014 1.848,-0.038 3.697,-0.091 5.545,-0.13 2.313,-0.05 4.626,-0.092 6.939,-0.135 0.153,-0.003 0.308,0.012 0.462,0.024 2.691,0.215 5.383,0.417 8.073,0.651 1.731,0.15 3.461,0.312 5.183,0.534 1.259,0.162 2.502,0.422 3.772,0.537 1.768,0.159 3.529,0.394 5.291,0.62 2.103,0.269 4.201,0.578 6.305,0.843 2.145,0.27 4.297,0.483 6.441,0.765 1.606,0.211 3.206,0.473 4.803,0.745 2.395,0.408 4.786,0.843 7.177,1.273 0.379,0.068 0.752,0.171 1.128,0.255 3.121,0.699 6.248,1.374 9.361,2.107 1.763,0.415 3.5,0.933 5.254,1.388 0.708,0.184 1.421,0.36 2.142,0.478 1.76,0.287 3.451,0.799 5.119,1.408 0.796,0.29 1.62,0.502 2.421,0.776 2.004,0.685 4.009,1.366 6.001,2.083 2.243,0.807 4.479,1.635 6.705,2.488 2.05,0.785 4.088,1.601 6.12,2.43 1.423,0.581 2.848,1.156 4.223,1.854 1.127,0.572 2.342,0.973 3.499,1.491 1.614,0.722 3.211,1.481 4.815,2.225 0.419,0.195 0.829,0.41 1.257,0.584 2.748,1.12 5.395,2.443 8.013,3.823 3.231,1.702 6.451,3.425 9.665,5.157 2.773,1.494 5.551,2.981 8.292,4.529 2.442,1.378 4.831,2.845 7.253,4.257 1.791,1.044 3.591,2.072 5.398,3.089 1.104,0.622 2.226,1.214 3.343,1.813 0.338,0.182 0.682,0.357 1.035,0.508 0.184,0.079 0.391,0.057 0.5,-0.142 0.117,-0.213 -0.009,-0.359 -0.196,-0.449 -0.382,-0.182 -0.786,-0.323 -1.153,-0.528 -2.114,-1.178 -4.28,-2.264 -6.343,-3.536 -2.026,-1.249 -4.118,-2.395 -6.178,-3.592 -1.063,-0.618 -2.104,-1.274 -3.179,-1.87 -3.628,-2.015 -7.259,-4.026 -10.906,-6.008 -1.891,-1.028 -3.818,-1.991 -5.728,-2.985 -1.84,-0.958 -3.672,-1.933 -5.523,-2.873 -0.889,-0.452 -1.81,-0.846 -2.721,-1.258 -1.647,-0.743 -3.301,-1.473 -4.946,-2.222 -1.33,-0.605 -2.637,-1.26 -3.98,-1.839 -3.285,-1.416 -6.567,-2.839 -9.884,-4.182 -2.069,-0.838 -4.201,-1.522 -6.296,-2.298 -1.803,-0.667 -3.582,-1.401 -5.393,-2.044 -1.742,-0.618 -3.509,-1.166 -5.271,-1.727 -1.358,-0.433 -2.721,-0.855 -4.091,-1.248 -0.888,-0.254 -1.794,-0.449 -2.692,-0.668 -1.386,-0.338 -2.77,-0.682 -4.159,-1.008 -2.665,-0.627 -5.332,-1.243 -7.999,-1.864 -1.013,-0.235 -2.023,-0.486 -3.041,-0.701 -0.906,-0.191 -1.821,-0.338 -2.73,-0.51 -2.008,-0.379 -4.011,-0.786 -6.024,-1.135 -1.825,-0.317 -3.657,-0.591 -5.49,-0.852 -2.483,-0.353 -4.983,-0.559 -7.464,-0.941 -2.556,-0.393 -5.138,-0.613 -7.706,-0.927 -1.531,-0.187 -3.056,-0.428 -4.588,-0.609 -2.262,-0.268 -4.525,-0.537 -6.794,-0.745 -2.19,-0.202 -4.394,-0.266 -6.579,-0.505 -2.315,-0.253 -4.621,-0.166 -6.933,-0.102 -1.194,0.034 -2.391,0.012 -3.585,0.044 -1.387,0.037 -2.773,0.122 -4.16,0.155 -0.769,0.019 -1.546,0.024 -2.311,-0.049 -2.31,-0.22 -4.621,-0.179 -6.935,-0.184 -1.932,-0.004 -3.852,0.134 -5.775,0.249 -0.651,0.039 -1.296,0.158 -1.946,0.216 -2.189,0.196 -4.379,0.381 -6.568,0.568 -0.192,0.017 -0.385,0.021 -0.578,0.022 -2.317,0.009 -4.615,0.225 -6.905,0.538 -2.443,0.333 -4.9,0.525 -7.361,0.674 -2.5,0.151 -4.982,0.422 -7.466,0.753 -2.483,0.33 -4.907,0.972 -7.409,1.189 -0.606,0.053 -1.21,0.242 -1.787,0.443 -2.221,0.777 -4.519,1.217 -6.843,1.584 -1.29,0.204 -2.546,0.599 -3.829,0.851 -2.386,0.469 -4.688,1.202 -6.99,1.947 -0.984,0.318 -2.001,0.536 -2.994,0.828 C 9.799,-3.78 8.96,-3.503 8.126,-3.214 7.401,-2.962 0.801,-0.901 0.086,-0.625 -0.042,-0.576 0.227,-0.134 0,0"
           style="fill:#231f20;fill-opacity:1;fill-rule:nonzero;stroke:none"
           id="path971" /></g><g
         id="g973"
         transform="translate(151.22135,289.85214)"><path
           d="m 0,0 c 0.536,-0.753 0.996,-1.31 1.353,-1.925 0.386,-0.664 0.505,-1.41 0.412,-2.183 -0.081,-0.672 -0.11,-1.351 -0.216,-2.02 -0.426,-2.695 -2.254,-4.585 -4.69,-4.949 -0.792,-0.118 -1.616,-0.034 -2.425,-0.013 -0.422,0.011 -0.842,0.094 -1.264,0.13 -0.633,0.055 -1.195,0.277 -1.698,0.647 -0.061,0.046 -0.114,0.102 -0.179,0.142 -1.381,0.844 -2.007,2.138 -2.2,3.652 -0.249,1.96 0.123,3.81 1.172,5.529 0.653,1.07 1.558,1.85 2.74,2.433 0.134,1.181 0.594,2.16 2.064,2.282 0.132,0.412 0.239,0.81 0.388,1.193 0.188,0.484 0.442,0.648 0.983,0.602 C -3.064,5.478 -2.562,5.413 -2.082,5.288 -1.65,5.175 -1.431,4.79 -1.178,4.387 -1.334,4.008 -1.499,3.607 -1.681,3.163 -1.474,3.086 -1.334,3.037 -1.197,2.983 -0.341,2.651 0.053,2.038 0.007,1.137 -0.016,0.688 0.001,0.238 0,0 m -4.659,-10.383 c 0.002,0.025 0.003,0.05 0.005,0.076 0.462,0.001 0.924,-0.008 1.386,0.006 0.635,0.019 1.205,0.232 1.72,0.593 1.288,0.903 2.042,2.145 2.365,3.631 0.151,0.696 0.19,1.415 0.272,2.125 0.057,0.496 -0.007,0.985 -0.23,1.429 -0.662,1.321 -1.584,2.398 -3.079,2.857 -1.176,0.36 -2.365,0.602 -3.628,0.497 -0.857,-0.072 -1.572,-0.382 -2.188,-0.91 -0.641,-0.55 -1.126,-1.226 -1.458,-2.007 -0.525,-1.233 -0.804,-2.491 -0.728,-3.841 0.045,-0.813 0.222,-1.578 0.618,-2.258 0.583,-1.003 1.397,-1.794 2.653,-1.958 0.761,-0.099 1.528,-0.161 2.292,-0.24 m 2.186,12.802 c -0.205,0.692 0.374,1.279 0.135,1.955 -0.201,0.083 -0.4,0.195 -0.615,0.249 C -3.58,4.778 -3.796,4.655 -3.977,4.067 -4.084,3.718 -4.176,3.365 -4.275,3.009 -4.485,2.977 -4.634,2.957 -4.782,2.931 -4.971,2.899 -5.165,2.881 -5.347,2.824 -5.943,2.639 -6.063,2.379 -5.923,1.601 -4.212,1.607 -2.537,1.34 -0.89,0.903 c 0.168,0.606 0.154,0.615 0.011,0.852 -0.164,0.273 -0.38,0.461 -0.711,0.511 -0.294,0.045 -0.586,0.101 -0.883,0.153"
           style="fill:#231f20;fill-opacity:1;fill-rule:nonzero;stroke:none"
           id="path975" /></g><g
         id="g977"
         transform="translate(146.56225,279.46894)"><path
           d="m 0,0 c -0.764,0.079 -1.531,0.141 -2.292,0.241 -1.256,0.163 -2.07,0.954 -2.653,1.957 -0.396,0.68 -0.573,1.445 -0.618,2.259 -0.076,1.35 0.203,2.607 0.728,3.841 0.332,0.78 0.818,1.456 1.458,2.006 0.616,0.529 1.331,0.838 2.189,0.91 C 0.074,11.32 1.263,11.077 2.439,10.717 3.934,10.259 4.856,9.181 5.518,7.861 5.741,7.416 5.806,6.927 5.748,6.431 5.666,5.721 5.627,5.002 5.476,4.306 5.153,2.82 4.4,1.578 3.111,0.676 2.596,0.314 2.026,0.102 1.391,0.082 0.929,0.068 0.467,0.077 0.005,0.076 0.003,0.051 0.002,0.025 0,0"
           style="fill:#fafbca;fill-opacity:1;fill-rule:nonzero;stroke:none"
           id="path979" /></g><g
         id="g981"
         transform="translate(148.74855,292.27154)"><path
           d="M 0,0 C 0.297,-0.052 0.589,-0.109 0.883,-0.153 1.214,-0.204 1.43,-0.391 1.594,-0.664 1.736,-0.902 1.751,-0.91 1.583,-1.517 c -1.647,0.438 -3.322,0.704 -5.033,0.699 -0.14,0.777 -0.02,1.037 0.576,1.223 0.181,0.056 0.376,0.075 0.565,0.107 0.148,0.025 0.297,0.046 0.506,0.078 0.1,0.355 0.192,0.709 0.299,1.058 0.18,0.587 0.397,0.71 1.023,0.555 C -0.266,2.15 -0.066,2.037 0.135,1.954 0.373,1.278 -0.206,0.691 0,0"
           style="fill:#231f20;fill-opacity:1;fill-rule:nonzero;stroke:none"
           id="path983" /></g><g
         id="g985"
         transform="translate(174.97795,285.46894)"><path
           d="m 0,0 c 0.614,-0.694 1.132,-1.201 1.553,-1.775 0.455,-0.621 0.653,-1.35 0.643,-2.128 -0.009,-0.677 0.035,-1.355 0.002,-2.03 -0.135,-2.722 -1.752,-4.787 -4.137,-5.398 -0.775,-0.198 -1.604,-0.198 -2.411,-0.26 -0.422,-0.032 -0.848,0.008 -1.272,10e-4 -0.636,-0.01 -1.218,0.153 -1.759,0.47 -0.065,0.039 -0.125,0.09 -0.193,0.123 -1.465,0.697 -2.227,1.92 -2.58,3.405 -0.458,1.923 -0.287,3.8 0.573,5.616 0.535,1.13 1.352,1.997 2.466,2.697 0.007,1.187 0.36,2.208 1.809,2.479 0.087,0.423 0.151,0.829 0.258,1.225 0.136,0.5 0.371,0.689 0.914,0.699 C -3.636,5.132 -3.13,5.12 -2.639,5.044 -2.197,4.975 -1.937,4.615 -1.642,4.241 -1.757,3.848 -1.878,3.432 -2.012,2.973 -1.797,2.917 -1.653,2.882 -1.51,2.843 -0.623,2.601 -0.166,2.031 -0.115,1.131 -0.09,0.682 -0.025,0.236 0,0 m -3.524,-10.796 c -10e-4,0.026 -0.002,0.051 -0.003,0.076 0.46,0.049 0.921,0.087 1.379,0.148 0.629,0.084 1.174,0.353 1.648,0.765 1.185,1.028 1.802,2.34 1.964,3.849 0.076,0.708 0.038,1.427 0.043,2.14 0.004,0.499 -0.112,0.979 -0.382,1.398 -0.8,1.245 -1.833,2.222 -3.37,2.525 -1.208,0.239 -2.418,0.358 -3.663,0.125 -0.846,-0.159 -1.523,-0.54 -2.08,-1.128 -0.578,-0.612 -0.989,-1.334 -1.236,-2.143 -0.39,-1.28 -0.533,-2.558 -0.313,-3.892 0.132,-0.804 0.391,-1.546 0.858,-2.182 0.687,-0.937 1.581,-1.641 2.849,-1.675 0.768,-0.022 1.538,-0.005 2.306,-0.006 M -2.72,2.153 C -2.999,2.819 -2.485,3.461 -2.795,4.109 -3.004,4.171 -3.215,4.263 -3.434,4.294 -4.074,4.384 -4.276,4.24 -4.393,3.637 -4.462,3.279 -4.516,2.919 -4.577,2.555 -4.782,2.502 -4.928,2.466 -5.073,2.426 -5.257,2.375 -5.448,2.337 -5.623,2.262 -6.196,2.017 -6.288,1.746 -6.065,0.987 c 1.701,0.18 3.397,0.086 5.083,-0.18 0.102,0.62 0.087,0.626 -0.081,0.848 C -1.255,1.91 -1.49,2.074 -1.825,2.09 -2.122,2.105 -2.419,2.131 -2.72,2.153"
           style="fill:#231f20;fill-opacity:1;fill-rule:nonzero;stroke:none"
           id="path987" /></g><g
         id="g989"
         transform="translate(171.45425,274.67314)"><path
           d="m 0,0 c -0.769,0.001 -1.538,-0.016 -2.306,0.005 -1.268,0.035 -2.162,0.738 -2.85,1.675 -0.467,0.637 -0.725,1.378 -0.857,2.183 -0.22,1.334 -0.077,2.612 0.313,3.892 0.247,0.809 0.657,1.531 1.236,2.143 0.556,0.588 1.234,0.969 2.08,1.127 1.245,0.234 2.454,0.114 3.662,-0.124 C 2.816,10.598 3.848,9.621 4.649,8.376 4.919,7.957 5.035,7.477 5.031,6.978 5.026,6.265 5.063,5.546 4.988,4.838 4.826,3.329 4.209,2.017 3.024,0.989 2.549,0.577 2.005,0.307 1.376,0.224 0.918,0.163 0.456,0.125 -0.003,0.076 -0.002,0.051 -0.001,0.025 0,0"
           style="fill:#fafbca;fill-opacity:1;fill-rule:nonzero;stroke:none"
           id="path991" /></g><g
         id="g993"
         transform="translate(172.25815,287.62154)"><path
           d="m 0,0 c 0.3,-0.021 0.597,-0.048 0.895,-0.062 0.335,-0.016 0.569,-0.181 0.762,-0.435 0.167,-0.222 0.183,-0.229 0.081,-0.849 -1.686,0.267 -3.382,0.361 -5.083,0.181 -0.223,0.759 -0.132,1.029 0.442,1.274 0.174,0.075 0.365,0.113 0.55,0.164 0.145,0.041 0.291,0.076 0.496,0.129 0.061,0.364 0.114,0.725 0.184,1.082 0.116,0.603 0.319,0.747 0.958,0.657 C -0.495,2.11 -0.284,2.018 -0.076,1.956 0.234,1.309 -0.279,0.666 0,0"
           style="fill:#231f20;fill-opacity:1;fill-rule:nonzero;stroke:none"
           id="path995" /></g><g
         id="g997"
         transform="translate(199.08345,284.07394)"><path
           d="m 0,0 c 0.615,-0.694 1.132,-1.201 1.553,-1.775 0.455,-0.621 0.653,-1.35 0.643,-2.128 -0.008,-0.677 0.035,-1.355 0.002,-2.03 -0.135,-2.722 -1.752,-4.787 -4.137,-5.397 -0.775,-0.199 -1.604,-0.199 -2.411,-0.261 -0.421,-0.032 -0.848,0.008 -1.273,10e-4 -0.635,-0.01 -1.217,0.153 -1.757,0.47 -0.067,0.039 -0.126,0.09 -0.194,0.123 -1.465,0.698 -2.227,1.92 -2.58,3.405 -0.458,1.923 -0.287,3.8 0.573,5.616 0.535,1.13 1.352,1.997 2.466,2.697 0.007,1.187 0.36,2.208 1.809,2.479 0.087,0.423 0.151,0.829 0.258,1.225 0.136,0.5 0.371,0.689 0.914,0.699 C -3.636,5.132 -3.13,5.12 -2.639,5.044 -2.197,4.975 -1.937,4.615 -1.642,4.241 -1.757,3.848 -1.878,3.432 -2.012,2.973 -1.797,2.917 -1.653,2.882 -1.51,2.843 -0.623,2.601 -0.166,2.031 -0.115,1.131 -0.09,0.682 -0.025,0.236 0,0 m -3.524,-10.796 c -10e-4,0.026 -0.002,0.051 -0.003,0.076 0.46,0.049 0.921,0.087 1.379,0.148 0.629,0.084 1.174,0.353 1.648,0.765 1.185,1.028 1.802,2.34 1.964,3.85 0.076,0.707 0.038,1.426 0.043,2.139 0.004,0.499 -0.112,0.979 -0.382,1.398 -0.8,1.245 -1.833,2.222 -3.37,2.525 -1.208,0.239 -2.418,0.358 -3.663,0.125 -0.845,-0.159 -1.523,-0.54 -2.08,-1.128 -0.578,-0.612 -0.989,-1.334 -1.236,-2.143 -0.39,-1.28 -0.533,-2.558 -0.313,-3.892 0.132,-0.804 0.391,-1.546 0.857,-2.182 0.688,-0.937 1.582,-1.641 2.85,-1.675 0.768,-0.021 1.538,-0.005 2.306,-0.006 M -2.72,2.153 C -2.998,2.819 -2.485,3.461 -2.795,4.109 -3.004,4.171 -3.214,4.263 -3.434,4.294 -4.074,4.384 -4.277,4.24 -4.393,3.637 -4.462,3.279 -4.516,2.919 -4.577,2.555 -4.782,2.502 -4.928,2.466 -5.073,2.426 -5.257,2.375 -5.449,2.337 -5.623,2.262 -6.196,2.017 -6.288,1.746 -6.065,0.987 c 1.701,0.18 3.397,0.087 5.083,-0.18 0.102,0.62 0.087,0.627 -0.081,0.848 C -1.255,1.91 -1.49,2.074 -1.825,2.09 -2.122,2.105 -2.419,2.131 -2.72,2.153"
           style="fill:#231f20;fill-opacity:1;fill-rule:nonzero;stroke:none"
           id="path999" /></g><g
         id="g1001"
         transform="translate(195.55985,273.27824)"><path
           d="M 0,0 C -0.769,0 -1.538,-0.016 -2.307,0.005 -3.574,0.04 -4.468,0.743 -5.156,1.68 -5.623,2.317 -5.881,3.058 -6.014,3.863 -6.233,5.197 -6.09,6.475 -5.7,7.755 c 0.247,0.809 0.657,1.531 1.236,2.143 0.556,0.588 1.234,0.969 2.08,1.127 1.245,0.234 2.454,0.114 3.662,-0.124 C 2.816,10.598 3.848,9.621 4.649,8.376 4.918,7.957 5.035,7.477 5.031,6.978 5.025,6.265 5.063,5.546 4.987,4.838 4.826,3.329 4.209,2.017 3.024,0.989 2.549,0.577 2.005,0.307 1.376,0.224 0.917,0.162 0.456,0.124 -0.003,0.076 -0.002,0.051 -0.001,0.025 0,0"
           style="fill:#fafbca;fill-opacity:1;fill-rule:nonzero;stroke:none"
           id="path1003" /></g><g
         id="g1005"
         transform="translate(196.36345,286.22664)"><path
           d="m 0,0 c 0.301,-0.021 0.598,-0.048 0.895,-0.062 0.335,-0.017 0.57,-0.181 0.762,-0.435 0.168,-0.222 0.183,-0.229 0.081,-0.849 -1.686,0.267 -3.382,0.361 -5.083,0.181 -0.223,0.759 -0.131,1.029 0.442,1.274 0.174,0.075 0.366,0.113 0.55,0.164 0.145,0.041 0.291,0.076 0.496,0.129 0.061,0.364 0.115,0.725 0.184,1.082 0.116,0.603 0.319,0.747 0.959,0.657 C -0.495,2.11 -0.284,2.018 -0.075,1.956 0.235,1.309 -0.278,0.666 0,0"
           style="fill:#231f20;fill-opacity:1;fill-rule:nonzero;stroke:none"
           id="path1007" /></g><g
         id="g1009"
         transform="translate(222.56285,283.98464)"><path
           d="m 0,0 c 0.686,-0.627 1.255,-1.078 1.735,-1.606 0.52,-0.571 0.795,-1.275 0.869,-2.05 0.063,-0.673 0.18,-1.343 0.219,-2.017 0.157,-2.719 -1.23,-4.937 -3.538,-5.787 -0.75,-0.276 -1.575,-0.361 -2.371,-0.505 -0.417,-0.075 -0.845,-0.079 -1.267,-0.128 -0.631,-0.075 -1.228,0.028 -1.8,0.287 -0.069,0.032 -0.134,0.077 -0.206,0.103 -1.532,0.544 -2.421,1.681 -2.932,3.121 -0.661,1.865 -0.692,3.748 -0.031,5.641 0.411,1.177 1.131,2.123 2.165,2.932 -0.121,1.181 0.121,2.231 1.535,2.649 0.041,0.429 0.06,0.839 0.125,1.243 0.081,0.511 0.295,0.723 0.834,0.788 0.495,0.06 1,0.099 1.497,0.073 C -2.719,4.721 -2.423,4.39 -2.089,4.047 -2.16,3.646 -2.237,3.22 -2.321,2.75 -2.101,2.717 -1.954,2.696 -1.808,2.672 -0.899,2.521 -0.383,2.002 -0.236,1.112 -0.163,0.669 -0.05,0.232 0,0 m -2.35,-11.09 c -0.003,0.025 -0.007,0.05 -0.011,0.075 0.452,0.095 0.907,0.18 1.356,0.288 0.617,0.147 1.13,0.471 1.558,0.928 1.069,1.143 1.543,2.51 1.542,4.027 0,0.711 -0.115,1.421 -0.186,2.131 -0.05,0.496 -0.217,0.961 -0.53,1.351 -0.93,1.155 -2.062,2.021 -3.625,2.166 -1.227,0.113 -2.444,0.109 -3.657,-0.25 -0.825,-0.244 -1.459,-0.692 -1.949,-1.333 -0.51,-0.667 -0.842,-1.426 -1.001,-2.256 -0.251,-1.312 -0.256,-2.597 0.106,-3.901 0.218,-0.786 0.554,-1.497 1.087,-2.081 0.785,-0.862 1.75,-1.47 3.015,-1.375 0.766,0.057 1.53,0.152 2.295,0.23 M -2.937,1.862 c -0.349,0.634 0.093,1.325 -0.285,1.937 -0.214,0.04 -0.434,0.11 -0.656,0.119 C -4.524,3.942 -4.71,3.778 -4.761,3.167 -4.792,2.804 -4.806,2.441 -4.828,2.073 -5.026,1.999 -5.168,1.949 -5.308,1.894 -5.486,1.824 -5.672,1.767 -5.838,1.675 -6.382,1.373 -6.444,1.095 -6.141,0.363 -4.467,0.715 -2.77,0.795 -1.064,0.702 -1.028,1.328 -1.045,1.333 -1.235,1.537 -1.454,1.77 -1.705,1.91 -2.04,1.891 -2.337,1.875 -2.636,1.872 -2.937,1.862"
           style="fill:#231f20;fill-opacity:1;fill-rule:nonzero;stroke:none"
           id="path1011" /></g><g
         id="g1013"
         transform="translate(220.21325,272.89454)"><path
           d="m 0,0 c -0.765,-0.078 -1.529,-0.172 -2.296,-0.23 -1.265,-0.095 -2.23,0.513 -3.014,1.375 -0.533,0.584 -0.87,1.295 -1.088,2.081 -0.361,1.304 -0.356,2.589 -0.105,3.901 0.159,0.83 0.49,1.589 1,2.256 0.491,0.641 1.125,1.089 1.949,1.333 1.214,0.359 2.43,0.363 3.658,0.25 C 1.666,10.821 2.798,9.955 3.728,8.8 4.042,8.41 4.209,7.945 4.258,7.449 4.329,6.739 4.444,6.029 4.445,5.318 4.445,3.801 3.972,2.434 2.903,1.291 2.475,0.834 1.962,0.51 1.345,0.363 0.896,0.255 0.441,0.17 -0.012,0.075 -0.008,0.05 -0.004,0.025 0,0"
           style="fill:#fafbca;fill-opacity:1;fill-rule:nonzero;stroke:none"
           id="path1015" /></g><g
         id="g1017"
         transform="translate(219.62555,285.84684)"><path
           d="m 0,0 c 0.301,0.009 0.6,0.013 0.897,0.029 0.335,0.018 0.587,-0.121 0.805,-0.354 0.191,-0.204 0.207,-0.209 0.172,-0.836 -1.707,0.094 -3.404,0.014 -5.078,-0.338 -0.303,0.731 -0.241,1.009 0.303,1.312 0.166,0.092 0.352,0.149 0.53,0.219 0.14,0.055 0.282,0.105 0.48,0.179 0.022,0.367 0.036,0.731 0.067,1.094 0.051,0.611 0.238,0.775 0.884,0.75 C -0.718,2.047 -0.499,1.977 -0.285,1.937 0.093,1.325 -0.349,0.634 0,0"
           style="fill:#231f20;fill-opacity:1;fill-rule:nonzero;stroke:none"
           id="path1019" /></g><g
         id="g1021"
         transform="translate(245.21215,284.79154)"><path
           d="m 0,0 c 0.75,-0.554 1.364,-0.944 1.899,-1.419 0.578,-0.515 0.928,-1.187 1.084,-1.949 0.135,-0.663 0.323,-1.317 0.434,-1.983 0.448,-2.687 -0.695,-5.033 -2.901,-6.113 -0.716,-0.35 -1.528,-0.52 -2.305,-0.743 -0.406,-0.117 -0.833,-0.165 -1.247,-0.257 -0.62,-0.139 -1.225,-0.098 -1.821,0.102 -0.073,0.025 -0.142,0.063 -0.216,0.081 -1.583,0.385 -2.59,1.424 -3.253,2.804 -0.858,1.786 -1.09,3.654 -0.635,5.603 0.283,1.213 0.899,2.225 1.84,3.135 -0.246,1.162 -0.118,2.23 1.243,2.79 -0.004,0.43 -0.029,0.84 -0.008,1.249 0.026,0.516 0.216,0.748 0.745,0.867 0.487,0.11 0.985,0.2 1.482,0.226 C -3.211,4.416 -2.881,4.116 -2.512,3.81 -2.541,3.404 -2.571,2.972 -2.604,2.497 -2.382,2.486 -2.233,2.481 -2.085,2.472 -1.165,2.414 -0.595,1.951 -0.354,1.081 -0.233,0.649 -0.075,0.226 0,0 m -1.15,-11.263 c -0.006,0.025 -0.012,0.049 -0.019,0.074 0.44,0.141 0.883,0.271 1.319,0.424 0.598,0.209 1.074,0.583 1.451,1.082 0.941,1.245 1.266,2.652 1.102,4.159 -0.076,0.707 -0.267,1.401 -0.413,2.1 -0.103,0.488 -0.319,0.933 -0.672,1.288 -1.05,1.054 -2.269,1.799 -3.839,1.784 -1.234,-0.013 -2.444,-0.141 -3.613,-0.622 -0.794,-0.327 -1.377,-0.836 -1.796,-1.524 -0.437,-0.715 -0.685,-1.503 -0.754,-2.344 -0.109,-1.33 0.023,-2.608 0.523,-3.866 0.301,-0.759 0.712,-1.432 1.305,-1.959 0.873,-0.776 1.898,-1.281 3.147,-1.058 0.756,0.135 1.507,0.307 2.259,0.462 M -3.122,1.552 C -3.537,2.146 -3.172,2.878 -3.613,3.448 -3.831,3.466 -4.056,3.513 -4.278,3.499 -4.924,3.457 -5.091,3.275 -5.077,2.662 -5.069,2.299 -5.044,1.936 -5.026,1.568 -5.216,1.475 -5.351,1.41 -5.485,1.341 -5.654,1.254 -5.833,1.178 -5.989,1.07 -6.498,0.714 -6.529,0.431 -6.15,-0.265 c 1.628,0.521 3.308,0.773 5.017,0.854 -0.033,0.626 -0.049,0.63 -0.261,0.813 -0.242,0.209 -0.507,0.322 -0.838,0.27 -0.295,-0.046 -0.591,-0.08 -0.89,-0.12"
           style="fill:#231f20;fill-opacity:1;fill-rule:nonzero;stroke:none"
           id="path1023" /></g><g
         id="g1025"
         transform="translate(244.06265,273.52884)"><path
           d="M 0,0 C -0.753,-0.155 -1.503,-0.327 -2.26,-0.463 -3.508,-0.686 -4.534,-0.18 -5.407,0.596 -6,1.123 -6.411,1.795 -6.712,2.554 c -0.499,1.259 -0.632,2.537 -0.523,3.867 0.069,0.841 0.318,1.629 0.754,2.344 0.419,0.688 1.002,1.197 1.796,1.524 1.17,0.481 2.38,0.609 3.613,0.621 1.57,0.016 2.79,-0.729 3.839,-1.783 C 3.121,8.772 3.337,8.327 3.439,7.838 3.586,7.14 3.776,6.445 3.853,5.739 4.016,4.231 3.692,2.824 2.75,1.579 2.373,1.081 1.898,0.707 1.299,0.497 0.864,0.345 0.42,0.214 -0.019,0.074 -0.013,0.049 -0.006,0.025 0,0"
           style="fill:#fafbca;fill-opacity:1;fill-rule:nonzero;stroke:none"
           id="path1027" /></g><g
         id="g1029"
         transform="translate(242.08995,286.34304)"><path
           d="M 0,0 C 0.299,0.04 0.595,0.074 0.89,0.121 1.221,0.173 1.486,0.06 1.729,-0.15 1.94,-0.333 1.957,-0.336 1.989,-0.963 0.281,-1.044 -1.399,-1.296 -3.027,-1.817 c -0.38,0.696 -0.348,0.979 0.161,1.335 0.155,0.108 0.334,0.184 0.504,0.272 0.133,0.069 0.268,0.133 0.458,0.227 -0.018,0.367 -0.042,0.73 -0.051,1.094 -0.014,0.612 0.154,0.794 0.799,0.836 0.222,0.014 0.447,-0.033 0.665,-0.051 C -0.049,1.326 -0.415,0.594 0,0"
           style="fill:#231f20;fill-opacity:1;fill-rule:nonzero;stroke:none"
           id="path1031" /></g><g
         id="g1033"
         transform="translate(268.37995,287.92804)"><path
           d="m 0,0 c 0.769,-0.528 1.397,-0.896 1.949,-1.354 0.596,-0.494 0.97,-1.154 1.153,-1.91 0.159,-0.658 0.37,-1.304 0.505,-1.966 0.544,-2.67 -0.515,-5.053 -2.681,-6.207 -0.703,-0.375 -1.509,-0.571 -2.278,-0.821 -0.401,-0.131 -0.826,-0.193 -1.236,-0.3 -0.615,-0.159 -1.222,-0.139 -1.825,0.041 -0.074,0.022 -0.144,0.057 -0.219,0.073 -1.596,0.33 -2.639,1.335 -3.351,2.691 -0.921,1.755 -1.221,3.614 -0.836,5.577 0.24,1.221 0.819,2.254 1.728,3.195 -0.288,1.153 -0.199,2.225 1.143,2.83 -0.021,0.43 -0.06,0.839 -0.054,1.248 0.008,0.516 0.189,0.755 0.714,0.892 0.483,0.126 0.978,0.233 1.473,0.276 0.447,0.038 0.788,-0.25 1.168,-0.543 -0.014,-0.408 -0.029,-0.84 -0.045,-1.316 0.222,-0.003 0.371,-0.003 0.52,-0.007 0.921,-0.026 1.507,-0.47 1.78,-1.33 C -0.257,0.64 -0.083,0.223 0,0 m -0.746,-11.293 c -0.007,0.024 -0.015,0.049 -0.022,0.073 0.434,0.155 0.873,0.301 1.303,0.468 0.59,0.23 1.053,0.62 1.411,1.131 0.897,1.276 1.171,2.693 0.954,4.194 -0.102,0.703 -0.317,1.391 -0.489,2.083 -0.12,0.485 -0.352,0.922 -0.718,1.265 -1.086,1.017 -2.332,1.72 -3.901,1.651 -1.232,-0.054 -2.437,-0.224 -3.589,-0.744 -0.782,-0.353 -1.346,-0.882 -1.741,-1.583 -0.41,-0.73 -0.631,-1.526 -0.669,-2.369 -0.062,-1.332 0.116,-2.604 0.66,-3.845 0.329,-0.748 0.764,-1.406 1.375,-1.912 0.9,-0.746 1.943,-1.217 3.184,-0.951 0.751,0.161 1.495,0.358 2.242,0.539 M -3.177,1.444 C -3.612,2.024 -3.273,2.768 -3.735,3.322 -3.953,3.333 -4.18,3.372 -4.402,3.35 -5.045,3.287 -5.206,3.099 -5.17,2.487 -5.149,2.125 -5.111,1.763 -5.08,1.396 -5.266,1.296 -5.4,1.227 -5.53,1.154 -5.697,1.06 -5.873,0.978 -6.024,0.865 -6.52,0.492 -6.542,0.208 -6.137,-0.474 -4.529,0.101 -2.858,0.411 -1.154,0.55 -1.209,1.175 -1.225,1.178 -1.443,1.353 -1.693,1.554 -1.962,1.658 -2.291,1.595 -2.584,1.538 -2.879,1.494 -3.177,1.444"
           style="fill:#231f20;fill-opacity:1;fill-rule:nonzero;stroke:none"
           id="path1035" /></g><g
         id="g1037"
         transform="translate(267.63395,276.63524)"><path
           d="m 0,0 c -0.747,-0.181 -1.491,-0.378 -2.242,-0.539 -1.24,-0.266 -2.284,0.205 -3.184,0.951 -0.611,0.506 -1.046,1.164 -1.374,1.912 -0.545,1.241 -0.723,2.513 -0.661,3.845 0.039,0.843 0.259,1.639 0.669,2.368 0.395,0.702 0.959,1.231 1.741,1.584 1.152,0.52 2.357,0.69 3.589,0.744 C 0.107,10.934 1.353,10.231 2.439,9.214 2.805,8.871 3.037,8.434 3.157,7.949 3.329,7.256 3.544,6.569 3.646,5.865 3.863,4.365 3.589,2.948 2.693,1.672 2.334,1.161 1.872,0.771 1.281,0.541 0.851,0.374 0.412,0.228 -0.022,0.073 -0.015,0.049 -0.007,0.024 0,0"
           style="fill:#fafbca;fill-opacity:1;fill-rule:nonzero;stroke:none"
           id="path1039" /></g><g
         id="g1041"
         transform="translate(265.20345,289.37214)"><path
           d="M 0,0 C 0.297,0.05 0.593,0.094 0.885,0.151 1.214,0.214 1.483,0.11 1.733,-0.091 1.951,-0.266 1.968,-0.269 2.022,-0.894 0.318,-1.033 -1.352,-1.343 -2.961,-1.919 c -0.405,0.683 -0.383,0.967 0.113,1.34 0.151,0.113 0.328,0.195 0.494,0.289 0.131,0.073 0.264,0.142 0.45,0.242 -0.031,0.366 -0.068,0.728 -0.09,1.091 -0.036,0.612 0.125,0.8 0.769,0.863 0.221,0.022 0.448,-0.017 0.667,-0.028 C -0.097,1.323 -0.436,0.58 0,0"
           style="fill:#231f20;fill-opacity:1;fill-rule:nonzero;stroke:none"
           id="path1043" /></g><g
         id="g1045"
         transform="translate(290.48345,293.05404)"><path
           d="m 0,0 c 0.779,-0.515 1.413,-0.873 1.973,-1.32 0.605,-0.484 0.99,-1.137 1.187,-1.89 0.171,-0.655 0.393,-1.298 0.54,-1.958 0.592,-2.659 -0.424,-5.06 -2.569,-6.251 -0.697,-0.386 -1.499,-0.596 -2.263,-0.859 -0.4,-0.138 -0.823,-0.207 -1.232,-0.321 -0.611,-0.17 -1.218,-0.159 -1.825,0.01 -0.074,0.02 -0.145,0.055 -0.22,0.069 -1.602,0.303 -2.663,1.29 -3.399,2.633 -0.953,1.739 -1.285,3.593 -0.936,5.562 0.218,1.225 0.779,2.267 1.67,3.224 -0.308,1.147 -0.238,2.22 1.093,2.848 -0.028,0.43 -0.075,0.838 -0.076,1.247 -10e-4,0.516 0.176,0.758 0.698,0.904 0.481,0.134 0.973,0.25 1.468,0.301 0.446,0.045 0.792,-0.237 1.177,-0.523 -0.006,-0.408 -0.013,-0.84 -0.021,-1.317 0.222,10e-4 0.371,0.004 0.52,0.002 0.922,-0.01 1.516,-0.444 1.804,-1.299 C -0.268,0.635 -0.087,0.222 0,0 m -0.544,-11.303 c -0.008,0.024 -0.016,0.048 -0.024,0.073 0.432,0.162 0.868,0.316 1.295,0.49 0.587,0.24 1.042,0.637 1.391,1.154 0.874,1.291 1.123,2.713 0.879,4.209 -0.115,0.702 -0.342,1.385 -0.526,2.075 -0.129,0.482 -0.368,0.916 -0.741,1.252 -1.104,0.999 -2.363,1.68 -3.93,1.585 -1.232,-0.076 -2.433,-0.266 -3.576,-0.805 -0.775,-0.367 -1.33,-0.905 -1.712,-1.613 -0.398,-0.736 -0.603,-1.536 -0.627,-2.379 -0.038,-1.333 0.163,-2.602 0.729,-3.833 0.342,-0.743 0.789,-1.393 1.409,-1.889 0.914,-0.73 1.965,-1.183 3.2,-0.896 0.749,0.174 1.489,0.384 2.233,0.577 M -3.202,1.39 C -3.648,1.962 -3.323,2.711 -3.794,3.257 -4.013,3.265 -4.241,3.3 -4.461,3.274 -5.104,3.2 -5.262,3.01 -5.214,2.399 -5.187,2.036 -5.142,1.675 -5.105,1.309 -5.289,1.206 -5.421,1.135 -5.551,1.059 -5.715,0.963 -5.89,0.878 -6.039,0.762 -6.529,0.381 -6.545,0.097 -6.129,-0.579 -4.531,0.024 -2.866,0.362 -1.164,0.53 -1.23,1.154 -1.246,1.157 -1.467,1.328 -1.721,1.525 -1.992,1.624 -2.32,1.555 -2.611,1.494 -2.906,1.445 -3.202,1.39"
           style="fill:#231f20;fill-opacity:1;fill-rule:nonzero;stroke:none"
           id="path1047" /></g><g
         id="g1049"
         transform="translate(289.93935,281.75114)"><path
           d="m 0,0 c -0.744,-0.194 -1.484,-0.404 -2.232,-0.577 -1.236,-0.287 -2.287,0.166 -3.201,0.896 -0.62,0.496 -1.067,1.146 -1.409,1.888 -0.566,1.232 -0.767,2.501 -0.729,3.834 0.024,0.843 0.229,1.642 0.627,2.379 0.382,0.708 0.937,1.246 1.713,1.613 1.142,0.539 2.343,0.729 3.575,0.805 1.568,0.095 2.826,-0.586 3.93,-1.585 C 2.647,8.916 2.886,8.483 3.015,8.001 3.199,7.311 3.426,6.628 3.541,5.926 3.785,4.429 3.536,3.008 2.662,1.717 2.313,1.2 1.858,0.803 1.271,0.563 0.844,0.388 0.408,0.235 -0.023,0.073 -0.016,0.048 -0.008,0.024 0,0"
           style="fill:#fafbca;fill-opacity:1;fill-rule:nonzero;stroke:none"
           id="path1051" /></g><g
         id="g1053"
         transform="translate(287.28125,294.44354)"><path
           d="m 0,0 c 0.296,0.055 0.591,0.104 0.883,0.166 0.328,0.069 0.598,-0.031 0.852,-0.227 0.221,-0.172 0.238,-0.175 0.303,-0.798 -1.701,-0.169 -3.366,-0.506 -4.965,-1.11 -0.416,0.676 -0.4,0.96 0.09,1.341 0.149,0.117 0.324,0.201 0.489,0.298 0.129,0.075 0.261,0.146 0.445,0.249 -0.037,0.367 -0.081,0.728 -0.109,1.09 -0.047,0.611 0.11,0.801 0.753,0.876 C -1.038,1.91 -0.81,1.875 -0.592,1.868 -0.12,1.322 -0.446,0.572 0,0"
           style="fill:#231f20;fill-opacity:1;fill-rule:nonzero;stroke:none"
           id="path1055" /></g><g
         id="g1057"
         transform="translate(311.07775,299.20994)"><path
           d="m 0,0 c 0.845,-0.403 1.525,-0.672 2.143,-1.038 0.669,-0.397 1.144,-0.991 1.447,-1.71 0.262,-0.624 0.575,-1.23 0.814,-1.863 0.966,-2.552 0.302,-5.065 -1.654,-6.535 -0.636,-0.477 -1.401,-0.794 -2.12,-1.158 -0.377,-0.19 -0.786,-0.316 -1.175,-0.484 -0.582,-0.251 -1.185,-0.323 -1.81,-0.238 -0.076,0.01 -0.151,0.035 -0.228,0.038 -1.631,0.083 -2.823,0.915 -3.744,2.145 -1.193,1.591 -1.786,3.38 -1.721,5.376 0.041,1.242 0.448,2.35 1.195,3.417 -0.469,1.093 -0.552,2.165 0.676,2.967 -0.088,0.421 -0.193,0.819 -0.252,1.223 -0.075,0.511 0.065,0.774 0.563,0.99 0.456,0.198 0.928,0.379 1.411,0.496 0.436,0.106 0.819,-0.126 1.241,-0.357 0.052,-0.404 0.107,-0.833 0.167,-1.305 0.22,0.031 0.367,0.053 0.515,0.072 0.915,0.115 1.566,-0.234 1.973,-1.041 C -0.356,0.593 -0.118,0.208 0,0 m 1.074,-11.258 c -0.012,0.023 -0.023,0.045 -0.034,0.068 0.405,0.22 0.815,0.431 1.213,0.661 0.547,0.317 0.941,0.772 1.214,1.331 0.682,1.396 0.725,2.837 0.27,4.284 -0.214,0.679 -0.536,1.325 -0.817,1.982 -0.197,0.46 -0.496,0.856 -0.913,1.139 -1.237,0.838 -2.581,1.342 -4.121,1.034 -1.21,-0.242 -2.373,-0.593 -3.428,-1.282 -0.717,-0.468 -1.19,-1.076 -1.467,-1.829 -0.289,-0.782 -0.379,-1.601 -0.282,-2.439 0.152,-1.324 0.532,-2.553 1.27,-3.694 0.444,-0.688 0.979,-1.271 1.665,-1.677 1.009,-0.599 2.116,-0.904 3.299,-0.453 0.718,0.274 1.421,0.582 2.131,0.875 M -3.372,0.94 C -3.895,1.446 -3.679,2.232 -4.225,2.708 -4.442,2.686 -4.673,2.69 -4.888,2.634 -5.514,2.473 -5.644,2.264 -5.51,1.666 -5.43,1.311 -5.335,0.959 -5.246,0.602 -5.414,0.475 -5.534,0.387 -5.652,0.295 -5.801,0.177 -5.963,0.069 -6.094,-0.066 -6.524,-0.51 -6.5,-0.793 -5.991,-1.405 c 1.498,0.814 3.1,1.374 4.762,1.772 -0.154,0.608 -0.171,0.608 -0.415,0.748 -0.279,0.16 -0.561,0.222 -0.877,0.109 -0.28,-0.1 -0.565,-0.189 -0.851,-0.284"
           style="fill:#231f20;fill-opacity:1;fill-rule:nonzero;stroke:none"
           id="path1059" /></g><g
         id="g1061"
         transform="translate(312.15125,287.95164)"><path
           d="m 0,0 c -0.71,-0.293 -1.413,-0.601 -2.13,-0.874 -1.183,-0.452 -2.29,-0.146 -3.3,0.452 -0.685,0.406 -1.221,0.989 -1.665,1.677 -0.737,1.142 -1.117,2.371 -1.27,3.695 -0.097,0.837 -0.007,1.656 0.282,2.439 0.278,0.752 0.751,1.36 1.467,1.828 1.055,0.689 2.219,1.041 3.429,1.282 1.539,0.308 2.884,-0.196 4.121,-1.034 C 1.351,9.182 1.65,8.786 1.846,8.327 2.127,7.669 2.45,7.023 2.663,6.345 3.119,4.897 3.075,3.457 2.393,2.061 2.121,1.502 1.726,1.047 1.179,0.73 0.781,0.499 0.371,0.288 -0.034,0.069 -0.022,0.046 -0.011,0.023 0,0"
           style="fill:#fafbca;fill-opacity:1;fill-rule:nonzero;stroke:none"
           id="path1063" /></g><g
         id="g1065"
         transform="translate(307.70615,300.15024)"><path
           d="m 0,0 c 0.286,0.095 0.571,0.184 0.851,0.284 0.315,0.113 0.598,0.051 0.877,-0.109 0.243,-0.14 0.26,-0.14 0.415,-0.749 -1.663,-0.397 -3.265,-0.957 -4.762,-1.771 -0.51,0.612 -0.534,0.895 -0.103,1.339 0.131,0.135 0.292,0.243 0.442,0.36 0.117,0.093 0.238,0.181 0.406,0.308 -0.089,0.357 -0.185,0.709 -0.264,1.063 -0.134,0.598 -0.005,0.808 0.621,0.969 0.215,0.055 0.446,0.051 0.664,0.074 C -0.308,1.291 -0.524,0.506 0,0"
           style="fill:#231f20;fill-opacity:1;fill-rule:nonzero;stroke:none"
           id="path1067" /></g></g><g
       id="g381"
       transform="translate(70.990034,-36.089906)"><g
         id="g645"
         transform="translate(18.695198,384.46837)"><path
           d="M 0,0 C 0.322,-1.281 0.364,-2.305 0.103,-3.436 -0.399,-2.2 -0.435,-1.399 0,0"
           style="fill:#231f20;fill-opacity:1;fill-rule:nonzero;stroke:none"
           id="path647" /></g><g
         id="g697"
         transform="translate(18.670798,387.44697)"><path
           d="M 0,0 C -0.299,1.153 -0.475,1.996 -0.151,2.95 0.311,2.394 0.35,1.909 0,0"
           style="fill:#231f20;fill-opacity:1;fill-rule:nonzero;stroke:none"
           id="path699" /></g><g
         id="g1069"
         transform="translate(0.5304979,400.05887)"><path
           d="m 0,0 c 0.511,0.362 6.212,-2.294 6.566,-2.436 0.427,-0.172 0.863,-0.34 1.258,-0.569 1.371,-0.798 2.917,-1.178 4.376,-1.764 1.353,-0.544 2.721,-1.05 4.084,-1.568 0.575,-0.218 1.145,-0.452 1.732,-0.633 1.984,-0.615 3.973,-1.214 5.964,-1.809 0.515,-0.153 1.036,-0.3 1.564,-0.396 1.371,-0.249 2.685,-0.669 3.971,-1.184 1.392,-0.557 2.797,-1.061 4.291,-1.32 0.832,-0.145 1.65,-0.383 2.46,-0.627 2.36,-0.711 4.805,-1.065 7.206,-1.603 1.461,-0.327 2.968,-0.465 4.454,-0.685 1.446,-0.215 2.91,-0.305 4.326,-0.723 0.621,-0.183 1.293,-0.197 1.937,-0.31 1.703,-0.302 3.4,-0.639 5.108,-0.916 0.949,-0.153 1.915,-0.198 2.87,-0.319 0.917,-0.117 1.832,-0.258 2.744,-0.408 1.634,-0.268 3.263,-0.567 4.899,-0.823 1.407,-0.221 2.816,-0.449 4.233,-0.586 3.105,-0.3 6.208,-0.666 9.342,-0.526 0.65,0.028 1.306,-0.07 1.957,-0.132 1.841,-0.174 3.68,-0.364 5.521,-0.541 2.303,-0.22 4.606,-0.434 6.909,-0.649 0.154,-0.014 0.309,-0.01 0.463,-0.009 2.7,0.014 5.4,0.016 8.1,0.05 1.736,0.022 3.474,0.055 5.208,0.149 1.267,0.068 2.526,0.235 3.801,0.255 1.775,0.029 3.549,0.132 5.322,0.227 2.118,0.112 4.233,0.265 6.351,0.373 2.159,0.11 4.321,0.164 6.479,0.286 1.618,0.092 3.233,0.234 4.846,0.387 2.418,0.23 4.835,0.486 7.251,0.737 0.383,0.04 0.762,0.115 1.143,0.171 3.165,0.466 6.333,0.907 9.492,1.407 1.789,0.284 3.56,0.672 5.343,0.996 0.719,0.131 1.444,0.254 2.172,0.318 1.776,0.155 3.5,0.541 5.209,1.024 0.815,0.23 1.652,0.381 2.472,0.595 2.049,0.534 4.099,1.065 6.138,1.632 2.297,0.639 4.589,1.299 6.871,1.984 2.103,0.631 4.195,1.294 6.283,1.971 1.463,0.474 2.927,0.941 4.35,1.535 1.165,0.487 2.407,0.797 3.599,1.228 1.664,0.6 3.313,1.239 4.967,1.862 0.432,0.163 0.857,0.347 1.296,0.489 2.824,0.913 5.562,2.037 8.275,3.218 3.348,1.459 6.686,2.939 10.021,4.427 2.875,1.284 5.756,2.561 8.604,3.902 2.537,1.194 5.029,2.479 7.549,3.708 1.863,0.909 3.735,1.8 5.612,2.681 1.147,0.538 2.309,1.045 3.468,1.56 0.351,0.156 0.707,0.306 1.07,0.43 0.189,0.065 0.394,0.028 0.488,-0.179 0.101,-0.221 -0.036,-0.357 -0.229,-0.433 -0.394,-0.153 -0.807,-0.264 -1.189,-0.441 -2.196,-1.019 -4.436,-1.941 -6.587,-3.057 -2.113,-1.095 -4.285,-2.083 -6.427,-3.124 -1.106,-0.538 -2.193,-1.114 -3.309,-1.629 -3.768,-1.741 -7.538,-3.477 -11.321,-5.183 -1.962,-0.885 -3.956,-1.703 -5.934,-2.553 -1.906,-0.819 -3.805,-1.655 -5.72,-2.455 -0.921,-0.385 -1.868,-0.71 -2.807,-1.053 -1.698,-0.619 -3.402,-1.225 -5.097,-1.849 -1.372,-0.505 -2.724,-1.062 -4.105,-1.539 -3.382,-1.169 -6.761,-2.345 -10.168,-3.439 -2.125,-0.682 -4.302,-1.206 -6.449,-1.824 -1.848,-0.533 -3.675,-1.133 -5.53,-1.64 -1.782,-0.487 -3.585,-0.903 -5.384,-1.331 -1.387,-0.331 -2.777,-0.651 -4.172,-0.941 -0.905,-0.188 -1.822,-0.315 -2.734,-0.467 -1.407,-0.234 -2.813,-0.475 -4.222,-0.697 -2.704,-0.428 -5.41,-0.845 -8.115,-1.266 -1.028,-0.16 -2.054,-0.335 -3.085,-0.474 -0.918,-0.123 -1.841,-0.202 -2.761,-0.306 -2.03,-0.229 -4.058,-0.486 -6.092,-0.686 -1.842,-0.181 -3.689,-0.318 -5.537,-0.442 -2.502,-0.168 -5.01,-0.189 -7.514,-0.386 -2.577,-0.202 -5.168,-0.231 -7.753,-0.353 -1.541,-0.073 -3.079,-0.2 -4.62,-0.267 -2.276,-0.1 -4.553,-0.2 -6.831,-0.24 -2.199,-0.039 -4.401,0.061 -6.599,-0.015 -2.327,-0.081 -4.619,0.176 -6.92,0.412 -1.189,0.121 -2.384,0.189 -3.573,0.309 -1.38,0.14 -2.756,0.327 -4.137,0.463 -0.766,0.076 -1.539,0.138 -2.308,0.122 -2.319,-0.048 -4.621,0.164 -6.93,0.331 -1.927,0.139 -3.831,0.419 -5.74,0.676 -0.646,0.087 -1.281,0.253 -1.925,0.359 -2.168,0.358 -4.338,0.705 -6.508,1.054 -0.19,0.03 -0.382,0.049 -0.574,0.064 -2.31,0.181 -4.586,0.567 -6.847,1.048 -2.411,0.514 -4.847,0.887 -7.291,1.218 -2.481,0.336 -4.936,0.79 -7.388,1.304 -2.453,0.514 -4.823,1.333 -7.301,1.736 -0.6,0.097 -1.189,0.33 -1.749,0.574 -2.158,0.939 -4.417,1.548 -6.707,2.087 -1.272,0.299 -2.495,0.785 -3.756,1.132 -2.344,0.644 -4.586,1.546 -6.827,2.46 -0.957,0.39 -1.956,0.682 -2.924,1.047 -0.827,0.311 -1.643,0.65 -2.454,1 C 7.161,-3.503 0.732,-0.958 0.039,-0.629 -0.084,-0.571 0.217,-0.151 0,0"
           style="fill:#231f20;fill-opacity:1;fill-rule:nonzero;stroke:none"
           id="path1071" /></g><g
         id="g1073"
         transform="translate(22.204398,387.64897)"><path
           d="m 0,0 c 0.479,-0.791 0.896,-1.381 1.207,-2.02 0.335,-0.691 0.399,-1.443 0.248,-2.207 -0.13,-0.665 -0.209,-1.34 -0.364,-1.999 -0.625,-2.656 -2.588,-4.405 -5.045,-4.588 -0.797,-0.059 -1.614,0.086 -2.418,0.167 -0.421,0.042 -0.833,0.156 -1.252,0.224 -0.627,0.101 -1.17,0.364 -1.644,0.771 -0.058,0.049 -0.107,0.11 -0.169,0.154 -1.315,0.944 -1.843,2.281 -1.923,3.805 -0.103,1.973 0.405,3.791 1.578,5.428 0.731,1.018 1.691,1.728 2.913,2.222 0.222,1.168 0.753,2.111 2.228,2.124 0.162,0.4 0.298,0.789 0.475,1.16 0.223,0.468 0.489,0.613 1.024,0.528 C -2.649,5.69 -2.154,5.588 -1.685,5.428 -1.262,5.283 -1.072,4.883 -0.849,4.462 -1.033,4.096 -1.228,3.708 -1.442,3.279 -1.241,3.187 -1.105,3.127 -0.972,3.064 -0.143,2.669 0.204,2.028 0.091,1.133 0.035,0.688 0.018,0.237 0,0 m -5.416,-10.009 c 0.004,0.025 0.007,0.05 0.011,0.075 0.461,-0.033 0.921,-0.076 1.383,-0.097 0.634,-0.027 1.218,0.143 1.759,0.465 1.352,0.804 2.195,1.987 2.627,3.445 0.202,0.683 0.295,1.397 0.429,2.099 0.094,0.49 0.067,0.982 -0.123,1.443 -0.563,1.366 -1.402,2.509 -2.86,3.076 -1.145,0.447 -2.313,0.777 -3.58,0.765 -0.86,-0.008 -1.596,-0.264 -2.249,-0.746 -0.68,-0.5 -1.215,-1.139 -1.603,-1.892 -0.615,-1.192 -0.987,-2.425 -1.012,-3.777 -0.014,-0.815 0.106,-1.59 0.45,-2.298 0.507,-1.043 1.26,-1.892 2.5,-2.149 0.752,-0.155 1.512,-0.274 2.268,-0.409 M -2.287,2.596 C -2.44,3.301 -1.82,3.843 -2.008,4.535 -2.202,4.633 -2.392,4.76 -2.603,4.829 -3.216,5.03 -3.441,4.923 -3.665,4.35 -3.797,4.011 -3.915,3.665 -4.041,3.318 -4.252,3.301 -4.402,3.292 -4.552,3.278 -4.743,3.259 -4.938,3.256 -5.123,3.213 -5.731,3.072 -5.87,2.822 -5.788,2.035 c 1.707,-0.121 3.357,-0.51 4.968,-1.069 0.212,0.593 0.198,0.602 0.073,0.85 -0.143,0.284 -0.344,0.487 -0.67,0.562 -0.291,0.066 -0.578,0.144 -0.87,0.218"
           style="fill:#231f20;fill-opacity:1;fill-rule:nonzero;stroke:none"
           id="path1075" /></g><g
         id="g1077"
         transform="translate(16.788798,377.63947)"><path
           d="m 0,0 c -0.756,0.135 -1.516,0.254 -2.268,0.41 -1.241,0.256 -1.993,1.105 -2.5,2.148 -0.345,0.708 -0.465,1.484 -0.45,2.299 0.025,1.351 0.396,2.585 1.011,3.776 0.389,0.754 0.923,1.392 1.603,1.893 0.654,0.481 1.389,0.737 2.25,0.745 1.267,0.012 2.435,-0.318 3.58,-0.764 C 4.684,9.939 5.523,8.796 6.086,7.43 6.275,6.97 6.303,6.478 6.209,5.987 6.075,5.286 5.982,4.571 5.78,3.888 5.348,2.431 4.504,1.247 3.153,0.443 2.612,0.121 2.027,-0.049 1.394,-0.021 0.932,-0.001 0.471,0.043 0.01,0.076 0.007,0.05 0.003,0.025 0,0"
           style="fill:#fafbca;fill-opacity:1;fill-rule:nonzero;stroke:none"
           id="path1079" /></g><g
         id="g1081"
         transform="translate(19.917798,390.24487)"><path
           d="M 0,0 C 0.292,-0.074 0.579,-0.152 0.869,-0.218 1.196,-0.293 1.397,-0.496 1.54,-0.78 1.665,-1.028 1.679,-1.037 1.466,-1.63 c -1.61,0.559 -3.261,0.948 -4.967,1.069 -0.082,0.787 0.057,1.037 0.665,1.178 0.185,0.043 0.38,0.046 0.571,0.065 0.15,0.014 0.3,0.023 0.511,0.04 0.126,0.347 0.243,0.693 0.376,1.032 0.224,0.573 0.449,0.68 1.062,0.479 C -0.106,2.164 0.085,2.037 0.279,1.939 0.467,1.247 -0.154,0.705 0,0"
           style="fill:#231f20;fill-opacity:1;fill-rule:nonzero;stroke:none"
           id="path1083" /></g><g
         id="g1085"
         transform="translate(45.570898,381.51717)"><path
           d="M 0,0 C 0.561,-0.738 1.04,-1.281 1.417,-1.885 1.825,-2.538 1.969,-3.28 1.901,-4.055 1.842,-4.729 1.836,-5.409 1.752,-6.08 c -0.336,-2.704 -2.102,-4.644 -4.525,-5.076 -0.788,-0.14 -1.615,-0.079 -2.424,-0.081 -0.423,0 -0.845,0.071 -1.269,0.096 -0.634,0.037 -1.203,0.243 -1.718,0.599 -0.063,0.043 -0.118,0.098 -0.185,0.136 -1.408,0.805 -2.078,2.08 -2.32,3.587 -0.314,1.952 -0.004,3.811 0.988,5.558 0.617,1.088 1.496,1.892 2.659,2.507 0.095,1.184 0.522,2.175 1.988,2.339 0.118,0.414 0.212,0.815 0.348,1.202 0.172,0.488 0.42,0.66 0.963,0.629 C -3.245,5.388 -2.741,5.337 -2.258,5.225 -1.822,5.124 -1.59,4.746 -1.323,4.351 -1.467,3.968 -1.619,3.562 -1.786,3.114 -1.576,3.043 -1.435,2.997 -1.295,2.947 -0.429,2.64 -0.015,2.038 -0.031,1.136 -0.039,0.687 -0.007,0.238 0,0 m -4.314,-10.505 c 0.001,0.025 0.002,0.051 0.002,0.076 0.462,0.014 0.925,0.018 1.386,0.045 0.634,0.037 1.197,0.266 1.701,0.641 1.258,0.937 1.97,2.2 2.243,3.693 0.128,0.7 0.144,1.42 0.202,2.131 0.041,0.498 -0.039,0.984 -0.277,1.422 -0.706,1.301 -1.664,2.352 -3.174,2.768 -1.187,0.328 -2.385,0.536 -3.643,0.396 -0.856,-0.096 -1.56,-0.425 -2.158,-0.971 -0.623,-0.567 -1.086,-1.256 -1.392,-2.045 -0.484,-1.247 -0.721,-2.512 -0.601,-3.858 0.073,-0.812 0.276,-1.571 0.694,-2.24 0.616,-0.985 1.456,-1.753 2.717,-1.882 0.765,-0.078 1.533,-0.118 2.3,-0.176 m 1.761,12.853 c -0.228,0.685 0.331,1.288 0.07,1.957 C -2.687,4.382 -2.89,4.489 -3.107,4.536 -3.738,4.674 -3.95,4.545 -4.112,3.952 -4.207,3.601 -4.287,3.245 -4.375,2.887 -4.583,2.849 -4.732,2.825 -4.879,2.795 -5.067,2.758 -5.26,2.734 -5.44,2.672 -6.03,2.47 -6.141,2.207 -5.975,1.434 c 1.71,0.054 3.394,-0.166 5.056,-0.557 0.147,0.611 0.132,0.619 -0.018,0.852 -0.173,0.268 -0.395,0.45 -0.728,0.491 -0.296,0.036 -0.59,0.085 -0.888,0.128"
           style="fill:#231f20;fill-opacity:1;fill-rule:nonzero;stroke:none"
           id="path1087" /></g><g
         id="g1089"
         transform="translate(41.256898,371.01217)"><path
           d="m 0,0 c -0.767,0.058 -1.535,0.098 -2.3,0.176 -1.261,0.129 -2.101,0.897 -2.717,1.882 -0.418,0.669 -0.621,1.428 -0.694,2.24 -0.12,1.346 0.117,2.611 0.601,3.858 0.306,0.789 0.769,1.478 1.392,2.045 0.598,0.546 1.302,0.875 2.158,0.971 1.258,0.14 2.456,-0.068 3.643,-0.396 C 3.593,10.36 4.551,9.309 5.257,8.008 5.495,7.57 5.575,7.083 5.534,6.586 5.476,5.875 5.46,5.155 5.332,4.455 5.059,2.962 4.347,1.699 3.089,0.762 2.585,0.387 2.022,0.158 1.388,0.121 0.927,0.094 0.464,0.09 0.002,0.076 0.001,0.051 0.001,0.025 0,0"
           style="fill:#fafbca;fill-opacity:1;fill-rule:nonzero;stroke:none"
           id="path1091" /></g><g
         id="g1093"
         transform="translate(43.017998,383.86547)"><path
           d="m 0,0 c 0.298,-0.044 0.592,-0.092 0.888,-0.129 0.333,-0.04 0.555,-0.222 0.728,-0.49 0.15,-0.233 0.165,-0.241 0.018,-0.852 -1.662,0.391 -3.346,0.61 -5.056,0.557 -0.166,0.773 -0.055,1.036 0.535,1.238 0.179,0.062 0.373,0.085 0.561,0.123 0.147,0.03 0.296,0.054 0.504,0.092 0.088,0.358 0.168,0.714 0.263,1.065 0.161,0.593 0.374,0.721 1.005,0.584 C -0.337,2.141 -0.134,2.034 0.07,1.956 0.331,1.288 -0.229,0.685 0,0"
           style="fill:#231f20;fill-opacity:1;fill-rule:nonzero;stroke:none"
           id="path1095" /></g><g
         id="g1097"
         transform="translate(69.506698,378.33957)"><path
           d="M 0,0 C 0.561,-0.738 1.04,-1.281 1.417,-1.885 1.825,-2.538 1.969,-3.28 1.901,-4.055 1.842,-4.729 1.836,-5.409 1.752,-6.08 c -0.336,-2.704 -2.102,-4.644 -4.525,-5.076 -0.787,-0.14 -1.615,-0.079 -2.424,-0.081 -0.423,0 -0.845,0.071 -1.269,0.096 -0.634,0.037 -1.203,0.243 -1.718,0.599 -0.063,0.043 -0.118,0.098 -0.185,0.136 -1.408,0.805 -2.078,2.08 -2.32,3.587 -0.314,1.952 -0.004,3.811 0.988,5.558 0.617,1.088 1.497,1.892 2.659,2.507 0.095,1.184 0.522,2.175 1.988,2.339 0.118,0.414 0.212,0.815 0.348,1.202 0.172,0.488 0.421,0.66 0.963,0.629 C -3.245,5.388 -2.741,5.337 -2.258,5.225 -1.822,5.124 -1.59,4.746 -1.323,4.351 -1.467,3.968 -1.619,3.562 -1.786,3.114 -1.576,3.043 -1.435,2.997 -1.295,2.947 -0.429,2.64 -0.014,2.038 -0.031,1.136 -0.039,0.687 -0.007,0.238 0,0 m -4.314,-10.505 c 0.001,0.025 0.002,0.051 0.002,0.076 0.462,0.014 0.925,0.018 1.386,0.045 0.634,0.037 1.197,0.266 1.701,0.641 1.258,0.938 1.97,2.2 2.243,3.693 0.129,0.7 0.144,1.42 0.202,2.131 0.041,0.498 -0.039,0.984 -0.277,1.423 -0.706,1.3 -1.664,2.351 -3.174,2.768 -1.187,0.327 -2.385,0.535 -3.643,0.395 -0.855,-0.096 -1.56,-0.425 -2.158,-0.971 -0.623,-0.567 -1.086,-1.256 -1.392,-2.045 -0.483,-1.247 -0.721,-2.512 -0.601,-3.858 0.073,-0.812 0.276,-1.571 0.694,-2.24 0.616,-0.985 1.456,-1.753 2.717,-1.882 0.765,-0.078 1.533,-0.118 2.3,-0.176 m 1.761,12.853 c -0.228,0.685 0.331,1.288 0.07,1.957 C -2.687,4.382 -2.89,4.489 -3.107,4.536 -3.738,4.674 -3.95,4.545 -4.112,3.952 -4.207,3.601 -4.287,3.245 -4.375,2.887 -4.583,2.849 -4.732,2.825 -4.879,2.795 -5.067,2.758 -5.26,2.734 -5.44,2.672 -6.03,2.47 -6.141,2.207 -5.975,1.434 c 1.71,0.054 3.394,-0.166 5.056,-0.557 0.147,0.611 0.132,0.619 -0.018,0.852 -0.173,0.268 -0.395,0.45 -0.728,0.491 -0.296,0.036 -0.59,0.085 -0.888,0.128"
           style="fill:#231f20;fill-opacity:1;fill-rule:nonzero;stroke:none"
           id="path1099" /></g><g
         id="g1101"
         transform="translate(65.192798,367.83457)"><path
           d="m 0,0 c -0.767,0.058 -1.535,0.098 -2.3,0.176 -1.261,0.129 -2.101,0.897 -2.717,1.882 -0.419,0.669 -0.621,1.428 -0.694,2.24 -0.12,1.346 0.117,2.611 0.601,3.858 0.306,0.789 0.769,1.478 1.392,2.045 0.598,0.546 1.302,0.875 2.157,0.971 1.259,0.14 2.456,-0.068 3.644,-0.396 C 3.593,10.36 4.551,9.309 5.257,8.009 5.495,7.57 5.575,7.083 5.534,6.586 5.476,5.875 5.46,5.155 5.332,4.455 5.059,2.962 4.347,1.699 3.089,0.762 2.585,0.387 2.022,0.158 1.388,0.121 0.927,0.094 0.464,0.09 0.002,0.076 0.001,0.051 0.001,0.025 0,0"
           style="fill:#fafbca;fill-opacity:1;fill-rule:nonzero;stroke:none"
           id="path1103" /></g><g
         id="g1105"
         transform="translate(66.953898,380.68787)"><path
           d="m 0,0 c 0.298,-0.044 0.592,-0.092 0.888,-0.129 0.333,-0.04 0.555,-0.222 0.728,-0.49 0.15,-0.233 0.165,-0.241 0.017,-0.852 -1.661,0.391 -3.345,0.61 -5.055,0.557 -0.166,0.773 -0.055,1.036 0.535,1.238 0.179,0.062 0.373,0.085 0.561,0.123 0.147,0.03 0.296,0.054 0.504,0.092 0.088,0.358 0.168,0.714 0.263,1.065 0.161,0.593 0.374,0.721 1.005,0.584 C -0.337,2.141 -0.134,2.034 0.07,1.956 0.331,1.288 -0.229,0.685 0,0"
           style="fill:#231f20;fill-opacity:1;fill-rule:nonzero;stroke:none"
           id="path1107" /></g><g
         id="g1109"
         transform="translate(92.914898,376.51037)"><path
           d="m 0,0 c 0.637,-0.676 1.171,-1.168 1.611,-1.73 0.476,-0.608 0.699,-1.331 0.714,-2.109 0.014,-0.676 0.081,-1.352 0.07,-2.028 -0.045,-2.723 -1.593,-4.832 -3.958,-5.508 -0.768,-0.22 -1.597,-0.244 -2.402,-0.328 -0.42,-0.044 -0.848,-0.016 -1.272,-0.035 -0.635,-0.027 -1.223,0.12 -1.774,0.421 -0.067,0.037 -0.128,0.086 -0.197,0.117 -1.488,0.656 -2.291,1.857 -2.693,3.331 -0.522,1.908 -0.413,3.788 0.386,5.627 0.498,1.144 1.286,2.033 2.377,2.763 -0.033,1.187 0.286,2.217 1.727,2.528 0.073,0.425 0.123,0.833 0.217,1.231 0.119,0.504 0.347,0.699 0.89,0.724 0.498,0.022 1.005,0.024 1.498,-0.038 C -2.362,4.91 -2.091,4.557 -1.783,4.191 -1.884,3.796 -1.992,3.377 -2.111,2.914 -1.894,2.865 -1.749,2.834 -1.604,2.799 -0.71,2.581 -0.233,2.025 -0.153,1.127 -0.113,0.679 -0.033,0.236 0,0 m -3.165,-10.885 c -0.002,0.025 -0.004,0.05 -0.006,0.076 0.458,0.061 0.918,0.112 1.374,0.186 0.626,0.101 1.162,0.386 1.623,0.81 1.151,1.061 1.724,2.389 1.835,3.901 0.053,0.709 -0.009,1.426 -0.027,2.14 -0.013,0.498 -0.145,0.974 -0.429,1.386 -0.841,1.221 -1.907,2.169 -3.454,2.429 -1.215,0.204 -2.429,0.29 -3.666,0.021 -0.84,-0.182 -1.505,-0.581 -2.042,-1.185 -0.558,-0.627 -0.945,-1.36 -1.165,-2.175 -0.347,-1.29 -0.448,-2.571 -0.184,-3.898 0.159,-0.8 0.442,-1.534 0.93,-2.156 0.719,-0.917 1.636,-1.595 2.905,-1.594 0.768,0 1.537,0.038 2.306,0.059 m 0.374,12.96 C -3.092,2.733 -2.6,3.389 -2.932,4.027 -3.142,4.084 -3.356,4.169 -3.577,4.194 -4.219,4.266 -4.417,4.117 -4.514,3.511 -4.571,3.152 -4.612,2.79 -4.661,2.425 -4.864,2.366 -5.009,2.327 -5.153,2.282 -5.336,2.226 -5.526,2.182 -5.698,2.103 -6.263,1.842 -6.345,1.569 -6.097,0.817 c 1.695,0.227 3.394,0.181 5.088,-0.039 0.082,0.623 0.066,0.629 -0.109,0.846 -0.2,0.249 -0.441,0.407 -0.776,0.414 -0.298,0.006 -0.596,0.024 -0.897,0.037"
           style="fill:#231f20;fill-opacity:1;fill-rule:nonzero;stroke:none"
           id="path1111" /></g><g
         id="g1113"
         transform="translate(89.749998,365.62507)"><path
           d="m 0,0 c -0.769,-0.021 -1.538,-0.059 -2.306,-0.059 -1.269,-0.001 -2.186,0.677 -2.905,1.594 -0.488,0.623 -0.771,1.356 -0.93,2.156 -0.264,1.327 -0.163,2.609 0.184,3.898 0.22,0.816 0.607,1.548 1.165,2.176 0.537,0.603 1.202,1.002 2.042,1.185 1.237,0.268 2.45,0.182 3.666,-0.022 C 2.463,10.668 3.528,9.721 4.37,8.499 4.654,8.088 4.786,7.612 4.799,7.113 4.817,6.4 4.879,5.683 4.826,4.974 4.715,3.461 4.141,2.133 2.991,1.073 2.53,0.648 1.994,0.363 1.368,0.262 0.912,0.188 0.452,0.137 -0.006,0.076 -0.004,0.051 -0.002,0.025 0,0"
           style="fill:#fafbca;fill-opacity:1;fill-rule:nonzero;stroke:none"
           id="path1115" /></g><g
         id="g1117"
         transform="translate(90.123798,378.58527)"><path
           d="m 0,0 c 0.301,-0.013 0.599,-0.031 0.897,-0.037 0.335,-0.007 0.576,-0.165 0.776,-0.414 0.175,-0.217 0.191,-0.223 0.11,-0.845 -1.695,0.219 -3.394,0.266 -5.089,0.038 -0.248,0.752 -0.166,1.025 0.399,1.286 0.173,0.08 0.362,0.123 0.545,0.179 0.144,0.045 0.289,0.084 0.492,0.143 0.049,0.365 0.09,0.727 0.148,1.086 0.096,0.606 0.294,0.755 0.936,0.683 C -0.565,2.094 -0.351,2.009 -0.14,1.952 0.191,1.314 -0.301,0.658 0,0"
           style="fill:#231f20;fill-opacity:1;fill-rule:nonzero;stroke:none"
           id="path1119" /></g><g
         id="g1121"
         transform="translate(115.5618,375.63667)"><path
           d="m 0,0 c 0.707,-0.608 1.29,-1.042 1.788,-1.556 0.539,-0.556 0.838,-1.252 0.937,-2.024 0.086,-0.671 0.224,-1.337 0.286,-2.01 0.247,-2.712 -1.066,-4.967 -3.346,-5.881 -0.74,-0.296 -1.563,-0.404 -2.354,-0.57 -0.414,-0.087 -0.842,-0.102 -1.262,-0.164 -0.629,-0.092 -1.229,-0.006 -1.809,0.237 -0.071,0.03 -0.137,0.073 -0.209,0.096 -1.551,0.502 -2.477,1.613 -3.036,3.038 -0.723,1.844 -0.817,3.725 -0.219,5.635 0.373,1.188 1.062,2.152 2.068,2.99 -0.16,1.177 0.047,2.233 1.447,2.69 0.027,0.429 0.033,0.84 0.084,1.246 0.064,0.512 0.27,0.73 0.807,0.81 0.494,0.073 0.997,0.126 1.495,0.115 0.448,-0.011 0.755,-0.334 1.1,-0.666 C -2.281,3.582 -2.343,3.155 -2.412,2.683 -2.191,2.656 -2.043,2.639 -1.896,2.619 -0.983,2.494 -0.449,1.99 -0.273,1.105 -0.185,0.664 -0.058,0.231 0,0 m -1.981,-11.147 c -0.005,0.025 -0.009,0.05 -0.014,0.075 0.449,0.108 0.901,0.205 1.347,0.325 0.612,0.165 1.114,0.503 1.527,0.972 1.031,1.171 1.459,2.551 1.407,4.066 -0.023,0.71 -0.162,1.417 -0.256,2.124 -0.067,0.495 -0.249,0.955 -0.575,1.335 -0.969,1.129 -2.129,1.962 -3.696,2.063 -1.231,0.079 -2.447,0.041 -3.649,-0.352 -0.817,-0.267 -1.435,-0.732 -1.905,-1.386 -0.488,-0.681 -0.794,-1.449 -0.925,-2.282 -0.207,-1.318 -0.17,-2.603 0.235,-3.895 0.244,-0.779 0.604,-1.48 1.156,-2.049 0.813,-0.839 1.798,-1.419 3.06,-1.289 0.765,0.078 1.526,0.194 2.288,0.293 M -2.999,1.779 C -3.368,2.402 -2.95,3.105 -3.348,3.706 -3.563,3.74 -3.785,3.804 -4.007,3.806 -4.654,3.812 -4.835,3.643 -4.866,3.031 -4.884,2.668 -4.887,2.304 -4.896,1.936 -5.092,1.857 -5.232,1.803 -5.37,1.744 -5.546,1.669 -5.73,1.607 -5.893,1.51 -6.427,1.193 -6.479,0.914 -6.152,0.191 -4.49,0.59 -2.796,0.717 -1.087,0.671 -1.072,1.299 -1.089,1.303 -1.286,1.501 -1.512,1.728 -1.768,1.86 -2.102,1.833 -2.399,1.809 -2.698,1.796 -2.999,1.779"
           style="fill:#231f20;fill-opacity:1;fill-rule:nonzero;stroke:none"
           id="path1123" /></g><g
         id="g1125"
         transform="translate(113.5808,364.49007)"><path
           d="m 0,0 c -0.763,-0.099 -1.523,-0.215 -2.288,-0.294 -1.262,-0.13 -2.247,0.451 -3.06,1.289 -0.552,0.57 -0.912,1.271 -1.156,2.05 -0.405,1.292 -0.442,2.577 -0.235,3.894 0.131,0.834 0.437,1.601 0.925,2.282 0.47,0.655 1.088,1.12 1.905,1.387 C -2.708,11 -1.492,11.039 -0.26,10.96 1.307,10.859 2.467,10.025 3.436,8.897 3.762,8.516 3.944,8.057 4.011,7.562 4.105,6.855 4.243,6.148 4.267,5.438 4.319,3.922 3.891,2.543 2.86,1.371 2.447,0.902 1.945,0.565 1.333,0.4 0.887,0.28 0.435,0.182 -0.014,0.075 -0.009,0.05 -0.005,0.025 0,0"
           style="fill:#fafbca;fill-opacity:1;fill-rule:nonzero;stroke:none"
           id="path1127" /></g><g
         id="g1129"
         transform="translate(112.5631,377.41527)"><path
           d="m 0,0 c 0.301,0.018 0.599,0.03 0.896,0.054 0.335,0.028 0.59,-0.105 0.817,-0.332 0.197,-0.197 0.213,-0.202 0.199,-0.829 -1.709,0.045 -3.404,-0.082 -5.066,-0.481 -0.327,0.723 -0.274,1.003 0.26,1.32 0.163,0.096 0.347,0.159 0.523,0.234 0.138,0.058 0.277,0.112 0.473,0.192 0.01,0.368 0.012,0.732 0.031,1.095 0.031,0.612 0.212,0.781 0.858,0.774 0.223,-0.002 0.444,-0.065 0.66,-0.1 C 0.049,1.326 -0.37,0.624 0,0"
           style="fill:#231f20;fill-opacity:1;fill-rule:nonzero;stroke:none"
           id="path1131" /></g><g
         id="g1133"
         transform="translate(138.8984,377.04757)"><path
           d="m 0,0 c 0.728,-0.583 1.327,-0.998 1.843,-1.494 0.558,-0.537 0.882,-1.223 1.008,-1.991 0.11,-0.667 0.273,-1.328 0.358,-1.998 0.345,-2.703 -0.888,-5.001 -3.133,-5.991 -0.729,-0.322 -1.548,-0.458 -2.332,-0.651 -0.411,-0.1 -0.839,-0.131 -1.256,-0.206 -0.625,-0.114 -1.228,-0.048 -1.817,0.175 -0.071,0.027 -0.139,0.068 -0.212,0.089 -1.567,0.448 -2.534,1.528 -3.143,2.932 -0.789,1.819 -0.949,3.695 -0.42,5.624 0.329,1.2 0.983,2.187 1.959,3.059 -0.201,1.17 -0.032,2.233 1.35,2.737 0.012,0.43 0.003,0.841 0.039,1.248 0.046,0.514 0.245,0.739 0.779,0.837 0.49,0.09 0.991,0.16 1.489,0.166 C -3.04,4.54 -2.721,4.228 -2.364,3.908 -2.408,3.502 -2.455,3.073 -2.507,2.599 -2.285,2.579 -2.137,2.568 -1.989,2.553 -1.071,2.459 -0.52,1.973 -0.312,1.095 -0.209,0.657 -0.066,0.229 0,0 m -1.581,-11.207 c -0.005,0.025 -0.011,0.05 -0.017,0.075 0.445,0.123 0.894,0.235 1.335,0.37 0.606,0.186 1.095,0.54 1.491,1.023 0.989,1.206 1.367,2.599 1.261,4.112 -0.049,0.709 -0.212,1.41 -0.332,2.114 -0.084,0.492 -0.283,0.945 -0.622,1.314 -1.009,1.095 -2.199,1.889 -3.768,1.936 -1.234,0.037 -2.448,-0.043 -3.635,-0.476 -0.806,-0.294 -1.408,-0.78 -1.853,-1.45 -0.464,-0.697 -0.742,-1.475 -0.844,-2.312 -0.16,-1.324 -0.076,-2.607 0.375,-3.884 0.271,-0.771 0.656,-1.459 1.228,-2.009 0.843,-0.81 1.849,-1.357 3.105,-1.184 0.761,0.105 1.518,0.246 2.276,0.371 M -3.061,1.675 C -3.453,2.286 -3.059,3.002 -3.478,3.589 -3.695,3.617 -3.919,3.672 -4.141,3.667 -4.788,3.651 -4.962,3.476 -4.972,2.864 -4.977,2.5 -4.966,2.136 -4.963,1.768 -5.156,1.683 -5.294,1.624 -5.43,1.56 -5.603,1.479 -5.785,1.411 -5.944,1.309 -6.466,0.974 -6.509,0.693 -6.156,-0.018 -4.509,0.437 -2.82,0.621 -1.11,0.634 -1.118,1.261 -1.135,1.265 -1.339,1.456 -1.573,1.675 -1.834,1.799 -2.167,1.76 -2.463,1.726 -2.76,1.703 -3.061,1.675"
           style="fill:#231f20;fill-opacity:1;fill-rule:nonzero;stroke:none"
           id="path1135" /></g><g
         id="g1137"
         transform="translate(137.3175,365.84107)"><path
           d="m 0,0 c -0.759,-0.125 -1.515,-0.267 -2.276,-0.371 -1.257,-0.173 -2.262,0.373 -3.105,1.184 -0.572,0.55 -0.957,1.238 -1.229,2.008 -0.451,1.278 -0.534,2.56 -0.374,3.884 0.102,0.838 0.38,1.615 0.844,2.312 0.445,0.67 1.047,1.156 1.853,1.451 1.187,0.433 2.401,0.513 3.635,0.475 C 0.917,10.896 2.107,10.103 3.115,9.008 3.455,8.639 3.654,8.185 3.738,7.693 3.858,6.99 4.021,6.288 4.07,5.579 4.176,4.066 3.797,2.674 2.809,1.468 2.413,0.985 1.924,0.63 1.318,0.445 0.876,0.31 0.428,0.197 -0.017,0.074 -0.011,0.05 -0.006,0.025 0,0"
           style="fill:#fafbca;fill-opacity:1;fill-rule:nonzero;stroke:none"
           id="path1139" /></g><g
         id="g1141"
         transform="translate(135.8376,378.72307)"><path
           d="M 0,0 C 0.3,0.028 0.598,0.05 0.894,0.085 1.227,0.124 1.487,0 1.722,-0.219 c 0.204,-0.191 0.22,-0.195 0.229,-0.823 -1.71,-0.012 -3.399,-0.197 -5.046,-0.652 -0.353,0.711 -0.31,0.992 0.212,1.327 0.159,0.102 0.341,0.171 0.514,0.252 0.136,0.063 0.274,0.122 0.467,0.208 -0.004,0.368 -0.014,0.732 -0.009,1.095 0.009,0.613 0.184,0.788 0.83,0.804 0.223,0.005 0.447,-0.051 0.663,-0.078 C 0.002,1.327 -0.392,0.611 0,0"
           style="fill:#231f20;fill-opacity:1;fill-rule:nonzero;stroke:none"
           id="path1143" /></g><g
         id="g1145"
         transform="translate(161.3208,380.52137)"><path
           d="M 0,0 C 0.738,-0.571 1.345,-0.975 1.87,-1.463 2.437,-1.99 2.773,-2.67 2.913,-3.436 3.035,-4.101 3.21,-4.759 3.307,-5.428 3.7,-8.124 2.509,-10.442 0.281,-11.471 c -0.723,-0.334 -1.539,-0.484 -2.32,-0.69 -0.409,-0.107 -0.836,-0.145 -1.252,-0.228 -0.622,-0.124 -1.227,-0.069 -1.819,0.145 -0.072,0.026 -0.141,0.065 -0.214,0.085 -1.576,0.421 -2.561,1.484 -3.195,2.878 -0.821,1.805 -1.016,3.678 -0.521,5.616 0.308,1.205 0.944,2.203 1.904,3.091 -0.222,1.167 -0.072,2.232 1.301,2.76 0.004,0.43 -0.012,0.841 0.017,1.248 0.037,0.515 0.231,0.743 0.763,0.851 0.489,0.098 0.989,0.177 1.486,0.19 0.448,0.013 0.773,-0.294 1.135,-0.608 C -2.47,3.461 -2.51,3.03 -2.553,2.556 -2.331,2.54 -2.182,2.531 -2.034,2.519 -1.115,2.44 -0.555,1.964 -0.331,1.089 -0.22,0.654 -0.07,0.228 0,0 m -1.38,-11.231 c -0.006,0.024 -0.012,0.049 -0.018,0.074 0.443,0.13 0.889,0.25 1.327,0.393 0.603,0.195 1.086,0.558 1.473,1.048 0.967,1.222 1.321,2.621 1.188,4.132 -0.062,0.708 -0.238,1.407 -0.371,2.108 -0.092,0.491 -0.299,0.94 -0.645,1.304 -1.028,1.077 -2.232,1.85 -3.802,1.871 -1.234,0.016 -2.447,-0.084 -3.626,-0.538 -0.801,-0.308 -1.394,-0.804 -1.827,-1.481 -0.451,-0.705 -0.716,-1.487 -0.802,-2.326 -0.136,-1.327 -0.03,-2.607 0.444,-3.877 0.285,-0.766 0.683,-1.447 1.264,-1.988 0.858,-0.795 1.873,-1.325 3.126,-1.131 0.759,0.118 1.513,0.273 2.269,0.411 M -3.09,1.623 C -3.493,2.227 -3.112,2.95 -3.542,3.53 -3.76,3.553 -3.984,3.605 -4.206,3.596 -4.853,3.569 -5.024,3.391 -5.022,2.779 -5.021,2.415 -5.004,2.052 -4.994,1.684 -5.185,1.595 -5.322,1.533 -5.457,1.468 -5.628,1.384 -5.809,1.312 -5.966,1.208 -6.483,0.864 -6.52,0.582 -6.155,-0.123 c 1.639,0.483 3.324,0.696 5.034,0.738 -0.02,0.627 -0.036,0.631 -0.244,0.818 -0.238,0.215 -0.501,0.335 -0.833,0.29 -0.295,-0.039 -0.593,-0.067 -0.892,-0.1"
           style="fill:#231f20;fill-opacity:1;fill-rule:nonzero;stroke:none"
           id="path1147" /></g><g
         id="g1149"
         transform="translate(159.9407,369.28987)"><path
           d="m 0,0 c -0.756,-0.138 -1.51,-0.292 -2.269,-0.41 -1.253,-0.194 -2.268,0.335 -3.125,1.131 -0.582,0.54 -0.98,1.222 -1.265,1.987 -0.474,1.27 -0.58,2.551 -0.444,3.877 0.086,0.839 0.351,1.621 0.802,2.326 0.433,0.678 1.026,1.174 1.827,1.482 1.18,0.453 2.392,0.554 3.626,0.537 C 0.722,10.91 1.926,10.137 2.954,9.059 3.3,8.696 3.507,8.246 3.599,7.756 3.732,7.054 3.908,6.355 3.97,5.647 4.103,4.137 3.749,2.738 2.782,1.515 2.395,1.026 1.912,0.663 1.309,0.467 0.871,0.325 0.425,0.204 -0.018,0.074 -0.012,0.049 -0.006,0.025 0,0"
           style="fill:#fafbca;fill-opacity:1;fill-rule:nonzero;stroke:none"
           id="path1151" /></g><g
         id="g1153"
         transform="translate(158.2304,382.14437)"><path
           d="M 0,0 C 0.3,0.033 0.597,0.06 0.892,0.1 1.225,0.145 1.487,0.025 1.726,-0.19 1.933,-0.377 1.95,-0.381 1.969,-1.008 0.26,-1.05 -1.426,-1.263 -3.064,-1.746 c -0.366,0.705 -0.328,0.987 0.188,1.33 0.157,0.105 0.338,0.177 0.51,0.261 0.134,0.065 0.271,0.127 0.462,0.216 -0.01,0.368 -0.027,0.731 -0.028,1.095 -0.002,0.612 0.17,0.79 0.816,0.817 C -0.894,1.982 -0.669,1.93 -0.452,1.907 -0.022,1.327 -0.403,0.604 0,0"
           style="fill:#231f20;fill-opacity:1;fill-rule:nonzero;stroke:none"
           id="path1155" /></g><g
         id="g1157"
         transform="translate(182.3148,385.13417)"><path
           d="m 0,0 c 0.813,-0.465 1.471,-0.783 2.06,-1.194 0.638,-0.446 1.068,-1.073 1.316,-1.812 0.216,-0.643 0.482,-1.27 0.674,-1.919 0.774,-2.616 -0.074,-5.073 -2.134,-6.394 -0.669,-0.428 -1.455,-0.688 -2.2,-0.997 -0.389,-0.162 -0.807,-0.258 -1.207,-0.396 -0.599,-0.208 -1.206,-0.235 -1.823,-0.104 -0.075,0.016 -0.148,0.046 -0.224,0.056 -1.62,0.203 -2.748,1.121 -3.575,2.415 -1.072,1.676 -1.531,3.504 -1.318,5.489 0.133,1.236 0.621,2.31 1.445,3.32 -0.387,1.124 -0.39,2.2 0.894,2.908 -0.057,0.427 -0.132,0.831 -0.161,1.239 -0.037,0.515 0.123,0.767 0.635,0.945 0.47,0.164 0.954,0.309 1.444,0.391 0.442,0.073 0.807,-0.187 1.212,-0.449 0.021,-0.407 0.044,-0.838 0.069,-1.314 0.222,0.014 0.37,0.026 0.519,0.034 0.921,0.047 1.544,-0.349 1.89,-1.185 C -0.311,0.617 -0.102,0.216 0,0 m 0.236,-11.307 c -0.009,0.024 -0.019,0.047 -0.028,0.071 0.42,0.189 0.844,0.369 1.259,0.569 0.568,0.276 0.995,0.701 1.309,1.238 0.783,1.341 0.933,2.774 0.586,4.252 -0.162,0.693 -0.436,1.36 -0.668,2.037 -0.161,0.473 -0.43,0.89 -0.825,1.203 -1.172,0.927 -2.475,1.529 -4.033,1.337 -1.225,-0.152 -2.411,-0.416 -3.514,-1.025 -0.75,-0.413 -1.266,-0.985 -1.599,-1.714 -0.346,-0.759 -0.496,-1.57 -0.462,-2.412 0.054,-1.332 0.342,-2.585 0.993,-3.778 0.392,-0.719 0.883,-1.34 1.536,-1.796 0.963,-0.672 2.044,-1.058 3.257,-0.696 0.736,0.22 1.46,0.475 2.189,0.714 M -3.293,1.188 C -3.778,1.731 -3.504,2.498 -4.012,3.014 -4.231,3.008 -4.461,3.029 -4.68,2.989 -5.316,2.875 -5.46,2.676 -5.371,2.07 -5.318,1.71 -5.249,1.352 -5.187,0.989 -5.364,0.875 -5.49,0.796 -5.614,0.713 -5.772,0.606 -5.941,0.511 -6.082,0.386 c -0.462,-0.411 -0.459,-0.695 0.004,-1.343 1.553,0.701 3.192,1.14 4.88,1.414 C -1.307,1.075 -1.324,1.076 -1.557,1.234 -1.823,1.414 -2.1,1.497 -2.423,1.408 -2.71,1.328 -3,1.261 -3.293,1.188"
           style="fill:#231f20;fill-opacity:1;fill-rule:nonzero;stroke:none"
           id="path1159" /></g><g
         id="g1161"
         transform="translate(182.551,373.82717)"><path
           d="m 0,0 c -0.729,-0.239 -1.453,-0.495 -2.189,-0.714 -1.213,-0.362 -2.294,0.024 -3.257,0.696 -0.653,0.456 -1.144,1.077 -1.536,1.796 -0.651,1.193 -0.939,2.446 -0.993,3.778 -0.034,0.842 0.116,1.653 0.462,2.412 0.333,0.729 0.849,1.301 1.599,1.714 1.103,0.609 2.289,0.873 3.514,1.025 1.558,0.192 2.861,-0.41 4.033,-1.337 C 2.027,9.057 2.297,8.64 2.458,8.167 2.69,7.49 2.964,6.822 3.126,6.13 3.473,4.652 3.323,3.219 2.54,1.878 2.226,1.34 1.799,0.916 1.23,0.64 0.816,0.44 0.392,0.26 -0.028,0.071 -0.019,0.047 -0.009,0.024 0,0"
           style="fill:#fafbca;fill-opacity:1;fill-rule:nonzero;stroke:none"
           id="path1163" /></g><g
         id="g1165"
         transform="translate(179.0222,386.32177)"><path
           d="m 0,0 c 0.292,0.073 0.583,0.141 0.87,0.22 0.322,0.089 0.6,0.007 0.866,-0.174 0.233,-0.157 0.249,-0.159 0.358,-0.777 -1.687,-0.273 -3.326,-0.713 -4.88,-1.414 -0.462,0.649 -0.466,0.933 -0.003,1.343 0.141,0.125 0.309,0.221 0.467,0.327 0.124,0.083 0.251,0.163 0.428,0.277 -0.063,0.363 -0.132,0.72 -0.185,1.08 -0.089,0.606 0.056,0.806 0.692,0.92 0.219,0.039 0.449,0.018 0.667,0.024 C -0.211,1.311 -0.485,0.543 0,0"
           style="fill:#231f20;fill-opacity:1;fill-rule:nonzero;stroke:none"
           id="path1167" /></g><g
         id="g1169"
         transform="translate(203.6344,392.60577)"><path
           d="m 0,0 c 0.851,-0.394 1.536,-0.655 2.16,-1.015 0.675,-0.389 1.159,-0.978 1.472,-1.692 0.273,-0.622 0.595,-1.224 0.844,-1.854 1.005,-2.54 0.379,-5.06 -1.555,-6.55 -0.628,-0.484 -1.389,-0.809 -2.103,-1.181 -0.373,-0.194 -0.781,-0.325 -1.167,-0.497 -0.579,-0.257 -1.18,-0.336 -1.807,-0.258 -0.077,0.01 -0.152,0.033 -0.229,0.036 -1.632,0.065 -2.838,0.884 -3.778,2.103 -1.217,1.578 -1.838,3.36 -1.803,5.355 0.022,1.242 0.412,2.354 1.143,3.429 -0.486,1.088 -0.586,2.158 0.631,2.973 -0.095,0.42 -0.206,0.816 -0.271,1.22 -0.083,0.51 0.053,0.774 0.547,0.996 0.454,0.203 0.923,0.389 1.405,0.511 0.434,0.111 0.821,-0.117 1.247,-0.344 0.057,-0.403 0.119,-0.831 0.186,-1.303 0.22,0.034 0.367,0.058 0.514,0.078 0.914,0.125 1.57,-0.216 1.99,-1.019 C -0.365,0.588 -0.121,0.206 0,0 m 1.246,-11.242 c -0.011,0.022 -0.023,0.045 -0.035,0.068 0.402,0.224 0.809,0.439 1.204,0.674 0.542,0.323 0.929,0.782 1.194,1.344 0.66,1.403 0.681,2.843 0.204,4.285 -0.224,0.676 -0.557,1.318 -0.848,1.972 -0.203,0.458 -0.509,0.85 -0.93,1.128 -1.25,0.825 -2.602,1.313 -4.138,0.989 -1.206,-0.255 -2.365,-0.618 -3.409,-1.319 -0.71,-0.475 -1.173,-1.089 -1.44,-1.844 -0.277,-0.785 -0.354,-1.605 -0.244,-2.441 0.173,-1.322 0.572,-2.546 1.326,-3.679 0.455,-0.683 1,-1.26 1.692,-1.658 1.019,-0.588 2.13,-0.881 3.307,-0.417 0.713,0.282 1.412,0.597 2.117,0.898 M -3.387,0.903 c -0.531,0.5 -0.327,1.288 -0.88,1.758 C -4.484,2.636 -4.715,2.638 -4.93,2.58 -5.554,2.412 -5.679,2.201 -5.536,1.605 -5.452,1.251 -5.351,0.901 -5.256,0.544 -5.422,0.416 -5.542,0.326 -5.658,0.233 -5.805,0.113 -5.965,0.004 -6.094,-0.132 -6.518,-0.581 -6.49,-0.863 -5.971,-1.47 c 1.486,0.83 3.079,1.407 4.736,1.823 C -1.398,0.96 -1.416,0.96 -1.661,1.097 -1.943,1.254 -2.226,1.312 -2.54,1.196 -2.819,1.093 -3.102,1.001 -3.387,0.903"
           style="fill:#231f20;fill-opacity:1;fill-rule:nonzero;stroke:none"
           id="path1171" /></g><g
         id="g1173"
         transform="translate(204.8804,381.36337)"><path
           d="m 0,0 c -0.705,-0.3 -1.404,-0.616 -2.117,-0.897 -1.177,-0.464 -2.288,-0.171 -3.307,0.416 -0.692,0.399 -1.237,0.975 -1.692,1.658 -0.754,1.133 -1.153,2.358 -1.327,3.679 -0.109,0.836 -0.032,1.656 0.245,2.442 0.266,0.755 0.73,1.368 1.44,1.844 1.044,0.7 2.203,1.064 3.409,1.319 1.536,0.324 2.888,-0.165 4.138,-0.99 C 1.21,9.194 1.516,8.801 1.719,8.344 2.01,7.689 2.343,7.047 2.567,6.371 3.044,4.929 3.023,3.489 2.362,2.086 2.098,1.524 1.711,1.065 1.169,0.742 0.774,0.507 0.367,0.292 -0.035,0.068 -0.023,0.046 -0.011,0.023 0,0"
           style="fill:#fafbca;fill-opacity:1;fill-rule:nonzero;stroke:none"
           id="path1175" /></g><g
         id="g1177"
         transform="translate(200.2477,393.50887)"><path
           d="M 0,0 C 0.284,0.098 0.568,0.19 0.847,0.293 1.16,0.409 1.444,0.351 1.726,0.194 1.971,0.057 1.988,0.056 2.152,-0.55 0.495,-0.966 -1.099,-1.543 -2.584,-2.373 c -0.519,0.606 -0.547,0.889 -0.123,1.337 0.129,0.137 0.288,0.246 0.436,0.366 0.116,0.093 0.236,0.183 0.401,0.311 -0.094,0.357 -0.195,0.707 -0.28,1.061 -0.143,0.596 -0.017,0.807 0.607,0.975 0.214,0.058 0.445,0.056 0.663,0.081 C -0.328,1.287 -0.532,0.5 0,0"
           style="fill:#231f20;fill-opacity:1;fill-rule:nonzero;stroke:none"
           id="path1179" /></g><g
         id="g1181"
         transform="translate(224.3397,401.24957)"><path
           d="m 0,0 c 0.883,-0.32 1.589,-0.521 2.242,-0.827 0.708,-0.331 1.243,-0.876 1.619,-1.561 0.327,-0.596 0.701,-1.169 1.006,-1.775 1.228,-2.445 0.83,-5.008 -0.964,-6.656 -0.582,-0.536 -1.311,-0.924 -1.989,-1.355 -0.355,-0.225 -0.749,-0.39 -1.119,-0.594 -0.553,-0.306 -1.146,-0.435 -1.777,-0.411 -0.077,0.003 -0.154,0.02 -0.231,0.017 -1.632,-0.074 -2.906,0.639 -3.952,1.773 -1.353,1.468 -2.132,3.19 -2.275,5.181 -0.089,1.239 0.2,2.379 0.832,3.513 -0.581,1.042 -0.777,2.099 0.363,3.015 -0.133,0.41 -0.278,0.795 -0.38,1.191 -0.128,0.501 -0.015,0.777 0.457,1.039 0.434,0.241 0.885,0.466 1.354,0.629 0.422,0.147 0.828,-0.047 1.273,-0.237 0.093,-0.397 0.193,-0.818 0.302,-1.282 0.216,0.052 0.36,0.089 0.505,0.121 C -1.835,1.984 -1.151,1.7 -0.661,0.936 -0.417,0.555 -0.139,0.195 0,0 m 2.246,-11.092 c -0.013,0.021 -0.027,0.043 -0.04,0.065 0.38,0.257 0.766,0.506 1.138,0.773 0.512,0.368 0.857,0.858 1.07,1.44 0.532,1.454 0.425,2.89 -0.18,4.286 -0.283,0.655 -0.672,1.266 -1.021,1.893 -0.243,0.438 -0.582,0.803 -1.027,1.044 -1.319,0.715 -2.71,1.087 -4.211,0.634 -1.179,-0.357 -2.301,-0.818 -3.279,-1.604 -0.665,-0.534 -1.072,-1.184 -1.27,-1.959 -0.205,-0.806 -0.209,-1.629 -0.025,-2.453 0.29,-1.301 0.797,-2.487 1.651,-3.551 0.514,-0.642 1.108,-1.17 1.833,-1.508 1.068,-0.499 2.201,-0.696 3.332,-0.134 0.686,0.341 1.354,0.715 2.029,1.074 M -3.455,0.612 C -4.029,1.064 -3.896,1.866 -4.489,2.288 -4.703,2.245 -4.934,2.227 -5.142,2.151 -5.749,1.931 -5.855,1.71 -5.66,1.128 -5.543,0.783 -5.412,0.443 -5.286,0.096 -5.439,-0.047 -5.55,-0.146 -5.657,-0.249 -5.794,-0.38 -5.943,-0.503 -6.06,-0.65 c -0.382,-0.482 -0.328,-0.762 0.243,-1.321 1.406,0.952 2.942,1.663 4.555,2.218 -0.217,0.59 -0.234,0.589 -0.491,0.704 C -2.048,1.084 -2.335,1.118 -2.637,0.976 -2.906,0.849 -3.18,0.734 -3.455,0.612"
           style="fill:#231f20;fill-opacity:1;fill-rule:nonzero;stroke:none"
           id="path1183" /></g><g
         id="g1185"
         transform="translate(226.5861,390.15747)"><path
           d="m 0,0 c -0.676,-0.359 -1.344,-0.733 -2.029,-1.074 -1.131,-0.562 -2.265,-0.364 -3.332,0.134 -0.725,0.338 -1.319,0.866 -1.834,1.508 -0.853,1.064 -1.36,2.25 -1.651,3.552 -0.184,0.823 -0.18,1.646 0.026,2.452 0.198,0.775 0.605,1.425 1.269,1.959 0.979,0.787 2.1,1.247 3.28,1.604 1.5,0.453 2.891,0.081 4.211,-0.634 C 0.384,9.26 0.723,8.895 0.967,8.457 1.315,7.83 1.704,7.219 1.988,6.564 2.593,5.168 2.7,3.732 2.167,2.279 1.954,1.697 1.609,1.206 1.098,0.839 0.726,0.571 0.339,0.322 -0.041,0.065 -0.027,0.043 -0.014,0.022 0,0"
           style="fill:#fafbca;fill-opacity:1;fill-rule:nonzero;stroke:none"
           id="path1187" /></g><g
         id="g1189"
         transform="translate(220.8847,401.86147)"><path
           d="M 0,0 C 0.275,0.122 0.549,0.237 0.817,0.364 1.119,0.506 1.407,0.472 1.702,0.339 1.959,0.224 1.976,0.225 2.193,-0.365 0.58,-0.92 -0.957,-1.63 -2.362,-2.583 c -0.572,0.56 -0.625,0.839 -0.243,1.321 0.117,0.147 0.266,0.27 0.402,0.401 0.108,0.103 0.219,0.203 0.372,0.345 -0.126,0.347 -0.257,0.687 -0.374,1.032 -0.195,0.582 -0.089,0.803 0.518,1.023 0.208,0.076 0.439,0.094 0.653,0.137 C -0.442,1.255 -0.575,0.453 0,0"
           style="fill:#231f20;fill-opacity:1;fill-rule:nonzero;stroke:none"
           id="path1191" /></g></g></g></svg>
